<svg version="1.1" baseProfile="full" xmlns="http://www.w3.org/2000/svg"
width="1024" height="819.9"
viewBox="-24.48 -24.19 45.47 36.4"
>
<rect x="-24.48" y="-24.19" width="100%" height="100%" fill="white" />
<path stroke="green" stroke-width="0.04" stroke-linecap="round" fill="none"
transform="scale(1 -1)"
d="	M 0 0
	L 0 1
	L -0.3827 1.924
	L -0.3827 2.924
	L -0.7654 3.848
	L -1.472 4.555
	L -1.855 5.479
	L -2.562 6.186
	L -3.486 6.569
	L -4.193 7.276
	L -5.117 7.658
	L -6.117 7.658
	L -7.041 8.041
	L -7.748 8.748
	L -8.131 9.672
	L -8.131 10.67
	L -7.748 11.6
	L -7.748 12.6
	L -7.365 13.52
	L -6.658 14.23
	L -5.734 14.61
	L -4.734 14.61
	L -3.811 14.99
	L -3.103 15.7
	L -2.721 16.62
	L -2.721 17.62
	L -3.103 18.55
	L -3.811 19.25
	L -4.193 20.18
	L -4.193 21.18
	L -4.576 22.1
	L -5.283 22.81
	L -6.207 23.19
	M 0 0
	L 1 -1.305e-07
	L 1.924 0.3827
	L 2.631 1.09
	L 3.014 2.014
	L 3.014 3.014
	L 3.396 3.938
	L 4.103 4.645
	L 5.027 5.027
	L 6.027 5.027
	L 6.951 4.645
	L 7.658 3.938
	L 8.582 3.555
	L 9.582 3.555
	L 10.51 3.172
	L 11.21 2.465
	L 11.6 1.541
	L 11.6 0.5412
	L 11.98 -0.3827
	L 11.98 -1.383
	L 12.36 -2.307
	L 13.07 -3.014
	L 13.45 -3.938
	L 14.16 -4.645
	L 14.54 -5.569
	L 15.25 -6.276
	L 15.63 -7.2
	L 16.34 -7.907
	L 17.26 -8.289
	L 17.97 -8.996
	L 18.89 -9.379
	L 19.6 -10.09
	L 19.98 -11.01
	M 0 0
	L -1 -1.305e-07
	L -1.924 -0.3827
	L -2.631 -1.09
	L -3.555 -1.472
	L -4.555 -1.472
	L -5.479 -1.09
	L -6.479 -1.09
	L -7.403 -1.472
	L -8.403 -1.472
	L -9.327 -1.855
	L -10.03 -2.562
	L -10.42 -3.486
	L -11.12 -4.193
	L -11.51 -5.117
	L -12.21 -5.824
	L -13.14 -6.207
	L -13.84 -6.914
	L -14.77 -7.297
	L -15.77 -7.297
	L -16.69 -6.914
	L -17.69 -6.914
	L -18.62 -7.297
	L -19.62 -7.297
	L -20.54 -6.914
	L -21.25 -6.207
	L -21.63 -5.283
	L -22.34 -4.576
	L -22.72 -3.652
	L -22.72 -2.652
	L -23.1 -1.728
	L -23.1 -0.7282
	L -23.48 0.1957
	M 0 0
	L 2.609e-07 -1
	L -0.3827 -1.924
	L -1.09 -2.631
	L -1.472 -3.555
	L -1.472 -4.555
	L -1.855 -5.479
	L -1.855 -6.479
	L -1.472 -7.403
	L -0.7654 -8.11
	L 0.1585 -8.492
	L 0.8656 -9.2
	L 1.79 -9.582
	L 2.79 -9.582
	L 3.713 -9.2
	L 4.42 -8.492
	L 4.803 -7.569
	L 4.803 -6.569
	L 4.42 -5.645
	L 3.713 -4.938
	L 2.789 -4.555
	L 1.789 -4.555
	L 0.8656 -4.938
	L 0.1585 -5.645
	L -0.2242 -6.569
	L -0.9313 -7.276
	L -1.314 -8.2
	L -1.314 -9.2
	L -1.697 -10.12
	L -2.404 -10.83
	L -3.328 -11.21
	L -4.328 -11.21
	L -5.252 -10.83
"/>
</svg>
