<svg version="1.1" baseProfile="full" xmlns="http://www.w3.org/2000/svg"
width="236.4" height="1024"
viewBox="-9.47 -74.94 17.53 75.94"
>
<rect x="-9.47" y="-74.94" width="100%" height="100%" fill="white" />
<path stroke="green" stroke-width="0.04" stroke-linecap="round" fill="none"
transform="scale(1 -1)"
d="	M 0 0
	L 0 1
	L -0.2079 1.978
	M 0 1
	L 0 2
	L 0.2079 2.978
	M 0 2
	L 0 3
	L -0.2079 3.978
	L -0.6146 4.892
	M -0.2079 3.978
	L -0.4158 4.956
	L -0.4158 5.956
	M -0.4158 4.956
	L -0.6237 5.934
	M 0 3
	L 0 4
	L -0.2079 4.978
	M 0 4
	L 0 5
	L 0.2079 5.978
	L 0.6146 6.892
	M 0.2079 5.978
	L 0.4158 6.956
	M 0 5
	L 0 6
	L 0.2079 6.978
	M 0 6
	L 0 7
	L -0.2079 7.978
	L -0.6146 8.892
	M -0.2079 7.978
	L -0.4158 8.956
	L -0.8226 9.87
	L -1.41 10.68
	M -0.8226 9.87
	L -1.229 10.78
	L -1.437 11.76
	M -1.229 10.78
	L -1.636 11.7
	M -0.4158 8.956
	L -0.6237 9.934
	L -1.03 10.85
	M -0.6237 9.934
	L -0.8316 10.91
	L -0.8316 11.91
	L -1.04 12.89
	M -0.8316 11.91
	L -0.8316 12.91
	L -0.6237 13.89
	M -0.8316 12.91
	L -0.8316 13.91
	M -0.8316 10.91
	L -1.04 11.89
	L -1.04 12.89
	M -1.04 11.89
	L -1.247 12.87
	M 0 7
	L 0 8
	L -0.2079 8.978
	M 0 8
	L 0 9
	L -0.2079 9.978
	L -0.2079 10.98
	M -0.2079 9.978
	L -0.4158 10.96
	M 0 9
	L 0 10
	L -0.2079 10.98
	M 0 10
	L 0 11
	L 0.2079 11.98
	M 0 11
	L 0 12
	L 0.2079 12.98
	L 0.6146 13.89
	M 0.2079 12.98
	L 0.4158 13.96
	L 0.4158 14.96
	L 0.2079 15.93
	M 0.4158 14.96
	L 0.4158 15.96
	L 0.6237 16.93
	M 0.4158 15.96
	L 0.4158 16.96
	M 0.4158 13.96
	L 0.6237 14.93
	L 1.03 15.85
	M 0.6237 14.93
	L 0.8316 15.91
	L 1.238 16.83
	L 1.446 17.8
	M 1.238 16.83
	L 1.645 17.74
	L 2.233 18.55
	M 1.645 17.74
	L 2.052 18.65
	M 0.8316 15.91
	L 1.04 16.89
	L 1.446 17.8
	M 1.04 16.89
	L 1.247 17.87
	L 1.654 18.78
	L 1.862 19.76
	M 1.654 18.78
	L 2.061 19.7
	L 2.649 20.5
	L 3.055 21.42
	M 2.649 20.5
	L 3.237 21.31
	M 2.061 19.7
	L 2.468 20.61
	L 2.676 21.59
	M 2.468 20.61
	L 2.874 21.52
	L 3.462 22.33
	M 2.874 21.52
	L 3.281 22.44
	M 1.247 17.87
	L 1.455 18.85
	L 1.455 19.85
	M 1.455 18.85
	L 1.663 19.83
	L 2.07 20.74
	M 1.663 19.83
	L 1.871 20.8
	L 2.278 21.72
	L 2.486 22.7
	M 2.278 21.72
	L 2.685 22.63
	M 1.871 20.8
	L 2.079 21.78
	L 2.079 22.78
	M 2.079 21.78
	L 2.287 22.76
	M 0 12
	L 0 13
	L -0.2079 13.98
	M 0 13
	L 0 14
	L 0.2079 14.98
	L 0.2079 15.98
	M 0.2079 14.98
	L 0.4158 15.96
	M 0 14
	L 0 15
	L -0.2079 15.98
	M 0 15
	L 0 16
	L 0.2079 16.98
	L 0.6146 17.89
	M 0.2079 16.98
	L 0.4158 17.96
	L 0.4158 18.96
	L 0.2079 19.93
	M 0.4158 18.96
	L 0.4158 19.96
	M 0.4158 17.96
	L 0.6237 18.93
	L 0.6237 19.93
	M 0.6237 18.93
	L 0.8316 19.91
	M 0 16
	L 0 17
	L 0.2079 17.98
	M 0 17
	L 0 18
	L -0.2079 18.98
	L -0.6146 19.89
	M -0.2079 18.98
	L -0.4158 19.96
	M 0 18
	L 0 19
	L -0.2079 19.98
	M 0 19
	L 0 20
	L 0.2079 20.98
	M 0 20
	L 0 21
	L 0.2079 21.98
	L 0.2079 22.98
	M 0.2079 21.98
	L 0.4158 22.96
	L 0.8226 23.87
	M 0.4158 22.96
	L 0.6237 23.93
	M 0 21
	L 0 22
	L -0.2079 22.98
	M 0 22
	L 0 23
	L -0.2079 23.98
	L -0.6146 24.89
	M -0.2079 23.98
	L -0.4158 24.96
	L -0.4158 25.96
	M -0.4158 24.96
	L -0.6237 25.93
	L -1.03 26.85
	L -1.618 27.66
	M -1.03 26.85
	L -1.437 27.76
	L -1.645 28.74
	M -1.437 27.76
	L -1.844 28.68
	M -0.6237 25.93
	L -0.8316 26.91
	L -0.8316 27.91
	M -0.8316 26.91
	L -1.04 27.89
	L -1.04 28.89
	L -1.247 29.87
	M -1.04 28.89
	L -1.04 29.89
	M -1.04 27.89
	L -1.247 28.87
	L -1.247 29.87
	M -1.247 28.87
	L -1.455 29.85
	L -1.862 30.76
	L -2.07 31.74
	M -1.862 30.76
	L -2.269 31.67
	L -2.477 32.65
	L -2.477 33.65
	M -2.477 32.65
	L -2.685 33.63
	M -2.269 31.67
	L -2.676 32.59
	L -2.884 33.57
	M -2.676 32.59
	L -3.082 33.5
	M -1.455 29.85
	L -1.663 30.83
	L -1.663 31.83
	M -1.663 30.83
	L -1.871 31.8
	L -2.278 32.72
	L -2.486 33.7
	M -2.278 32.72
	L -2.685 33.63
	M -1.871 31.8
	L -2.079 32.78
	L -2.486 33.7
	M -2.079 32.78
	L -2.287 33.76
	L -2.287 34.76
	M -2.287 33.76
	L -2.495 34.74
	L -2.902 35.65
	L -3.489 36.46
	M -2.902 35.65
	L -3.308 36.56
	L -3.516 37.54
	L -3.923 38.46
	M -3.516 37.54
	L -3.724 38.52
	M -3.308 36.56
	L -3.715 37.48
	L -3.923 38.46
	M -3.715 37.48
	L -4.122 38.39
	L -4.71 39.2
	L -5.453 39.87
	M -4.71 39.2
	L -5.297 40.01
	L -5.704 40.92
	M -5.297 40.01
	L -5.885 40.82
	L -6.292 41.73
	L -6.88 42.54
	M -6.292 41.73
	L -6.699 42.65
	M -5.885 40.82
	L -6.473 41.63
	L -7.216 42.3
	M -6.473 41.63
	L -7.061 42.44
	L -7.468 43.35
	M -7.061 42.44
	L -7.649 43.25
	M -4.122 38.39
	L -4.529 39.31
	L -5.116 40.11
	M -4.529 39.31
	L -4.935 40.22
	L -5.143 41.2
	M -4.935 40.22
	L -5.342 41.13
	L -5.93 41.94
	L -6.673 42.61
	M -5.93 41.94
	L -6.518 42.75
	M -5.342 41.13
	L -5.749 42.05
	L -6.337 42.86
	M -5.749 42.05
	L -6.156 42.96
	M -2.495 34.74
	L -2.703 35.72
	L -3.11 36.63
	M -2.703 35.72
	L -2.911 36.69
	L -3.318 37.61
	L -3.525 38.59
	M -3.318 37.61
	L -3.724 38.52
	M -2.911 36.69
	L -3.119 37.67
	L -3.119 38.67
	M -3.119 37.67
	L -3.327 38.65
	L -3.327 39.65
	L -3.534 40.63
	M -3.327 39.65
	L -3.327 40.65
	M -3.327 38.65
	L -3.534 39.63
	L -3.534 40.63
	M -3.534 39.63
	L -3.742 40.61
	L -3.742 41.61
	L -3.534 42.58
	M -3.742 41.61
	L -3.742 42.61
	L -3.95 43.58
	L -4.357 44.5
	M -3.95 43.58
	L -4.158 44.56
	L -4.158 45.56
	M -4.158 44.56
	L -4.366 45.54
	M -3.742 42.61
	L -3.742 43.61
	L -3.95 44.58
	M -3.742 43.61
	L -3.742 44.61
	M -3.742 40.61
	L -3.95 41.58
	L -4.357 42.5
	M -3.95 41.58
	L -4.158 42.56
	L -4.565 43.48
	L -5.153 44.29
	M -4.565 43.48
	L -4.972 44.39
	M -4.158 42.56
	L -4.366 43.54
	L -4.773 44.45
	M -4.366 43.54
	L -4.574 44.52
	L -4.574 45.52
	M -4.574 44.52
	L -4.782 45.5
	L -4.782 46.5
	L -4.99 47.48
	M -4.782 46.5
	L -4.782 47.5
	L -4.574 48.48
	M -4.782 47.5
	L -4.782 48.5
	L -4.99 49.48
	L -5.397 50.39
	M -4.99 49.48
	L -5.198 50.45
	M -4.782 48.5
	L -4.782 49.5
	L -4.574 50.48
	M -4.782 49.5
	L -4.782 50.5
	L -4.574 51.48
	L -4.574 52.48
	M -4.574 51.48
	L -4.366 52.45
	L -3.959 53.37
	M -4.366 52.45
	L -4.158 53.43
	M -4.782 50.5
	L -4.782 51.5
	L -4.574 52.48
	M -4.782 51.5
	L -4.782 52.5
	L -4.99 53.48
	L -5.397 54.39
	M -4.99 53.48
	L -5.198 54.45
	L -5.605 55.37
	L -6.192 56.18
	M -5.605 55.37
	L -6.011 56.28
	M -5.198 54.45
	L -5.406 55.43
	L -5.406 56.43
	M -5.406 55.43
	L -5.614 56.41
	M -4.782 52.5
	L -4.782 53.5
	L -4.574 54.48
	M -4.782 53.5
	L -4.782 54.5
	L -4.99 55.48
	L -5.397 56.39
	M -4.99 55.48
	L -5.198 56.45
	L -5.198 57.45
	M -5.198 56.45
	L -5.406 57.43
	M -4.782 54.5
	L -4.782 55.5
	L -4.99 56.48
	M -4.782 55.5
	L -4.782 56.5
	L -4.574 57.48
	L -4.574 58.48
	M -4.574 57.48
	L -4.366 58.45
	M -4.782 56.5
	L -4.782 57.5
	L -4.574 58.48
	M -4.782 57.5
	L -4.782 58.5
	L -4.574 59.48
	L -4.167 60.39
	M -4.574 59.48
	L -4.366 60.45
	L -4.366 61.45
	L -4.574 62.43
	M -4.366 61.45
	L -4.366 62.45
	M -4.366 60.45
	L -4.158 61.43
	L -4.158 62.43
	M -4.158 61.43
	L -3.95 62.41
	L -3.544 63.32
	M -3.95 62.41
	L -3.742 63.39
	L -3.336 64.3
	L -3.128 65.28
	M -3.336 64.3
	L -2.929 65.22
	M -3.742 63.39
	L -3.534 64.37
	L -3.534 65.37
	M -3.534 64.37
	L -3.327 65.34
	M -4.782 58.5
	L -4.782 59.5
	L -4.99 60.48
	M -4.782 59.5
	L -4.782 60.5
	L -4.99 61.48
	L -4.99 62.48
	M -4.99 61.48
	L -5.198 62.45
	M -4.782 60.5
	L -4.782 61.5
	L -4.99 62.48
	M -4.782 61.5
	L -4.782 62.5
	L -4.574 63.48
	M -4.782 62.5
	L -4.782 63.5
	M -4.782 45.5
	L -4.99 46.48
	L -4.99 47.48
	M -4.99 46.48
	L -5.198 47.45
	L -5.605 48.37
	L -5.812 49.35
	M -5.605 48.37
	L -6.011 49.28
	M -5.198 47.45
	L -5.406 48.43
	L -5.812 49.35
	M -5.406 48.43
	L -5.614 49.41
	L -5.614 50.41
	L -5.822 51.39
	M -5.614 50.41
	L -5.614 51.41
	L -5.406 52.39
	M -5.614 51.41
	L -5.614 52.41
	M -5.614 49.41
	L -5.822 50.39
	L -5.822 51.39
	M -5.822 50.39
	L -6.029 51.37
	L -6.436 52.28
	L -6.644 53.26
	M -6.436 52.28
	L -6.843 53.19
	L -7.431 54
	L -8.174 54.67
	M -7.431 54
	L -8.018 54.81
	M -6.843 53.19
	L -7.25 54.11
	L -7.458 55.09
	M -7.25 54.11
	L -7.656 55.02
	L -7.864 56
	L -8.271 56.91
	M -7.864 56
	L -8.072 56.98
	L -8.072 57.98
	M -8.072 56.98
	L -8.28 57.95
	M -7.656 55.02
	L -8.063 55.93
	L -8.271 56.91
	M -8.063 55.93
	L -8.47 56.85
	M -6.029 51.37
	L -6.237 52.34
	L -6.644 53.26
	M -6.237 52.34
	L -6.445 53.32
	L -6.445 54.32
	M -6.445 53.32
	L -6.653 54.3
	L -6.653 55.3
	L -6.861 56.28
	M -6.653 55.3
	L -6.653 56.3
	L -6.445 57.28
	M -6.653 56.3
	L -6.653 57.3
	M -6.653 54.3
	L -6.861 55.28
	L -7.268 56.19
	M -6.861 55.28
	L -7.069 56.26
	L -7.069 57.26
	M -7.069 56.26
	L -7.277 57.24
	L -7.277 58.24
	L -7.485 59.21
	M -7.277 58.24
	L -7.277 59.24
	L -7.069 60.21
	M -7.277 59.24
	L -7.277 60.24
	L -7.485 61.21
	L -7.892 62.13
	M -7.485 61.21
	L -7.693 62.19
	L -7.693 63.19
	M -7.693 62.19
	L -7.901 63.17
	M -7.277 60.24
	L -7.277 61.24
	L -7.485 62.21
	M -7.277 61.24
	L -7.277 62.24
	M -7.277 57.24
	L -7.485 58.21
	L -7.892 59.13
	M -7.485 58.21
	L -7.693 59.19
	L -7.693 60.19
	L -7.901 61.17
	M -7.693 60.19
	L -7.693 61.19
	M -7.693 59.19
	L -7.901 60.17
	L -8.307 61.08
	M -7.901 60.17
	L -8.109 61.15
	L -8.109 62.15
	M -8.109 61.15
	L -8.316 62.13
	M 0 23
	L 0 24
	L 0.2079 24.98
	M 0 24
	L 0 25
	L 0.2079 25.98
	L 0.2079 26.98
	M 0.2079 25.98
	L 0.4158 26.96
	M 0 25
	L 0 26
	L -0.2079 26.98
	M 0 26
	L 0 27
	L 0.2079 27.98
	M 0 27
	L 0 28
	L -0.2079 28.98
	L -0.6146 29.89
	M -0.2079 28.98
	L -0.4158 29.96
	L -0.4158 30.96
	M -0.4158 29.96
	L -0.6237 30.93
	L -1.03 31.85
	L -1.238 32.83
	M -1.03 31.85
	L -1.437 32.76
	M -0.6237 30.93
	L -0.8316 31.91
	L -1.238 32.83
	M -0.8316 31.91
	L -1.04 32.89
	M 0 28
	L 0 29
	L -0.2079 29.98
	M 0 29
	L 0 30
	L 0.2079 30.98
	M 0 30
	L 0 31
	L -0.2079 31.98
	L -0.2079 32.98
	M -0.2079 31.98
	L -0.4158 32.96
	M 0 31
	L 0 32
	L -0.2079 32.98
	M 0 32
	L 0 33
	L 0.2079 33.98
	L 0.2079 34.98
	M 0.2079 33.98
	L 0.4158 34.96
	L 0.4158 35.96
	L 0.2079 36.93
	M 0.4158 35.96
	L 0.4158 36.96
	L 0.6237 37.93
	M 0.4158 36.96
	L 0.4158 37.96
	M 0.4158 34.96
	L 0.6237 35.93
	L 0.6237 36.93
	M 0.6237 35.93
	L 0.8316 36.91
	M 0 33
	L 0 34
	L 0.2079 34.98
	M 0 34
	L 0 35
	L 0.2079 35.98
	L 0.6146 36.89
	M 0.2079 35.98
	L 0.4158 36.96
	M 0 35
	L 0 36
	L -0.2079 36.98
	M 0 36
	L 0 37
	L -0.2079 37.98
	L -0.6146 38.89
	M -0.2079 37.98
	L -0.4158 38.96
	L -0.4158 39.96
	L -0.6237 40.93
	M -0.4158 39.96
	L -0.4158 40.96
	M -0.4158 38.96
	L -0.6237 39.93
	L -1.03 40.85
	M -0.6237 39.93
	L -0.8316 40.91
	L -1.238 41.83
	L -1.826 42.64
	M -1.238 41.83
	L -1.645 42.74
	L -1.853 43.72
	M -1.645 42.74
	L -2.052 43.65
	L -2.26 44.63
	L -2.667 45.54
	M -2.26 44.63
	L -2.468 45.61
	L -2.468 46.61
	M -2.468 45.61
	L -2.676 46.59
	M -2.052 43.65
	L -2.459 44.57
	L -3.046 45.38
	M -2.459 44.57
	L -2.865 45.48
	L -3.073 46.46
	M -2.865 45.48
	L -3.272 46.39
	M -0.8316 40.91
	L -1.04 41.89
	L -1.04 42.89
	M -1.04 41.89
	L -1.247 42.87
	L -1.654 43.78
	L -2.242 44.59
	M -1.654 43.78
	L -2.061 44.7
	L -2.269 45.67
	M -2.061 44.7
	L -2.468 45.61
	M -1.247 42.87
	L -1.455 43.85
	L -1.862 44.76
	M -1.455 43.85
	L -1.663 44.83
	L -1.663 45.83
	L -1.871 46.8
	M -1.663 45.83
	L -1.663 46.83
	L -1.871 47.8
	L -2.278 48.72
	M -1.871 47.8
	L -2.079 48.78
	L -2.079 49.78
	M -2.079 48.78
	L -2.287 49.76
	M -1.663 46.83
	L -1.663 47.83
	L -1.871 48.8
	M -1.663 47.83
	L -1.663 48.83
	M -1.663 44.83
	L -1.871 45.8
	L -1.871 46.8
	M -1.871 45.8
	L -2.079 46.78
	L -2.486 47.7
	L -2.694 48.67
	M -2.486 47.7
	L -2.893 48.61
	M -2.079 46.78
	L -2.287 47.76
	L -2.694 48.67
	M -2.287 47.76
	L -2.495 48.74
	M 0 37
	L 0 38
	L -0.2079 38.98
	M 0 38
	L 0 39
	L 0.2079 39.98
	L 0.6146 40.89
	M 0.2079 39.98
	L 0.4158 40.96
	M 0 39
	L 0 40
	L -0.2079 40.98
	M 0 40
	L 0 41
	L -0.2079 41.98
	L -0.6146 42.89
	M -0.2079 41.98
	L -0.4158 42.96
	L -0.4158 43.96
	M -0.4158 42.96
	L -0.6237 43.93
	L -1.03 44.85
	L -1.618 45.66
	M -1.03 44.85
	L -1.437 45.76
	M -0.6237 43.93
	L -0.8316 44.91
	L -1.238 45.83
	M -0.8316 44.91
	L -1.04 45.89
	L -1.04 46.89
	M -1.04 45.89
	L -1.247 46.87
	M 0 41
	L 0 42
	L -0.2079 42.98
	M 0 42
	L 0 43
	L -0.2079 43.98
	L -0.6146 44.89
	M -0.2079 43.98
	L -0.4158 44.96
	M 0 43
	L 0 44
	L -0.2079 44.98
	M 0 44
	L 0 45
	L 0.2079 45.98
	M 0 45
	L 0 46
	L 0.2079 46.98
	L 0.2079 47.98
	M 0.2079 46.98
	L 0.4158 47.96
	L 0.8226 48.87
	M 0.4158 47.96
	L 0.6237 48.93
	L 1.03 49.85
	L 1.618 50.66
	M 1.03 49.85
	L 1.437 50.76
	M 0.6237 48.93
	L 0.8316 49.91
	L 0.8316 50.91
	M 0.8316 49.91
	L 1.04 50.89
	M 0 46
	L 0 47
	L 0.2079 47.98
	M 0 47
	L 0 48
	L -0.2079 48.98
	L -0.6146 49.89
	M -0.2079 48.98
	L -0.4158 49.96
	M 0 48
	L 0 49
	L -0.2079 49.98
	M 0 49
	L 0 50
	L 0.2079 50.98
	L 0.6146 51.89
	M 0.2079 50.98
	L 0.4158 51.96
	M 0 50
	L 0 51
	L -0.2079 51.98
	M 0 51
	L 0 52
	L 0.2079 52.98
	M 0 52
	L 0 53
	L 0.2079 53.98
	L 0.2079 54.98
	M 0.2079 53.98
	L 0.4158 54.96
	L 0.8226 55.87
	M 0.4158 54.96
	L 0.6237 55.93
	L 1.03 56.85
	L 1.238 57.83
	M 1.03 56.85
	L 1.437 57.76
	M 0.6237 55.93
	L 0.8316 56.91
	L 1.238 57.83
	M 0.8316 56.91
	L 1.04 57.89
	L 1.04 58.89
	L 1.247 59.87
	M 1.04 58.89
	L 1.04 59.89
	L 0.8316 60.87
	L 0.4249 61.78
	M 0.8316 60.87
	L 0.6237 61.85
	M 1.04 59.89
	L 1.04 60.89
	L 1.247 61.87
	M 1.04 60.89
	L 1.04 61.89
	L 1.247 62.87
	L 1.654 63.78
	M 1.247 62.87
	L 1.455 63.85
	M 1.04 61.89
	L 1.04 62.89
	L 1.247 63.87
	M 1.04 62.89
	L 1.04 63.89
	M 1.04 57.89
	L 1.247 58.87
	L 1.247 59.87
	M 1.247 58.87
	L 1.455 59.85
	L 1.455 60.85
	L 1.247 61.83
	M 1.455 60.85
	L 1.455 61.85
	L 1.663 62.83
	M 1.455 61.85
	L 1.455 62.85
	M 1.455 59.85
	L 1.663 60.83
	L 1.663 61.83
	M 1.663 60.83
	L 1.871 61.8
	L 2.278 62.72
	M 1.871 61.8
	L 2.079 62.78
	L 2.486 63.7
	L 2.694 64.67
	M 2.486 63.7
	L 2.893 64.61
	M 2.079 62.78
	L 2.287 63.76
	L 2.287 64.76
	M 2.287 63.76
	L 2.495 64.74
	L 2.902 65.65
	M 2.495 64.74
	L 2.703 65.72
	L 3.11 66.63
	L 3.318 67.61
	M 3.11 66.63
	L 3.516 67.54
	L 4.104 68.35
	M 3.516 67.54
	L 3.923 68.46
	L 4.131 69.43
	L 4.538 70.35
	M 4.131 69.43
	L 4.339 70.41
	M 3.923 68.46
	L 4.33 69.37
	L 4.538 70.35
	M 4.33 69.37
	L 4.737 70.28
	L 5.324 71.09
	M 4.737 70.28
	L 5.143 71.2
	L 5.731 72.01
	L 6.138 72.92
	M 5.731 72.01
	L 6.319 72.82
	L 7.062 73.48
	M 6.319 72.82
	L 6.907 73.62
	M 5.143 71.2
	L 5.55 72.11
	L 5.758 73.09
	M 5.55 72.11
	L 5.957 73.02
	L 6.545 73.83
	M 5.957 73.02
	L 6.363 73.94
	M 2.703 65.72
	L 2.911 66.69
	L 3.318 67.61
	M 2.911 66.69
	L 3.119 67.67
	L 3.119 68.67
	L 2.911 69.65
	M 3.119 68.67
	L 3.119 69.67
	L 3.327 70.65
	M 3.119 69.67
	L 3.119 70.67
	M 3.119 67.67
	L 3.327 68.65
	L 3.327 69.65
	M 3.327 68.65
	L 3.534 69.63
	L 3.941 70.54
	M 3.534 69.63
	L 3.742 70.61
	L 4.149 71.52
	L 4.357 72.5
	M 4.149 71.52
	L 4.556 72.43
	M 3.742 70.61
	L 3.95 71.58
	L 3.95 72.58
	M 3.95 71.58
	L 4.158 72.56
	M 0 53
	L 0 54
	L -0.2079 54.98
	M 0 54
	L 0 55
	L 0.2079 55.98
	M 0 55
	L 0 56
	L -0.2079 56.98
	L -0.6146 57.89
	M -0.2079 56.98
	L -0.4158 57.96
	M 0 56
	L 0 57
	L -0.2079 57.98
	M 0 57
	L 0 58
	L -0.2079 58.98
	L -0.2079 59.98
	M -0.2079 58.98
	L -0.4158 59.96
	L -0.8226 60.87
	L -1.41 61.68
	M -0.8226 60.87
	L -1.229 61.78
	L -1.437 62.76
	M -1.229 61.78
	L -1.636 62.7
	M -0.4158 59.96
	L -0.6237 60.93
	L -1.03 61.85
	M -0.6237 60.93
	L -0.8316 61.91
	L -0.8316 62.91
	L -1.04 63.89
	M -0.8316 62.91
	L -0.8316 63.91
	M -0.8316 61.91
	L -1.04 62.89
	L -1.04 63.89
	M -1.04 62.89
	L -1.247 63.87
	M 0 58
	L 0 59
	L -0.2079 59.98
	M 0 59
	L 0 60
	L -0.2079 60.98
	L -0.6146 61.89
	M -0.2079 60.98
	L -0.4158 61.96
	M 0 60
	L 0 61
	L -0.2079 61.98
	M 0 61
	L 0 62
	L 0.2079 62.98
	M 0 62
	L 0 63
	L 0.2079 63.98
	L 0.2079 64.98
	M 0.2079 63.98
	L 0.4158 64.96
	L 0.4158 65.96
	L 0.2079 66.93
	M 0.4158 65.96
	L 0.4158 66.96
	M 0.4158 64.96
	L 0.6237 65.93
	L 1.03 66.85
	M 0.6237 65.93
	L 0.8316 66.91
	M 0 63
	L 0 64
	L -0.2079 64.98
	M 0 64
	L 0 65
	L -0.2079 65.98
	L -0.2079 66.98
	M -0.2079 65.98
	L -0.4158 66.96
	M 0 65
	L 0 66
	L -0.2079 66.98
	M 0 66
	L 0 67
	L 0.2079 67.98
	L 0.2079 68.98
	M 0.2079 67.98
	L 0.4158 68.96
	M 0 67
	L 0 68
	L 0.2079 68.98
	M 0 68
	L 0 69
"/>
</svg>
