<svg version="1.1" baseProfile="full" xmlns="http://www.w3.org/2000/svg"
width="1024" height="1024"
viewBox="-162 -162 243 243"
>
<rect x="-162" y="-162" width="100%" height="100%" fill="white" />
<path stroke="green" stroke-width="0.04" stroke-linecap="round" fill="none"
transform="scale(1 -1)"
d="	M 0 0
	L 0 1
	L 1 1
	L 2 1
	L 2 2
	L 1 2
	L 0 2
	L 0 3
	L 1 3
	L 1 2
	L 1 1
	L 2 1
	L 2 2
	L 2 3
	L 3 3
	L 4 3
	L 4 2
	L 4 1
	L 5 1
	L 5 2
	L 5 3
	L 6 3
	L 6 4
	L 7 4
	L 8 4
	L 8 5
	L 7 5
	L 6 5
	L 6 6
	L 5 6
	L 5 7
	L 5 8
	L 4 8
	L 4 7
	L 4 6
	L 3 6
	L 2 6
	L 2 7
	L 2 8
	L 1 8
	L 1 7
	L 1 6
	L 0 6
	L 6.617e-24 7
	L 1 7
	L 2 7
	L 2 8
	L 1 8
	L 0 8
	L 6.617e-24 9
	L 1 9
	L 1 8
	L 1 7
	L 2 7
	L 2 8
	L 2 9
	L 3 9
	L 3 8
	L 2 8
	L 1 8
	L 1 7
	L 2 7
	L 3 7
	L 3 6
	L 3 5
	L 2 5
	L 1 5
	L 1 4
	L 2 4
	L 3 4
	L 3 3
	L 4 3
	L 4 2
	L 4 1
	L 5 1
	L 5 2
	L 5 3
	L 6 3
	L 6 4
	L 7 4
	L 8 4
	L 8 5
	L 7 5
	L 6 5
	L 6 6
	L 6 7
	L 7 7
	L 8 7
	L 8 8
	L 7 8
	L 6 8
	L 6 9
	L 7 9
	L 7 8
	L 7 7
	L 8 7
	L 8 8
	L 8 9
	L 9 9
	L 10 9
	L 10 8
	L 10 7
	L 11 7
	L 11 8
	L 11 9
	L 12 9
	L 12 8
	L 11 8
	L 10 8
	L 10 7
	L 11 7
	L 12 7
	L 12 6
	L 12 5
	L 11 5
	L 10 5
	L 10 4
	L 11 4
	L 12 4
	L 12 3
	L 13 3
	L 13 2
	L 13 1
	L 14 1
	L 14 2
	L 14 3
	L 15 3
	L 15 4
	L 16 4
	L 17 4
	L 17 5
	L 16 5
	L 15 5
	L 15 6
	L 15 7
	L 16 7
	L 17 7
	L 17 8
	L 16 8
	L 15 8
	L 15 9
	L 16 9
	L 16 8
	L 16 7
	L 17 7
	L 17 8
	L 17 9
	L 18 9
	L 18 10
	L 19 10
	L 20 10
	L 20 11
	L 19 11
	L 18 11
	L 18 12
	L 19 12
	L 19 11
	L 19 10
	L 20 10
	L 20 11
	L 20 12
	L 21 12
	L 22 12
	L 22 11
	L 22 10
	L 23 10
	L 23 11
	L 23 12
	L 24 12
	L 24 13
	L 25 13
	L 26 13
	L 26 14
	L 25 14
	L 24 14
	L 24 15
	L 23 15
	L 23 16
	L 23 17
	L 22 17
	L 22 16
	L 22 15
	L 21 15
	L 20 15
	L 20 16
	L 20 17
	L 19 17
	L 19 16
	L 19 15
	L 18 15
	L 18 16
	L 19 16
	L 20 16
	L 20 17
	L 19 17
	L 18 17
	L 18 18
	L 17 18
	L 17 19
	L 17 20
	L 16 20
	L 16 19
	L 16 18
	L 15 18
	L 15 19
	L 16 19
	L 17 19
	L 17 20
	L 16 20
	L 15 20
	L 15 21
	L 15 22
	L 16 22
	L 17 22
	L 17 23
	L 16 23
	L 15 23
	L 15 24
	L 14 24
	L 14 25
	L 14 26
	L 13 26
	L 13 25
	L 13 24
	L 12 24
	L 12 23
	L 11 23
	L 10 23
	L 10 22
	L 11 22
	L 12 22
	L 12 21
	L 12 20
	L 11 20
	L 10 20
	L 10 19
	L 11 19
	L 12 19
	L 12 18
	L 11 18
	L 11 19
	L 11 20
	L 10 20
	L 10 19
	L 10 18
	L 9 18
	L 8 18
	L 8 19
	L 8 20
	L 7 20
	L 7 19
	L 7 18
	L 6 18
	L 6 19
	L 7 19
	L 8 19
	L 8 20
	L 7 20
	L 6 20
	L 6 21
	L 6 22
	L 7 22
	L 8 22
	L 8 23
	L 7 23
	L 6 23
	L 6 24
	L 5 24
	L 5 25
	L 5 26
	L 4 26
	L 4 25
	L 4 24
	L 3 24
	L 3 23
	L 2 23
	L 1 23
	L 1 22
	L 2 22
	L 3 22
	L 3 21
	L 3 20
	L 2 20
	L 1 20
	L 1 19
	L 2 19
	L 3 19
	L 3 18
	L 2 18
	L 2 19
	L 2 20
	L 1 20
	L 1 19
	L 1 18
	L -8.882e-16 18
	L -8.882e-16 19
	L 1 19
	L 2 19
	L 2 20
	L 1 20
	L -8.882e-16 20
	L -8.882e-16 21
	L 1 21
	L 1 20
	L 1 19
	L 2 19
	L 2 20
	L 2 21
	L 3 21
	L 4 21
	L 4 20
	L 4 19
	L 5 19
	L 5 20
	L 5 21
	L 6 21
	L 6 22
	L 7 22
	L 8 22
	L 8 23
	L 7 23
	L 6 23
	L 6 24
	L 5 24
	L 5 25
	L 5 26
	L 4 26
	L 4 25
	L 4 24
	L 3 24
	L 2 24
	L 2 25
	L 2 26
	L 1 26
	L 1 25
	L 1 24
	L -8.882e-16 24
	L -8.882e-16 25
	L 1 25
	L 2 25
	L 2 26
	L 1 26
	L -8.882e-16 26
	L -8.882e-16 27
	L 1 27
	L 1 26
	L 1 25
	L 2 25
	L 2 26
	L 2 27
	L 3 27
	L 3 26
	L 2 26
	L 1 26
	L 1 25
	L 2 25
	L 3 25
	L 3 24
	L 3 23
	L 2 23
	L 1 23
	L 1 22
	L 2 22
	L 3 22
	L 3 21
	L 4 21
	L 4 20
	L 4 19
	L 5 19
	L 5 20
	L 5 21
	L 6 21
	L 6 22
	L 7 22
	L 8 22
	L 8 23
	L 7 23
	L 6 23
	L 6 24
	L 6 25
	L 7 25
	L 8 25
	L 8 26
	L 7 26
	L 6 26
	L 6 27
	L 7 27
	L 7 26
	L 7 25
	L 8 25
	L 8 26
	L 8 27
	L 9 27
	L 9 26
	L 8 26
	L 7 26
	L 7 25
	L 8 25
	L 9 25
	L 9 24
	L 8 24
	L 8 25
	L 8 26
	L 7 26
	L 7 25
	L 7 24
	L 6 24
	L 5 24
	L 5 25
	L 5 26
	L 4 26
	L 4 25
	L 4 24
	L 3 24
	L 3 23
	L 2 23
	L 1 23
	L 1 22
	L 2 22
	L 3 22
	L 3 21
	L 4 21
	L 4 20
	L 4 19
	L 5 19
	L 5 20
	L 5 21
	L 6 21
	L 7 21
	L 7 20
	L 7 19
	L 8 19
	L 8 20
	L 8 21
	L 9 21
	L 9 20
	L 8 20
	L 7 20
	L 7 19
	L 8 19
	L 9 19
	L 9 18
	L 9 17
	L 8 17
	L 7 17
	L 7 16
	L 8 16
	L 9 16
	L 9 15
	L 8 15
	L 8 16
	L 8 17
	L 7 17
	L 7 16
	L 7 15
	L 6 15
	L 5 15
	L 5 16
	L 5 17
	L 4 17
	L 4 16
	L 4 15
	L 3 15
	L 3 14
	L 2 14
	L 1 14
	L 1 13
	L 2 13
	L 3 13
	L 3 12
	L 4 12
	L 4 11
	L 4 10
	L 5 10
	L 5 11
	L 5 12
	L 6 12
	L 7 12
	L 7 11
	L 7 10
	L 8 10
	L 8 11
	L 8 12
	L 9 12
	L 9 11
	L 8 11
	L 7 11
	L 7 10
	L 8 10
	L 9 10
	L 9 9
	L 10 9
	L 10 8
	L 10 7
	L 11 7
	L 11 8
	L 11 9
	L 12 9
	L 12 8
	L 11 8
	L 10 8
	L 10 7
	L 11 7
	L 12 7
	L 12 6
	L 12 5
	L 11 5
	L 10 5
	L 10 4
	L 11 4
	L 12 4
	L 12 3
	L 13 3
	L 13 2
	L 13 1
	L 14 1
	L 14 2
	L 14 3
	L 15 3
	L 15 4
	L 16 4
	L 17 4
	L 17 5
	L 16 5
	L 15 5
	L 15 6
	L 15 7
	L 16 7
	L 17 7
	L 17 8
	L 16 8
	L 15 8
	L 15 9
	L 16 9
	L 16 8
	L 16 7
	L 17 7
	L 17 8
	L 17 9
	L 18 9
	L 18 10
	L 19 10
	L 20 10
	L 20 11
	L 19 11
	L 18 11
	L 18 12
	L 19 12
	L 19 11
	L 19 10
	L 20 10
	L 20 11
	L 20 12
	L 21 12
	L 22 12
	L 22 11
	L 22 10
	L 23 10
	L 23 11
	L 23 12
	L 24 12
	L 24 13
	L 25 13
	L 26 13
	L 26 14
	L 25 14
	L 24 14
	L 24 15
	L 23 15
	L 23 16
	L 23 17
	L 22 17
	L 22 16
	L 22 15
	L 21 15
	L 20 15
	L 20 16
	L 20 17
	L 19 17
	L 19 16
	L 19 15
	L 18 15
	L 18 16
	L 19 16
	L 20 16
	L 20 17
	L 19 17
	L 18 17
	L 18 18
	L 18 19
	L 19 19
	L 20 19
	L 20 20
	L 19 20
	L 18 20
	L 18 21
	L 19 21
	L 19 20
	L 19 19
	L 20 19
	L 20 20
	L 20 21
	L 21 21
	L 22 21
	L 22 20
	L 22 19
	L 23 19
	L 23 20
	L 23 21
	L 24 21
	L 24 22
	L 25 22
	L 26 22
	L 26 23
	L 25 23
	L 24 23
	L 24 24
	L 23 24
	L 23 25
	L 23 26
	L 22 26
	L 22 25
	L 22 24
	L 21 24
	L 20 24
	L 20 25
	L 20 26
	L 19 26
	L 19 25
	L 19 24
	L 18 24
	L 18 25
	L 19 25
	L 20 25
	L 20 26
	L 19 26
	L 18 26
	L 18 27
	L 19 27
	L 19 26
	L 19 25
	L 20 25
	L 20 26
	L 20 27
	L 21 27
	L 21 26
	L 20 26
	L 19 26
	L 19 25
	L 20 25
	L 21 25
	L 21 24
	L 21 23
	L 20 23
	L 19 23
	L 19 22
	L 20 22
	L 21 22
	L 21 21
	L 22 21
	L 22 20
	L 22 19
	L 23 19
	L 23 20
	L 23 21
	L 24 21
	L 24 22
	L 25 22
	L 26 22
	L 26 23
	L 25 23
	L 24 23
	L 24 24
	L 24 25
	L 25 25
	L 26 25
	L 26 26
	L 25 26
	L 24 26
	L 24 27
	L 25 27
	L 25 26
	L 25 25
	L 26 25
	L 26 26
	L 26 27
	L 27 27
	L 28 27
	L 28 26
	L 28 25
	L 29 25
	L 29 26
	L 29 27
	L 30 27
	L 30 26
	L 29 26
	L 28 26
	L 28 25
	L 29 25
	L 30 25
	L 30 24
	L 30 23
	L 29 23
	L 28 23
	L 28 22
	L 29 22
	L 30 22
	L 30 21
	L 31 21
	L 31 20
	L 31 19
	L 32 19
	L 32 20
	L 32 21
	L 33 21
	L 33 22
	L 34 22
	L 35 22
	L 35 23
	L 34 23
	L 33 23
	L 33 24
	L 33 25
	L 34 25
	L 35 25
	L 35 26
	L 34 26
	L 33 26
	L 33 27
	L 34 27
	L 34 26
	L 34 25
	L 35 25
	L 35 26
	L 35 27
	L 36 27
	L 36 26
	L 35 26
	L 34 26
	L 34 25
	L 35 25
	L 36 25
	L 36 24
	L 35 24
	L 35 25
	L 35 26
	L 34 26
	L 34 25
	L 34 24
	L 33 24
	L 32 24
	L 32 25
	L 32 26
	L 31 26
	L 31 25
	L 31 24
	L 30 24
	L 30 23
	L 29 23
	L 28 23
	L 28 22
	L 29 22
	L 30 22
	L 30 21
	L 31 21
	L 31 20
	L 31 19
	L 32 19
	L 32 20
	L 32 21
	L 33 21
	L 34 21
	L 34 20
	L 34 19
	L 35 19
	L 35 20
	L 35 21
	L 36 21
	L 36 20
	L 35 20
	L 34 20
	L 34 19
	L 35 19
	L 36 19
	L 36 18
	L 36 17
	L 35 17
	L 34 17
	L 34 16
	L 35 16
	L 36 16
	L 36 15
	L 35 15
	L 35 16
	L 35 17
	L 34 17
	L 34 16
	L 34 15
	L 33 15
	L 32 15
	L 32 16
	L 32 17
	L 31 17
	L 31 16
	L 31 15
	L 30 15
	L 30 14
	L 29 14
	L 28 14
	L 28 13
	L 29 13
	L 30 13
	L 30 12
	L 31 12
	L 31 11
	L 31 10
	L 32 10
	L 32 11
	L 32 12
	L 33 12
	L 34 12
	L 34 11
	L 34 10
	L 35 10
	L 35 11
	L 35 12
	L 36 12
	L 36 11
	L 35 11
	L 34 11
	L 34 10
	L 35 10
	L 36 10
	L 36 9
	L 37 9
	L 37 8
	L 37 7
	L 38 7
	L 38 8
	L 38 9
	L 39 9
	L 39 8
	L 38 8
	L 37 8
	L 37 7
	L 38 7
	L 39 7
	L 39 6
	L 39 5
	L 38 5
	L 37 5
	L 37 4
	L 38 4
	L 39 4
	L 39 3
	L 40 3
	L 40 2
	L 40 1
	L 41 1
	L 41 2
	L 41 3
	L 42 3
	L 42 4
	L 43 4
	L 44 4
	L 44 5
	L 43 5
	L 42 5
	L 42 6
	L 42 7
	L 43 7
	L 44 7
	L 44 8
	L 43 8
	L 42 8
	L 42 9
	L 43 9
	L 43 8
	L 43 7
	L 44 7
	L 44 8
	L 44 9
	L 45 9
	L 45 10
	L 46 10
	L 47 10
	L 47 11
	L 46 11
	L 45 11
	L 45 12
	L 46 12
	L 46 11
	L 46 10
	L 47 10
	L 47 11
	L 47 12
	L 48 12
	L 49 12
	L 49 11
	L 49 10
	L 50 10
	L 50 11
	L 50 12
	L 51 12
	L 51 13
	L 52 13
	L 53 13
	L 53 14
	L 52 14
	L 51 14
	L 51 15
	L 50 15
	L 50 16
	L 50 17
	L 49 17
	L 49 16
	L 49 15
	L 48 15
	L 47 15
	L 47 16
	L 47 17
	L 46 17
	L 46 16
	L 46 15
	L 45 15
	L 45 16
	L 46 16
	L 47 16
	L 47 17
	L 46 17
	L 45 17
	L 45 18
	L 45 19
	L 46 19
	L 47 19
	L 47 20
	L 46 20
	L 45 20
	L 45 21
	L 46 21
	L 46 20
	L 46 19
	L 47 19
	L 47 20
	L 47 21
	L 48 21
	L 49 21
	L 49 20
	L 49 19
	L 50 19
	L 50 20
	L 50 21
	L 51 21
	L 51 22
	L 52 22
	L 53 22
	L 53 23
	L 52 23
	L 51 23
	L 51 24
	L 50 24
	L 50 25
	L 50 26
	L 49 26
	L 49 25
	L 49 24
	L 48 24
	L 47 24
	L 47 25
	L 47 26
	L 46 26
	L 46 25
	L 46 24
	L 45 24
	L 45 25
	L 46 25
	L 47 25
	L 47 26
	L 46 26
	L 45 26
	L 45 27
	L 46 27
	L 46 26
	L 46 25
	L 47 25
	L 47 26
	L 47 27
	L 48 27
	L 48 26
	L 47 26
	L 46 26
	L 46 25
	L 47 25
	L 48 25
	L 48 24
	L 48 23
	L 47 23
	L 46 23
	L 46 22
	L 47 22
	L 48 22
	L 48 21
	L 49 21
	L 49 20
	L 49 19
	L 50 19
	L 50 20
	L 50 21
	L 51 21
	L 51 22
	L 52 22
	L 53 22
	L 53 23
	L 52 23
	L 51 23
	L 51 24
	L 51 25
	L 52 25
	L 53 25
	L 53 26
	L 52 26
	L 51 26
	L 51 27
	L 52 27
	L 52 26
	L 52 25
	L 53 25
	L 53 26
	L 53 27
	L 54 27
	L 54 28
	L 55 28
	L 56 28
	L 56 29
	L 55 29
	L 54 29
	L 54 30
	L 55 30
	L 55 29
	L 55 28
	L 56 28
	L 56 29
	L 56 30
	L 57 30
	L 58 30
	L 58 29
	L 58 28
	L 59 28
	L 59 29
	L 59 30
	L 60 30
	L 60 31
	L 61 31
	L 62 31
	L 62 32
	L 61 32
	L 60 32
	L 60 33
	L 59 33
	L 59 34
	L 59 35
	L 58 35
	L 58 34
	L 58 33
	L 57 33
	L 56 33
	L 56 34
	L 56 35
	L 55 35
	L 55 34
	L 55 33
	L 54 33
	L 54 34
	L 55 34
	L 56 34
	L 56 35
	L 55 35
	L 54 35
	L 54 36
	L 55 36
	L 55 35
	L 55 34
	L 56 34
	L 56 35
	L 56 36
	L 57 36
	L 57 35
	L 56 35
	L 55 35
	L 55 34
	L 56 34
	L 57 34
	L 57 33
	L 57 32
	L 56 32
	L 55 32
	L 55 31
	L 56 31
	L 57 31
	L 57 30
	L 58 30
	L 58 29
	L 58 28
	L 59 28
	L 59 29
	L 59 30
	L 60 30
	L 60 31
	L 61 31
	L 62 31
	L 62 32
	L 61 32
	L 60 32
	L 60 33
	L 60 34
	L 61 34
	L 62 34
	L 62 35
	L 61 35
	L 60 35
	L 60 36
	L 61 36
	L 61 35
	L 61 34
	L 62 34
	L 62 35
	L 62 36
	L 63 36
	L 64 36
	L 64 35
	L 64 34
	L 65 34
	L 65 35
	L 65 36
	L 66 36
	L 66 35
	L 65 35
	L 64 35
	L 64 34
	L 65 34
	L 66 34
	L 66 33
	L 66 32
	L 65 32
	L 64 32
	L 64 31
	L 65 31
	L 66 31
	L 66 30
	L 67 30
	L 67 29
	L 67 28
	L 68 28
	L 68 29
	L 68 30
	L 69 30
	L 69 31
	L 70 31
	L 71 31
	L 71 32
	L 70 32
	L 69 32
	L 69 33
	L 69 34
	L 70 34
	L 71 34
	L 71 35
	L 70 35
	L 69 35
	L 69 36
	L 70 36
	L 70 35
	L 70 34
	L 71 34
	L 71 35
	L 71 36
	L 72 36
	L 72 37
	L 73 37
	L 74 37
	L 74 38
	L 73 38
	L 72 38
	L 72 39
	L 73 39
	L 73 38
	L 73 37
	L 74 37
	L 74 38
	L 74 39
	L 75 39
	L 76 39
	L 76 38
	L 76 37
	L 77 37
	L 77 38
	L 77 39
	L 78 39
	L 78 40
	L 79 40
	L 80 40
	L 80 41
	L 79 41
	L 78 41
	L 78 42
	L 77 42
	L 77 43
	L 77 44
	L 76 44
	L 76 43
	L 76 42
	L 75 42
	L 74 42
	L 74 43
	L 74 44
	L 73 44
	L 73 43
	L 73 42
	L 72 42
	L 72 43
	L 73 43
	L 74 43
	L 74 44
	L 73 44
	L 72 44
	L 72 45
	L 71 45
	L 71 46
	L 71 47
	L 70 47
	L 70 46
	L 70 45
	L 69 45
	L 69 46
	L 70 46
	L 71 46
	L 71 47
	L 70 47
	L 69 47
	L 69 48
	L 69 49
	L 70 49
	L 71 49
	L 71 50
	L 70 50
	L 69 50
	L 69 51
	L 68 51
	L 68 52
	L 68 53
	L 67 53
	L 67 52
	L 67 51
	L 66 51
	L 66 50
	L 65 50
	L 64 50
	L 64 49
	L 65 49
	L 66 49
	L 66 48
	L 66 47
	L 65 47
	L 64 47
	L 64 46
	L 65 46
	L 66 46
	L 66 45
	L 65 45
	L 65 46
	L 65 47
	L 64 47
	L 64 46
	L 64 45
	L 63 45
	L 62 45
	L 62 46
	L 62 47
	L 61 47
	L 61 46
	L 61 45
	L 60 45
	L 60 46
	L 61 46
	L 62 46
	L 62 47
	L 61 47
	L 60 47
	L 60 48
	L 60 49
	L 61 49
	L 62 49
	L 62 50
	L 61 50
	L 60 50
	L 60 51
	L 59 51
	L 59 52
	L 59 53
	L 58 53
	L 58 52
	L 58 51
	L 57 51
	L 57 50
	L 56 50
	L 55 50
	L 55 49
	L 56 49
	L 57 49
	L 57 48
	L 57 47
	L 56 47
	L 55 47
	L 55 46
	L 56 46
	L 57 46
	L 57 45
	L 56 45
	L 56 46
	L 56 47
	L 55 47
	L 55 46
	L 55 45
	L 54 45
	L 54 46
	L 55 46
	L 56 46
	L 56 47
	L 55 47
	L 54 47
	L 54 48
	L 55 48
	L 55 47
	L 55 46
	L 56 46
	L 56 47
	L 56 48
	L 57 48
	L 58 48
	L 58 47
	L 58 46
	L 59 46
	L 59 47
	L 59 48
	L 60 48
	L 60 49
	L 61 49
	L 62 49
	L 62 50
	L 61 50
	L 60 50
	L 60 51
	L 59 51
	L 59 52
	L 59 53
	L 58 53
	L 58 52
	L 58 51
	L 57 51
	L 56 51
	L 56 52
	L 56 53
	L 55 53
	L 55 52
	L 55 51
	L 54 51
	L 54 52
	L 55 52
	L 56 52
	L 56 53
	L 55 53
	L 54 53
	L 54 54
	L 53 54
	L 53 55
	L 53 56
	L 52 56
	L 52 55
	L 52 54
	L 51 54
	L 51 55
	L 52 55
	L 53 55
	L 53 56
	L 52 56
	L 51 56
	L 51 57
	L 51 58
	L 52 58
	L 53 58
	L 53 59
	L 52 59
	L 51 59
	L 51 60
	L 50 60
	L 50 61
	L 50 62
	L 49 62
	L 49 61
	L 49 60
	L 48 60
	L 48 59
	L 47 59
	L 46 59
	L 46 58
	L 47 58
	L 48 58
	L 48 57
	L 48 56
	L 47 56
	L 46 56
	L 46 55
	L 47 55
	L 48 55
	L 48 54
	L 47 54
	L 47 55
	L 47 56
	L 46 56
	L 46 55
	L 46 54
	L 45 54
	L 45 55
	L 46 55
	L 47 55
	L 47 56
	L 46 56
	L 45 56
	L 45 57
	L 46 57
	L 46 56
	L 46 55
	L 47 55
	L 47 56
	L 47 57
	L 48 57
	L 49 57
	L 49 56
	L 49 55
	L 50 55
	L 50 56
	L 50 57
	L 51 57
	L 51 58
	L 52 58
	L 53 58
	L 53 59
	L 52 59
	L 51 59
	L 51 60
	L 50 60
	L 50 61
	L 50 62
	L 49 62
	L 49 61
	L 49 60
	L 48 60
	L 47 60
	L 47 61
	L 47 62
	L 46 62
	L 46 61
	L 46 60
	L 45 60
	L 45 61
	L 46 61
	L 47 61
	L 47 62
	L 46 62
	L 45 62
	L 45 63
	L 45 64
	L 46 64
	L 47 64
	L 47 65
	L 46 65
	L 45 65
	L 45 66
	L 46 66
	L 46 65
	L 46 64
	L 47 64
	L 47 65
	L 47 66
	L 48 66
	L 49 66
	L 49 65
	L 49 64
	L 50 64
	L 50 65
	L 50 66
	L 51 66
	L 51 67
	L 52 67
	L 53 67
	L 53 68
	L 52 68
	L 51 68
	L 51 69
	L 50 69
	L 50 70
	L 50 71
	L 49 71
	L 49 70
	L 49 69
	L 48 69
	L 47 69
	L 47 70
	L 47 71
	L 46 71
	L 46 70
	L 46 69
	L 45 69
	L 45 70
	L 46 70
	L 47 70
	L 47 71
	L 46 71
	L 45 71
	L 45 72
	L 44 72
	L 44 73
	L 44 74
	L 43 74
	L 43 73
	L 43 72
	L 42 72
	L 42 73
	L 43 73
	L 44 73
	L 44 74
	L 43 74
	L 42 74
	L 42 75
	L 42 76
	L 43 76
	L 44 76
	L 44 77
	L 43 77
	L 42 77
	L 42 78
	L 41 78
	L 41 79
	L 41 80
	L 40 80
	L 40 79
	L 40 78
	L 39 78
	L 39 77
	L 38 77
	L 37 77
	L 37 76
	L 38 76
	L 39 76
	L 39 75
	L 39 74
	L 38 74
	L 37 74
	L 37 73
	L 38 73
	L 39 73
	L 39 72
	L 38 72
	L 38 73
	L 38 74
	L 37 74
	L 37 73
	L 37 72
	L 36 72
	L 36 71
	L 35 71
	L 34 71
	L 34 70
	L 35 70
	L 36 70
	L 36 69
	L 35 69
	L 35 70
	L 35 71
	L 34 71
	L 34 70
	L 34 69
	L 33 69
	L 32 69
	L 32 70
	L 32 71
	L 31 71
	L 31 70
	L 31 69
	L 30 69
	L 30 68
	L 29 68
	L 28 68
	L 28 67
	L 29 67
	L 30 67
	L 30 66
	L 31 66
	L 31 65
	L 31 64
	L 32 64
	L 32 65
	L 32 66
	L 33 66
	L 34 66
	L 34 65
	L 34 64
	L 35 64
	L 35 65
	L 35 66
	L 36 66
	L 36 65
	L 35 65
	L 34 65
	L 34 64
	L 35 64
	L 36 64
	L 36 63
	L 36 62
	L 35 62
	L 34 62
	L 34 61
	L 35 61
	L 36 61
	L 36 60
	L 35 60
	L 35 61
	L 35 62
	L 34 62
	L 34 61
	L 34 60
	L 33 60
	L 32 60
	L 32 61
	L 32 62
	L 31 62
	L 31 61
	L 31 60
	L 30 60
	L 30 59
	L 29 59
	L 28 59
	L 28 58
	L 29 58
	L 30 58
	L 30 57
	L 31 57
	L 31 56
	L 31 55
	L 32 55
	L 32 56
	L 32 57
	L 33 57
	L 34 57
	L 34 56
	L 34 55
	L 35 55
	L 35 56
	L 35 57
	L 36 57
	L 36 56
	L 35 56
	L 34 56
	L 34 55
	L 35 55
	L 36 55
	L 36 54
	L 35 54
	L 35 55
	L 35 56
	L 34 56
	L 34 55
	L 34 54
	L 33 54
	L 33 55
	L 34 55
	L 35 55
	L 35 56
	L 34 56
	L 33 56
	L 33 57
	L 33 58
	L 34 58
	L 35 58
	L 35 59
	L 34 59
	L 33 59
	L 33 60
	L 32 60
	L 32 61
	L 32 62
	L 31 62
	L 31 61
	L 31 60
	L 30 60
	L 30 59
	L 29 59
	L 28 59
	L 28 58
	L 29 58
	L 30 58
	L 30 57
	L 30 56
	L 29 56
	L 28 56
	L 28 55
	L 29 55
	L 30 55
	L 30 54
	L 29 54
	L 29 55
	L 29 56
	L 28 56
	L 28 55
	L 28 54
	L 27 54
	L 26 54
	L 26 55
	L 26 56
	L 25 56
	L 25 55
	L 25 54
	L 24 54
	L 24 55
	L 25 55
	L 26 55
	L 26 56
	L 25 56
	L 24 56
	L 24 57
	L 24 58
	L 25 58
	L 26 58
	L 26 59
	L 25 59
	L 24 59
	L 24 60
	L 23 60
	L 23 61
	L 23 62
	L 22 62
	L 22 61
	L 22 60
	L 21 60
	L 21 59
	L 20 59
	L 19 59
	L 19 58
	L 20 58
	L 21 58
	L 21 57
	L 21 56
	L 20 56
	L 19 56
	L 19 55
	L 20 55
	L 21 55
	L 21 54
	L 20 54
	L 20 55
	L 20 56
	L 19 56
	L 19 55
	L 19 54
	L 18 54
	L 18 55
	L 19 55
	L 20 55
	L 20 56
	L 19 56
	L 18 56
	L 18 57
	L 19 57
	L 19 56
	L 19 55
	L 20 55
	L 20 56
	L 20 57
	L 21 57
	L 22 57
	L 22 56
	L 22 55
	L 23 55
	L 23 56
	L 23 57
	L 24 57
	L 24 58
	L 25 58
	L 26 58
	L 26 59
	L 25 59
	L 24 59
	L 24 60
	L 23 60
	L 23 61
	L 23 62
	L 22 62
	L 22 61
	L 22 60
	L 21 60
	L 20 60
	L 20 61
	L 20 62
	L 19 62
	L 19 61
	L 19 60
	L 18 60
	L 18 61
	L 19 61
	L 20 61
	L 20 62
	L 19 62
	L 18 62
	L 18 63
	L 18 64
	L 19 64
	L 20 64
	L 20 65
	L 19 65
	L 18 65
	L 18 66
	L 19 66
	L 19 65
	L 19 64
	L 20 64
	L 20 65
	L 20 66
	L 21 66
	L 22 66
	L 22 65
	L 22 64
	L 23 64
	L 23 65
	L 23 66
	L 24 66
	L 24 67
	L 25 67
	L 26 67
	L 26 68
	L 25 68
	L 24 68
	L 24 69
	L 23 69
	L 23 70
	L 23 71
	L 22 71
	L 22 70
	L 22 69
	L 21 69
	L 20 69
	L 20 70
	L 20 71
	L 19 71
	L 19 70
	L 19 69
	L 18 69
	L 18 70
	L 19 70
	L 20 70
	L 20 71
	L 19 71
	L 18 71
	L 18 72
	L 17 72
	L 17 73
	L 17 74
	L 16 74
	L 16 73
	L 16 72
	L 15 72
	L 15 73
	L 16 73
	L 17 73
	L 17 74
	L 16 74
	L 15 74
	L 15 75
	L 15 76
	L 16 76
	L 17 76
	L 17 77
	L 16 77
	L 15 77
	L 15 78
	L 14 78
	L 14 79
	L 14 80
	L 13 80
	L 13 79
	L 13 78
	L 12 78
	L 12 77
	L 11 77
	L 10 77
	L 10 76
	L 11 76
	L 12 76
	L 12 75
	L 12 74
	L 11 74
	L 10 74
	L 10 73
	L 11 73
	L 12 73
	L 12 72
	L 11 72
	L 11 73
	L 11 74
	L 10 74
	L 10 73
	L 10 72
	L 9 72
	L 9 71
	L 8 71
	L 7 71
	L 7 70
	L 8 70
	L 9 70
	L 9 69
	L 8 69
	L 8 70
	L 8 71
	L 7 71
	L 7 70
	L 7 69
	L 6 69
	L 5 69
	L 5 70
	L 5 71
	L 4 71
	L 4 70
	L 4 69
	L 3 69
	L 3 68
	L 2 68
	L 1 68
	L 1 67
	L 2 67
	L 3 67
	L 3 66
	L 4 66
	L 4 65
	L 4 64
	L 5 64
	L 5 65
	L 5 66
	L 6 66
	L 7 66
	L 7 65
	L 7 64
	L 8 64
	L 8 65
	L 8 66
	L 9 66
	L 9 65
	L 8 65
	L 7 65
	L 7 64
	L 8 64
	L 9 64
	L 9 63
	L 9 62
	L 8 62
	L 7 62
	L 7 61
	L 8 61
	L 9 61
	L 9 60
	L 8 60
	L 8 61
	L 8 62
	L 7 62
	L 7 61
	L 7 60
	L 6 60
	L 5 60
	L 5 61
	L 5 62
	L 4 62
	L 4 61
	L 4 60
	L 3 60
	L 3 59
	L 2 59
	L 1 59
	L 1 58
	L 2 58
	L 3 58
	L 3 57
	L 4 57
	L 4 56
	L 4 55
	L 5 55
	L 5 56
	L 5 57
	L 6 57
	L 7 57
	L 7 56
	L 7 55
	L 8 55
	L 8 56
	L 8 57
	L 9 57
	L 9 56
	L 8 56
	L 7 56
	L 7 55
	L 8 55
	L 9 55
	L 9 54
	L 8 54
	L 8 55
	L 8 56
	L 7 56
	L 7 55
	L 7 54
	L 6 54
	L 6 55
	L 7 55
	L 8 55
	L 8 56
	L 7 56
	L 6 56
	L 6 57
	L 6 58
	L 7 58
	L 8 58
	L 8 59
	L 7 59
	L 6 59
	L 6 60
	L 5 60
	L 5 61
	L 5 62
	L 4 62
	L 4 61
	L 4 60
	L 3 60
	L 3 59
	L 2 59
	L 1 59
	L 1 58
	L 2 58
	L 3 58
	L 3 57
	L 3 56
	L 2 56
	L 1 56
	L 1 55
	L 2 55
	L 3 55
	L 3 54
	L 2 54
	L 2 55
	L 2 56
	L 1 56
	L 1 55
	L 1 54
	L -3.286e-14 54
	L -3.286e-14 55
	L 1 55
	L 2 55
	L 2 56
	L 1 56
	L -3.286e-14 56
	L -3.286e-14 57
	L 1 57
	L 1 56
	L 1 55
	L 2 55
	L 2 56
	L 2 57
	L 3 57
	L 4 57
	L 4 56
	L 4 55
	L 5 55
	L 5 56
	L 5 57
	L 6 57
	L 6 58
	L 7 58
	L 8 58
	L 8 59
	L 7 59
	L 6 59
	L 6 60
	L 5 60
	L 5 61
	L 5 62
	L 4 62
	L 4 61
	L 4 60
	L 3 60
	L 2 60
	L 2 61
	L 2 62
	L 1 62
	L 1 61
	L 1 60
	L -3.286e-14 60
	L -3.286e-14 61
	L 1 61
	L 2 61
	L 2 62
	L 1 62
	L -3.286e-14 62
	L -3.286e-14 63
	L 1 63
	L 1 62
	L 1 61
	L 2 61
	L 2 62
	L 2 63
	L 3 63
	L 3 62
	L 2 62
	L 1 62
	L 1 61
	L 2 61
	L 3 61
	L 3 60
	L 3 59
	L 2 59
	L 1 59
	L 1 58
	L 2 58
	L 3 58
	L 3 57
	L 4 57
	L 4 56
	L 4 55
	L 5 55
	L 5 56
	L 5 57
	L 6 57
	L 6 58
	L 7 58
	L 8 58
	L 8 59
	L 7 59
	L 6 59
	L 6 60
	L 6 61
	L 7 61
	L 8 61
	L 8 62
	L 7 62
	L 6 62
	L 6 63
	L 7 63
	L 7 62
	L 7 61
	L 8 61
	L 8 62
	L 8 63
	L 9 63
	L 10 63
	L 10 62
	L 10 61
	L 11 61
	L 11 62
	L 11 63
	L 12 63
	L 12 62
	L 11 62
	L 10 62
	L 10 61
	L 11 61
	L 12 61
	L 12 60
	L 12 59
	L 11 59
	L 10 59
	L 10 58
	L 11 58
	L 12 58
	L 12 57
	L 13 57
	L 13 56
	L 13 55
	L 14 55
	L 14 56
	L 14 57
	L 15 57
	L 15 58
	L 16 58
	L 17 58
	L 17 59
	L 16 59
	L 15 59
	L 15 60
	L 15 61
	L 16 61
	L 17 61
	L 17 62
	L 16 62
	L 15 62
	L 15 63
	L 16 63
	L 16 62
	L 16 61
	L 17 61
	L 17 62
	L 17 63
	L 18 63
	L 18 64
	L 19 64
	L 20 64
	L 20 65
	L 19 65
	L 18 65
	L 18 66
	L 19 66
	L 19 65
	L 19 64
	L 20 64
	L 20 65
	L 20 66
	L 21 66
	L 22 66
	L 22 65
	L 22 64
	L 23 64
	L 23 65
	L 23 66
	L 24 66
	L 24 67
	L 25 67
	L 26 67
	L 26 68
	L 25 68
	L 24 68
	L 24 69
	L 23 69
	L 23 70
	L 23 71
	L 22 71
	L 22 70
	L 22 69
	L 21 69
	L 20 69
	L 20 70
	L 20 71
	L 19 71
	L 19 70
	L 19 69
	L 18 69
	L 18 70
	L 19 70
	L 20 70
	L 20 71
	L 19 71
	L 18 71
	L 18 72
	L 17 72
	L 17 73
	L 17 74
	L 16 74
	L 16 73
	L 16 72
	L 15 72
	L 15 73
	L 16 73
	L 17 73
	L 17 74
	L 16 74
	L 15 74
	L 15 75
	L 15 76
	L 16 76
	L 17 76
	L 17 77
	L 16 77
	L 15 77
	L 15 78
	L 14 78
	L 14 79
	L 14 80
	L 13 80
	L 13 79
	L 13 78
	L 12 78
	L 12 77
	L 11 77
	L 10 77
	L 10 76
	L 11 76
	L 12 76
	L 12 75
	L 12 74
	L 11 74
	L 10 74
	L 10 73
	L 11 73
	L 12 73
	L 12 72
	L 11 72
	L 11 73
	L 11 74
	L 10 74
	L 10 73
	L 10 72
	L 9 72
	L 8 72
	L 8 73
	L 8 74
	L 7 74
	L 7 73
	L 7 72
	L 6 72
	L 6 73
	L 7 73
	L 8 73
	L 8 74
	L 7 74
	L 6 74
	L 6 75
	L 6 76
	L 7 76
	L 8 76
	L 8 77
	L 7 77
	L 6 77
	L 6 78
	L 5 78
	L 5 79
	L 5 80
	L 4 80
	L 4 79
	L 4 78
	L 3 78
	L 3 77
	L 2 77
	L 1 77
	L 1 76
	L 2 76
	L 3 76
	L 3 75
	L 3 74
	L 2 74
	L 1 74
	L 1 73
	L 2 73
	L 3 73
	L 3 72
	L 2 72
	L 2 73
	L 2 74
	L 1 74
	L 1 73
	L 1 72
	L -3.286e-14 72
	L -3.286e-14 73
	L 1 73
	L 2 73
	L 2 74
	L 1 74
	L -3.286e-14 74
	L -3.286e-14 75
	L 1 75
	L 1 74
	L 1 73
	L 2 73
	L 2 74
	L 2 75
	L 3 75
	L 4 75
	L 4 74
	L 4 73
	L 5 73
	L 5 74
	L 5 75
	L 6 75
	L 6 76
	L 7 76
	L 8 76
	L 8 77
	L 7 77
	L 6 77
	L 6 78
	L 5 78
	L 5 79
	L 5 80
	L 4 80
	L 4 79
	L 4 78
	L 3 78
	L 2 78
	L 2 79
	L 2 80
	L 1 80
	L 1 79
	L 1 78
	L -3.286e-14 78
	L -3.286e-14 79
	L 1 79
	L 2 79
	L 2 80
	L 1 80
	L -3.286e-14 80
	L -3.286e-14 81
	L -1 81
	L -1 82
	L -1 83
	L -2 83
	L -2 82
	L -2 81
	L -3 81
	L -3 82
	L -2 82
	L -1 82
	L -1 83
	L -2 83
	L -3 83
	L -3 84
	L -3 85
	L -2 85
	L -1 85
	L -1 86
	L -2 86
	L -3 86
	L -3 87
	L -4 87
	L -4 88
	L -4 89
	L -5 89
	L -5 88
	L -5 87
	L -6 87
	L -6 86
	L -7 86
	L -8 86
	L -8 85
	L -7 85
	L -6 85
	L -6 84
	L -6 83
	L -7 83
	L -8 83
	L -8 82
	L -7 82
	L -6 82
	L -6 81
	L -7 81
	L -7 82
	L -7 83
	L -8 83
	L -8 82
	L -8 81
	L -9 81
	L -9 82
	L -8 82
	L -7 82
	L -7 83
	L -8 83
	L -9 83
	L -9 84
	L -8 84
	L -8 83
	L -8 82
	L -7 82
	L -7 83
	L -7 84
	L -6 84
	L -5 84
	L -5 83
	L -5 82
	L -4 82
	L -4 83
	L -4 84
	L -3 84
	L -3 85
	L -2 85
	L -1 85
	L -1 86
	L -2 86
	L -3 86
	L -3 87
	L -4 87
	L -4 88
	L -4 89
	L -5 89
	L -5 88
	L -5 87
	L -6 87
	L -7 87
	L -7 88
	L -7 89
	L -8 89
	L -8 88
	L -8 87
	L -9 87
	L -9 88
	L -8 88
	L -7 88
	L -7 89
	L -8 89
	L -9 89
	L -9 90
	L -9 91
	L -8 91
	L -7 91
	L -7 92
	L -8 92
	L -9 92
	L -9 93
	L -8 93
	L -8 92
	L -8 91
	L -7 91
	L -7 92
	L -7 93
	L -6 93
	L -5 93
	L -5 92
	L -5 91
	L -4 91
	L -4 92
	L -4 93
	L -3 93
	L -3 94
	L -2 94
	L -1 94
	L -1 95
	L -2 95
	L -3 95
	L -3 96
	L -4 96
	L -4 97
	L -4 98
	L -5 98
	L -5 97
	L -5 96
	L -6 96
	L -7 96
	L -7 97
	L -7 98
	L -8 98
	L -8 97
	L -8 96
	L -9 96
	L -9 97
	L -8 97
	L -7 97
	L -7 98
	L -8 98
	L -9 98
	L -9 99
	L -10 99
	L -10 100
	L -10 101
	L -11 101
	L -11 100
	L -11 99
	L -12 99
	L -12 100
	L -11 100
	L -10 100
	L -10 101
	L -11 101
	L -12 101
	L -12 102
	L -12 103
	L -11 103
	L -10 103
	L -10 104
	L -11 104
	L -12 104
	L -12 105
	L -13 105
	L -13 106
	L -13 107
	L -14 107
	L -14 106
	L -14 105
	L -15 105
	L -15 104
	L -16 104
	L -17 104
	L -17 103
	L -16 103
	L -15 103
	L -15 102
	L -15 101
	L -16 101
	L -17 101
	L -17 100
	L -16 100
	L -15 100
	L -15 99
	L -16 99
	L -16 100
	L -16 101
	L -17 101
	L -17 100
	L -17 99
	L -18 99
	L -18 98
	L -19 98
	L -20 98
	L -20 97
	L -19 97
	L -18 97
	L -18 96
	L -19 96
	L -19 97
	L -19 98
	L -20 98
	L -20 97
	L -20 96
	L -21 96
	L -22 96
	L -22 97
	L -22 98
	L -23 98
	L -23 97
	L -23 96
	L -24 96
	L -24 95
	L -25 95
	L -26 95
	L -26 94
	L -25 94
	L -24 94
	L -24 93
	L -23 93
	L -23 92
	L -23 91
	L -22 91
	L -22 92
	L -22 93
	L -21 93
	L -20 93
	L -20 92
	L -20 91
	L -19 91
	L -19 92
	L -19 93
	L -18 93
	L -18 92
	L -19 92
	L -20 92
	L -20 91
	L -19 91
	L -18 91
	L -18 90
	L -18 89
	L -19 89
	L -20 89
	L -20 88
	L -19 88
	L -18 88
	L -18 87
	L -19 87
	L -19 88
	L -19 89
	L -20 89
	L -20 88
	L -20 87
	L -21 87
	L -22 87
	L -22 88
	L -22 89
	L -23 89
	L -23 88
	L -23 87
	L -24 87
	L -24 86
	L -25 86
	L -26 86
	L -26 85
	L -25 85
	L -24 85
	L -24 84
	L -23 84
	L -23 83
	L -23 82
	L -22 82
	L -22 83
	L -22 84
	L -21 84
	L -20 84
	L -20 83
	L -20 82
	L -19 82
	L -19 83
	L -19 84
	L -18 84
	L -18 83
	L -19 83
	L -20 83
	L -20 82
	L -19 82
	L -18 82
	L -18 81
	L -19 81
	L -19 82
	L -19 83
	L -20 83
	L -20 82
	L -20 81
	L -21 81
	L -21 82
	L -20 82
	L -19 82
	L -19 83
	L -20 83
	L -21 83
	L -21 84
	L -21 85
	L -20 85
	L -19 85
	L -19 86
	L -20 86
	L -21 86
	L -21 87
	L -22 87
	L -22 88
	L -22 89
	L -23 89
	L -23 88
	L -23 87
	L -24 87
	L -24 86
	L -25 86
	L -26 86
	L -26 85
	L -25 85
	L -24 85
	L -24 84
	L -24 83
	L -25 83
	L -26 83
	L -26 82
	L -25 82
	L -24 82
	L -24 81
	L -25 81
	L -25 82
	L -25 83
	L -26 83
	L -26 82
	L -26 81
	L -27 81
	L -27 82
	L -26 82
	L -25 82
	L -25 83
	L -26 83
	L -27 83
	L -27 84
	L -26 84
	L -26 83
	L -26 82
	L -25 82
	L -25 83
	L -25 84
	L -24 84
	L -23 84
	L -23 83
	L -23 82
	L -22 82
	L -22 83
	L -22 84
	L -21 84
	L -21 85
	L -20 85
	L -19 85
	L -19 86
	L -20 86
	L -21 86
	L -21 87
	L -22 87
	L -22 88
	L -22 89
	L -23 89
	L -23 88
	L -23 87
	L -24 87
	L -25 87
	L -25 88
	L -25 89
	L -26 89
	L -26 88
	L -26 87
	L -27 87
	L -27 88
	L -26 88
	L -25 88
	L -25 89
	L -26 89
	L -27 89
	L -27 90
	L -26 90
	L -26 89
	L -26 88
	L -25 88
	L -25 89
	L -25 90
	L -24 90
	L -24 89
	L -25 89
	L -26 89
	L -26 88
	L -25 88
	L -24 88
	L -24 87
	L -24 86
	L -25 86
	L -26 86
	L -26 85
	L -25 85
	L -24 85
	L -24 84
	L -23 84
	L -23 83
	L -23 82
	L -22 82
	L -22 83
	L -22 84
	L -21 84
	L -21 85
	L -20 85
	L -19 85
	L -19 86
	L -20 86
	L -21 86
	L -21 87
	L -21 88
	L -20 88
	L -19 88
	L -19 89
	L -20 89
	L -21 89
	L -21 90
	L -20 90
	L -20 89
	L -20 88
	L -19 88
	L -19 89
	L -19 90
	L -18 90
	L -17 90
	L -17 89
	L -17 88
	L -16 88
	L -16 89
	L -16 90
	L -15 90
	L -15 89
	L -16 89
	L -17 89
	L -17 88
	L -16 88
	L -15 88
	L -15 87
	L -15 86
	L -16 86
	L -17 86
	L -17 85
	L -16 85
	L -15 85
	L -15 84
	L -14 84
	L -14 83
	L -14 82
	L -13 82
	L -13 83
	L -13 84
	L -12 84
	L -12 85
	L -11 85
	L -10 85
	L -10 86
	L -11 86
	L -12 86
	L -12 87
	L -12 88
	L -11 88
	L -10 88
	L -10 89
	L -11 89
	L -12 89
	L -12 90
	L -11 90
	L -11 89
	L -11 88
	L -10 88
	L -10 89
	L -10 90
	L -9 90
	L -9 91
	L -8 91
	L -7 91
	L -7 92
	L -8 92
	L -9 92
	L -9 93
	L -8 93
	L -8 92
	L -8 91
	L -7 91
	L -7 92
	L -7 93
	L -6 93
	L -5 93
	L -5 92
	L -5 91
	L -4 91
	L -4 92
	L -4 93
	L -3 93
	L -3 94
	L -2 94
	L -1 94
	L -1 95
	L -2 95
	L -3 95
	L -3 96
	L -4 96
	L -4 97
	L -4 98
	L -5 98
	L -5 97
	L -5 96
	L -6 96
	L -7 96
	L -7 97
	L -7 98
	L -8 98
	L -8 97
	L -8 96
	L -9 96
	L -9 97
	L -8 97
	L -7 97
	L -7 98
	L -8 98
	L -9 98
	L -9 99
	L -10 99
	L -10 100
	L -10 101
	L -11 101
	L -11 100
	L -11 99
	L -12 99
	L -12 100
	L -11 100
	L -10 100
	L -10 101
	L -11 101
	L -12 101
	L -12 102
	L -12 103
	L -11 103
	L -10 103
	L -10 104
	L -11 104
	L -12 104
	L -12 105
	L -13 105
	L -13 106
	L -13 107
	L -14 107
	L -14 106
	L -14 105
	L -15 105
	L -15 104
	L -16 104
	L -17 104
	L -17 103
	L -16 103
	L -15 103
	L -15 102
	L -15 101
	L -16 101
	L -17 101
	L -17 100
	L -16 100
	L -15 100
	L -15 99
	L -16 99
	L -16 100
	L -16 101
	L -17 101
	L -17 100
	L -17 99
	L -18 99
	L -19 99
	L -19 100
	L -19 101
	L -20 101
	L -20 100
	L -20 99
	L -21 99
	L -21 100
	L -20 100
	L -19 100
	L -19 101
	L -20 101
	L -21 101
	L -21 102
	L -21 103
	L -20 103
	L -19 103
	L -19 104
	L -20 104
	L -21 104
	L -21 105
	L -22 105
	L -22 106
	L -22 107
	L -23 107
	L -23 106
	L -23 105
	L -24 105
	L -24 104
	L -25 104
	L -26 104
	L -26 103
	L -25 103
	L -24 103
	L -24 102
	L -24 101
	L -25 101
	L -26 101
	L -26 100
	L -25 100
	L -24 100
	L -24 99
	L -25 99
	L -25 100
	L -25 101
	L -26 101
	L -26 100
	L -26 99
	L -27 99
	L -27 100
	L -26 100
	L -25 100
	L -25 101
	L -26 101
	L -27 101
	L -27 102
	L -26 102
	L -26 101
	L -26 100
	L -25 100
	L -25 101
	L -25 102
	L -24 102
	L -23 102
	L -23 101
	L -23 100
	L -22 100
	L -22 101
	L -22 102
	L -21 102
	L -21 103
	L -20 103
	L -19 103
	L -19 104
	L -20 104
	L -21 104
	L -21 105
	L -22 105
	L -22 106
	L -22 107
	L -23 107
	L -23 106
	L -23 105
	L -24 105
	L -25 105
	L -25 106
	L -25 107
	L -26 107
	L -26 106
	L -26 105
	L -27 105
	L -27 106
	L -26 106
	L -25 106
	L -25 107
	L -26 107
	L -27 107
	L -27 108
	L -27 109
	L -26 109
	L -25 109
	L -25 110
	L -26 110
	L -27 110
	L -27 111
	L -26 111
	L -26 110
	L -26 109
	L -25 109
	L -25 110
	L -25 111
	L -24 111
	L -23 111
	L -23 110
	L -23 109
	L -22 109
	L -22 110
	L -22 111
	L -21 111
	L -21 112
	L -20 112
	L -19 112
	L -19 113
	L -20 113
	L -21 113
	L -21 114
	L -22 114
	L -22 115
	L -22 116
	L -23 116
	L -23 115
	L -23 114
	L -24 114
	L -25 114
	L -25 115
	L -25 116
	L -26 116
	L -26 115
	L -26 114
	L -27 114
	L -27 115
	L -26 115
	L -25 115
	L -25 116
	L -26 116
	L -27 116
	L -27 117
	L -26 117
	L -26 116
	L -26 115
	L -25 115
	L -25 116
	L -25 117
	L -24 117
	L -24 116
	L -25 116
	L -26 116
	L -26 115
	L -25 115
	L -24 115
	L -24 114
	L -24 113
	L -25 113
	L -26 113
	L -26 112
	L -25 112
	L -24 112
	L -24 111
	L -23 111
	L -23 110
	L -23 109
	L -22 109
	L -22 110
	L -22 111
	L -21 111
	L -21 112
	L -20 112
	L -19 112
	L -19 113
	L -20 113
	L -21 113
	L -21 114
	L -21 115
	L -20 115
	L -19 115
	L -19 116
	L -20 116
	L -21 116
	L -21 117
	L -20 117
	L -20 116
	L -20 115
	L -19 115
	L -19 116
	L -19 117
	L -18 117
	L -17 117
	L -17 116
	L -17 115
	L -16 115
	L -16 116
	L -16 117
	L -15 117
	L -15 116
	L -16 116
	L -17 116
	L -17 115
	L -16 115
	L -15 115
	L -15 114
	L -15 113
	L -16 113
	L -17 113
	L -17 112
	L -16 112
	L -15 112
	L -15 111
	L -14 111
	L -14 110
	L -14 109
	L -13 109
	L -13 110
	L -13 111
	L -12 111
	L -12 112
	L -11 112
	L -10 112
	L -10 113
	L -11 113
	L -12 113
	L -12 114
	L -12 115
	L -11 115
	L -10 115
	L -10 116
	L -11 116
	L -12 116
	L -12 117
	L -11 117
	L -11 116
	L -11 115
	L -10 115
	L -10 116
	L -10 117
	L -9 117
	L -9 118
	L -8 118
	L -7 118
	L -7 119
	L -8 119
	L -9 119
	L -9 120
	L -8 120
	L -8 119
	L -8 118
	L -7 118
	L -7 119
	L -7 120
	L -6 120
	L -5 120
	L -5 119
	L -5 118
	L -4 118
	L -4 119
	L -4 120
	L -3 120
	L -3 121
	L -2 121
	L -1 121
	L -1 122
	L -2 122
	L -3 122
	L -3 123
	L -4 123
	L -4 124
	L -4 125
	L -5 125
	L -5 124
	L -5 123
	L -6 123
	L -7 123
	L -7 124
	L -7 125
	L -8 125
	L -8 124
	L -8 123
	L -9 123
	L -9 124
	L -8 124
	L -7 124
	L -7 125
	L -8 125
	L -9 125
	L -9 126
	L -10 126
	L -10 127
	L -10 128
	L -11 128
	L -11 127
	L -11 126
	L -12 126
	L -12 127
	L -11 127
	L -10 127
	L -10 128
	L -11 128
	L -12 128
	L -12 129
	L -12 130
	L -11 130
	L -10 130
	L -10 131
	L -11 131
	L -12 131
	L -12 132
	L -13 132
	L -13 133
	L -13 134
	L -14 134
	L -14 133
	L -14 132
	L -15 132
	L -15 131
	L -16 131
	L -17 131
	L -17 130
	L -16 130
	L -15 130
	L -15 129
	L -15 128
	L -16 128
	L -17 128
	L -17 127
	L -16 127
	L -15 127
	L -15 126
	L -16 126
	L -16 127
	L -16 128
	L -17 128
	L -17 127
	L -17 126
	L -18 126
	L -19 126
	L -19 127
	L -19 128
	L -20 128
	L -20 127
	L -20 126
	L -21 126
	L -21 127
	L -20 127
	L -19 127
	L -19 128
	L -20 128
	L -21 128
	L -21 129
	L -21 130
	L -20 130
	L -19 130
	L -19 131
	L -20 131
	L -21 131
	L -21 132
	L -22 132
	L -22 133
	L -22 134
	L -23 134
	L -23 133
	L -23 132
	L -24 132
	L -24 131
	L -25 131
	L -26 131
	L -26 130
	L -25 130
	L -24 130
	L -24 129
	L -24 128
	L -25 128
	L -26 128
	L -26 127
	L -25 127
	L -24 127
	L -24 126
	L -25 126
	L -25 127
	L -25 128
	L -26 128
	L -26 127
	L -26 126
	L -27 126
	L -27 127
	L -26 127
	L -25 127
	L -25 128
	L -26 128
	L -27 128
	L -27 129
	L -26 129
	L -26 128
	L -26 127
	L -25 127
	L -25 128
	L -25 129
	L -24 129
	L -23 129
	L -23 128
	L -23 127
	L -22 127
	L -22 128
	L -22 129
	L -21 129
	L -21 130
	L -20 130
	L -19 130
	L -19 131
	L -20 131
	L -21 131
	L -21 132
	L -22 132
	L -22 133
	L -22 134
	L -23 134
	L -23 133
	L -23 132
	L -24 132
	L -25 132
	L -25 133
	L -25 134
	L -26 134
	L -26 133
	L -26 132
	L -27 132
	L -27 133
	L -26 133
	L -25 133
	L -25 134
	L -26 134
	L -27 134
	L -27 135
	L -28 135
	L -28 136
	L -28 137
	L -29 137
	L -29 136
	L -29 135
	L -30 135
	L -30 136
	L -29 136
	L -28 136
	L -28 137
	L -29 137
	L -30 137
	L -30 138
	L -30 139
	L -29 139
	L -28 139
	L -28 140
	L -29 140
	L -30 140
	L -30 141
	L -31 141
	L -31 142
	L -31 143
	L -32 143
	L -32 142
	L -32 141
	L -33 141
	L -33 140
	L -34 140
	L -35 140
	L -35 139
	L -34 139
	L -33 139
	L -33 138
	L -33 137
	L -34 137
	L -35 137
	L -35 136
	L -34 136
	L -33 136
	L -33 135
	L -34 135
	L -34 136
	L -34 137
	L -35 137
	L -35 136
	L -35 135
	L -36 135
	L -36 136
	L -35 136
	L -34 136
	L -34 137
	L -35 137
	L -36 137
	L -36 138
	L -35 138
	L -35 137
	L -35 136
	L -34 136
	L -34 137
	L -34 138
	L -33 138
	L -32 138
	L -32 137
	L -32 136
	L -31 136
	L -31 137
	L -31 138
	L -30 138
	L -30 139
	L -29 139
	L -28 139
	L -28 140
	L -29 140
	L -30 140
	L -30 141
	L -31 141
	L -31 142
	L -31 143
	L -32 143
	L -32 142
	L -32 141
	L -33 141
	L -34 141
	L -34 142
	L -34 143
	L -35 143
	L -35 142
	L -35 141
	L -36 141
	L -36 142
	L -35 142
	L -34 142
	L -34 143
	L -35 143
	L -36 143
	L -36 144
	L -36 145
	L -35 145
	L -34 145
	L -34 146
	L -35 146
	L -36 146
	L -36 147
	L -35 147
	L -35 146
	L -35 145
	L -34 145
	L -34 146
	L -34 147
	L -33 147
	L -32 147
	L -32 146
	L -32 145
	L -31 145
	L -31 146
	L -31 147
	L -30 147
	L -30 148
	L -29 148
	L -28 148
	L -28 149
	L -29 149
	L -30 149
	L -30 150
	L -31 150
	L -31 151
	L -31 152
	L -32 152
	L -32 151
	L -32 150
	L -33 150
	L -34 150
	L -34 151
	L -34 152
	L -35 152
	L -35 151
	L -35 150
	L -36 150
	L -36 151
	L -35 151
	L -34 151
	L -34 152
	L -35 152
	L -36 152
	L -36 153
	L -37 153
	L -37 154
	L -37 155
	L -38 155
	L -38 154
	L -38 153
	L -39 153
	L -39 154
	L -38 154
	L -37 154
	L -37 155
	L -38 155
	L -39 155
	L -39 156
	L -39 157
	L -38 157
	L -37 157
	L -37 158
	L -38 158
	L -39 158
	L -39 159
	L -40 159
	L -40 160
	L -40 161
	L -41 161
	L -41 160
	L -41 159
	L -42 159
	L -42 158
	L -43 158
	L -44 158
	L -44 157
	L -43 157
	L -42 157
	L -42 156
	L -42 155
	L -43 155
	L -44 155
	L -44 154
	L -43 154
	L -42 154
	L -42 153
	L -43 153
	L -43 154
	L -43 155
	L -44 155
	L -44 154
	L -44 153
	L -45 153
	L -45 152
	L -46 152
	L -47 152
	L -47 151
	L -46 151
	L -45 151
	L -45 150
	L -46 150
	L -46 151
	L -46 152
	L -47 152
	L -47 151
	L -47 150
	L -48 150
	L -49 150
	L -49 151
	L -49 152
	L -50 152
	L -50 151
	L -50 150
	L -51 150
	L -51 149
	L -52 149
	L -53 149
	L -53 148
	L -52 148
	L -51 148
	L -51 147
	L -50 147
	L -50 146
	L -50 145
	L -49 145
	L -49 146
	L -49 147
	L -48 147
	L -47 147
	L -47 146
	L -47 145
	L -46 145
	L -46 146
	L -46 147
	L -45 147
	L -45 146
	L -46 146
	L -47 146
	L -47 145
	L -46 145
	L -45 145
	L -45 144
	L -45 143
	L -46 143
	L -47 143
	L -47 142
	L -46 142
	L -45 142
	L -45 141
	L -46 141
	L -46 142
	L -46 143
	L -47 143
	L -47 142
	L -47 141
	L -48 141
	L -49 141
	L -49 142
	L -49 143
	L -50 143
	L -50 142
	L -50 141
	L -51 141
	L -51 140
	L -52 140
	L -53 140
	L -53 139
	L -52 139
	L -51 139
	L -51 138
	L -50 138
	L -50 137
	L -50 136
	L -49 136
	L -49 137
	L -49 138
	L -48 138
	L -47 138
	L -47 137
	L -47 136
	L -46 136
	L -46 137
	L -46 138
	L -45 138
	L -45 137
	L -46 137
	L -47 137
	L -47 136
	L -46 136
	L -45 136
	L -45 135
	L -46 135
	L -46 136
	L -46 137
	L -47 137
	L -47 136
	L -47 135
	L -48 135
	L -48 136
	L -47 136
	L -46 136
	L -46 137
	L -47 137
	L -48 137
	L -48 138
	L -48 139
	L -47 139
	L -46 139
	L -46 140
	L -47 140
	L -48 140
	L -48 141
	L -49 141
	L -49 142
	L -49 143
	L -50 143
	L -50 142
	L -50 141
	L -51 141
	L -51 140
	L -52 140
	L -53 140
	L -53 139
	L -52 139
	L -51 139
	L -51 138
	L -51 137
	L -52 137
	L -53 137
	L -53 136
	L -52 136
	L -51 136
	L -51 135
	L -52 135
	L -52 136
	L -52 137
	L -53 137
	L -53 136
	L -53 135
	L -54 135
	L -54 134
	L -55 134
	L -56 134
	L -56 133
	L -55 133
	L -54 133
	L -54 132
	L -55 132
	L -55 133
	L -55 134
	L -56 134
	L -56 133
	L -56 132
	L -57 132
	L -58 132
	L -58 133
	L -58 134
	L -59 134
	L -59 133
	L -59 132
	L -60 132
	L -60 131
	L -61 131
	L -62 131
	L -62 130
	L -61 130
	L -60 130
	L -60 129
	L -59 129
	L -59 128
	L -59 127
	L -58 127
	L -58 128
	L -58 129
	L -57 129
	L -56 129
	L -56 128
	L -56 127
	L -55 127
	L -55 128
	L -55 129
	L -54 129
	L -54 128
	L -55 128
	L -56 128
	L -56 127
	L -55 127
	L -54 127
	L -54 126
	L -55 126
	L -55 127
	L -55 128
	L -56 128
	L -56 127
	L -56 126
	L -57 126
	L -57 127
	L -56 127
	L -55 127
	L -55 128
	L -56 128
	L -57 128
	L -57 129
	L -57 130
	L -56 130
	L -55 130
	L -55 131
	L -56 131
	L -57 131
	L -57 132
	L -58 132
	L -58 133
	L -58 134
	L -59 134
	L -59 133
	L -59 132
	L -60 132
	L -60 131
	L -61 131
	L -62 131
	L -62 130
	L -61 130
	L -60 130
	L -60 129
	L -60 128
	L -61 128
	L -62 128
	L -62 127
	L -61 127
	L -60 127
	L -60 126
	L -61 126
	L -61 127
	L -61 128
	L -62 128
	L -62 127
	L -62 126
	L -63 126
	L -64 126
	L -64 127
	L -64 128
	L -65 128
	L -65 127
	L -65 126
	L -66 126
	L -66 127
	L -65 127
	L -64 127
	L -64 128
	L -65 128
	L -66 128
	L -66 129
	L -66 130
	L -65 130
	L -64 130
	L -64 131
	L -65 131
	L -66 131
	L -66 132
	L -67 132
	L -67 133
	L -67 134
	L -68 134
	L -68 133
	L -68 132
	L -69 132
	L -69 131
	L -70 131
	L -71 131
	L -71 130
	L -70 130
	L -69 130
	L -69 129
	L -69 128
	L -70 128
	L -71 128
	L -71 127
	L -70 127
	L -69 127
	L -69 126
	L -70 126
	L -70 127
	L -70 128
	L -71 128
	L -71 127
	L -71 126
	L -72 126
	L -72 125
	L -73 125
	L -74 125
	L -74 124
	L -73 124
	L -72 124
	L -72 123
	L -73 123
	L -73 124
	L -73 125
	L -74 125
	L -74 124
	L -74 123
	L -75 123
	L -76 123
	L -76 124
	L -76 125
	L -77 125
	L -77 124
	L -77 123
	L -78 123
	L -78 122
	L -79 122
	L -80 122
	L -80 121
	L -79 121
	L -78 121
	L -78 120
	L -77 120
	L -77 119
	L -77 118
	L -76 118
	L -76 119
	L -76 120
	L -75 120
	L -74 120
	L -74 119
	L -74 118
	L -73 118
	L -73 119
	L -73 120
	L -72 120
	L -72 119
	L -73 119
	L -74 119
	L -74 118
	L -73 118
	L -72 118
	L -72 117
	L -71 117
	L -71 116
	L -71 115
	L -70 115
	L -70 116
	L -70 117
	L -69 117
	L -69 116
	L -70 116
	L -71 116
	L -71 115
	L -70 115
	L -69 115
	L -69 114
	L -69 113
	L -70 113
	L -71 113
	L -71 112
	L -70 112
	L -69 112
	L -69 111
	L -68 111
	L -68 110
	L -68 109
	L -67 109
	L -67 110
	L -67 111
	L -66 111
	L -66 112
	L -65 112
	L -64 112
	L -64 113
	L -65 113
	L -66 113
	L -66 114
	L -66 115
	L -65 115
	L -64 115
	L -64 116
	L -65 116
	L -66 116
	L -66 117
	L -65 117
	L -65 116
	L -65 115
	L -64 115
	L -64 116
	L -64 117
	L -63 117
	L -62 117
	L -62 116
	L -62 115
	L -61 115
	L -61 116
	L -61 117
	L -60 117
	L -60 116
	L -61 116
	L -62 116
	L -62 115
	L -61 115
	L -60 115
	L -60 114
	L -60 113
	L -61 113
	L -62 113
	L -62 112
	L -61 112
	L -60 112
	L -60 111
	L -59 111
	L -59 110
	L -59 109
	L -58 109
	L -58 110
	L -58 111
	L -57 111
	L -57 112
	L -56 112
	L -55 112
	L -55 113
	L -56 113
	L -57 113
	L -57 114
	L -57 115
	L -56 115
	L -55 115
	L -55 116
	L -56 116
	L -57 116
	L -57 117
	L -56 117
	L -56 116
	L -56 115
	L -55 115
	L -55 116
	L -55 117
	L -54 117
	L -54 116
	L -55 116
	L -56 116
	L -56 115
	L -55 115
	L -54 115
	L -54 114
	L -55 114
	L -55 115
	L -55 116
	L -56 116
	L -56 115
	L -56 114
	L -57 114
	L -58 114
	L -58 115
	L -58 116
	L -59 116
	L -59 115
	L -59 114
	L -60 114
	L -60 113
	L -61 113
	L -62 113
	L -62 112
	L -61 112
	L -60 112
	L -60 111
	L -59 111
	L -59 110
	L -59 109
	L -58 109
	L -58 110
	L -58 111
	L -57 111
	L -56 111
	L -56 110
	L -56 109
	L -55 109
	L -55 110
	L -55 111
	L -54 111
	L -54 110
	L -55 110
	L -56 110
	L -56 109
	L -55 109
	L -54 109
	L -54 108
	L -54 107
	L -55 107
	L -56 107
	L -56 106
	L -55 106
	L -54 106
	L -54 105
	L -55 105
	L -55 106
	L -55 107
	L -56 107
	L -56 106
	L -56 105
	L -57 105
	L -58 105
	L -58 106
	L -58 107
	L -59 107
	L -59 106
	L -59 105
	L -60 105
	L -60 104
	L -61 104
	L -62 104
	L -62 103
	L -61 103
	L -60 103
	L -60 102
	L -59 102
	L -59 101
	L -59 100
	L -58 100
	L -58 101
	L -58 102
	L -57 102
	L -56 102
	L -56 101
	L -56 100
	L -55 100
	L -55 101
	L -55 102
	L -54 102
	L -54 101
	L -55 101
	L -56 101
	L -56 100
	L -55 100
	L -54 100
	L -54 99
	L -55 99
	L -55 100
	L -55 101
	L -56 101
	L -56 100
	L -56 99
	L -57 99
	L -57 100
	L -56 100
	L -55 100
	L -55 101
	L -56 101
	L -57 101
	L -57 102
	L -57 103
	L -56 103
	L -55 103
	L -55 104
	L -56 104
	L -57 104
	L -57 105
	L -58 105
	L -58 106
	L -58 107
	L -59 107
	L -59 106
	L -59 105
	L -60 105
	L -60 104
	L -61 104
	L -62 104
	L -62 103
	L -61 103
	L -60 103
	L -60 102
	L -60 101
	L -61 101
	L -62 101
	L -62 100
	L -61 100
	L -60 100
	L -60 99
	L -61 99
	L -61 100
	L -61 101
	L -62 101
	L -62 100
	L -62 99
	L -63 99
	L -64 99
	L -64 100
	L -64 101
	L -65 101
	L -65 100
	L -65 99
	L -66 99
	L -66 100
	L -65 100
	L -64 100
	L -64 101
	L -65 101
	L -66 101
	L -66 102
	L -66 103
	L -65 103
	L -64 103
	L -64 104
	L -65 104
	L -66 104
	L -66 105
	L -67 105
	L -67 106
	L -67 107
	L -68 107
	L -68 106
	L -68 105
	L -69 105
	L -69 104
	L -70 104
	L -71 104
	L -71 103
	L -70 103
	L -69 103
	L -69 102
	L -69 101
	L -70 101
	L -71 101
	L -71 100
	L -70 100
	L -69 100
	L -69 99
	L -70 99
	L -70 100
	L -70 101
	L -71 101
	L -71 100
	L -71 99
	L -72 99
	L -72 98
	L -73 98
	L -74 98
	L -74 97
	L -73 97
	L -72 97
	L -72 96
	L -73 96
	L -73 97
	L -73 98
	L -74 98
	L -74 97
	L -74 96
	L -75 96
	L -76 96
	L -76 97
	L -76 98
	L -77 98
	L -77 97
	L -77 96
	L -78 96
	L -78 95
	L -79 95
	L -80 95
	L -80 94
	L -79 94
	L -78 94
	L -78 93
	L -77 93
	L -77 92
	L -77 91
	L -76 91
	L -76 92
	L -76 93
	L -75 93
	L -74 93
	L -74 92
	L -74 91
	L -73 91
	L -73 92
	L -73 93
	L -72 93
	L -72 92
	L -73 92
	L -74 92
	L -74 91
	L -73 91
	L -72 91
	L -72 90
	L -71 90
	L -71 89
	L -71 88
	L -70 88
	L -70 89
	L -70 90
	L -69 90
	L -69 89
	L -70 89
	L -71 89
	L -71 88
	L -70 88
	L -69 88
	L -69 87
	L -69 86
	L -70 86
	L -71 86
	L -71 85
	L -70 85
	L -69 85
	L -69 84
	L -68 84
	L -68 83
	L -68 82
	L -67 82
	L -67 83
	L -67 84
	L -66 84
	L -66 85
	L -65 85
	L -64 85
	L -64 86
	L -65 86
	L -66 86
	L -66 87
	L -66 88
	L -65 88
	L -64 88
	L -64 89
	L -65 89
	L -66 89
	L -66 90
	L -65 90
	L -65 89
	L -65 88
	L -64 88
	L -64 89
	L -64 90
	L -63 90
	L -62 90
	L -62 89
	L -62 88
	L -61 88
	L -61 89
	L -61 90
	L -60 90
	L -60 89
	L -61 89
	L -62 89
	L -62 88
	L -61 88
	L -60 88
	L -60 87
	L -60 86
	L -61 86
	L -62 86
	L -62 85
	L -61 85
	L -60 85
	L -60 84
	L -59 84
	L -59 83
	L -59 82
	L -58 82
	L -58 83
	L -58 84
	L -57 84
	L -57 85
	L -56 85
	L -55 85
	L -55 86
	L -56 86
	L -57 86
	L -57 87
	L -57 88
	L -56 88
	L -55 88
	L -55 89
	L -56 89
	L -57 89
	L -57 90
	L -56 90
	L -56 89
	L -56 88
	L -55 88
	L -55 89
	L -55 90
	L -54 90
	L -54 89
	L -55 89
	L -56 89
	L -56 88
	L -55 88
	L -54 88
	L -54 87
	L -55 87
	L -55 88
	L -55 89
	L -56 89
	L -56 88
	L -56 87
	L -57 87
	L -58 87
	L -58 88
	L -58 89
	L -59 89
	L -59 88
	L -59 87
	L -60 87
	L -60 86
	L -61 86
	L -62 86
	L -62 85
	L -61 85
	L -60 85
	L -60 84
	L -59 84
	L -59 83
	L -59 82
	L -58 82
	L -58 83
	L -58 84
	L -57 84
	L -56 84
	L -56 83
	L -56 82
	L -55 82
	L -55 83
	L -55 84
	L -54 84
	L -54 83
	L -55 83
	L -56 83
	L -56 82
	L -55 82
	L -54 82
	L -54 81
	L -55 81
	L -55 82
	L -55 83
	L -56 83
	L -56 82
	L -56 81
	L -57 81
	L -57 82
	L -56 82
	L -55 82
	L -55 83
	L -56 83
	L -57 83
	L -57 84
	L -57 85
	L -56 85
	L -55 85
	L -55 86
	L -56 86
	L -57 86
	L -57 87
	L -58 87
	L -58 88
	L -58 89
	L -59 89
	L -59 88
	L -59 87
	L -60 87
	L -60 86
	L -61 86
	L -62 86
	L -62 85
	L -61 85
	L -60 85
	L -60 84
	L -60 83
	L -61 83
	L -62 83
	L -62 82
	L -61 82
	L -60 82
	L -60 81
	L -61 81
	L -61 82
	L -61 83
	L -62 83
	L -62 82
	L -62 81
	L -63 81
	L -63 82
	L -62 82
	L -61 82
	L -61 83
	L -62 83
	L -63 83
	L -63 84
	L -62 84
	L -62 83
	L -62 82
	L -61 82
	L -61 83
	L -61 84
	L -60 84
	L -59 84
	L -59 83
	L -59 82
	L -58 82
	L -58 83
	L -58 84
	L -57 84
	L -57 85
	L -56 85
	L -55 85
	L -55 86
	L -56 86
	L -57 86
	L -57 87
	L -58 87
	L -58 88
	L -58 89
	L -59 89
	L -59 88
	L -59 87
	L -60 87
	L -61 87
	L -61 88
	L -61 89
	L -62 89
	L -62 88
	L -62 87
	L -63 87
	L -63 88
	L -62 88
	L -61 88
	L -61 89
	L -62 89
	L -63 89
	L -63 90
	L -63 91
	L -62 91
	L -61 91
	L -61 92
	L -62 92
	L -63 92
	L -63 93
	L -62 93
	L -62 92
	L -62 91
	L -61 91
	L -61 92
	L -61 93
	L -60 93
	L -59 93
	L -59 92
	L -59 91
	L -58 91
	L -58 92
	L -58 93
	L -57 93
	L -57 94
	L -56 94
	L -55 94
	L -55 95
	L -56 95
	L -57 95
	L -57 96
	L -58 96
	L -58 97
	L -58 98
	L -59 98
	L -59 97
	L -59 96
	L -60 96
	L -61 96
	L -61 97
	L -61 98
	L -62 98
	L -62 97
	L -62 96
	L -63 96
	L -63 97
	L -62 97
	L -61 97
	L -61 98
	L -62 98
	L -63 98
	L -63 99
	L -64 99
	L -64 100
	L -64 101
	L -65 101
	L -65 100
	L -65 99
	L -66 99
	L -66 100
	L -65 100
	L -64 100
	L -64 101
	L -65 101
	L -66 101
	L -66 102
	L -66 103
	L -65 103
	L -64 103
	L -64 104
	L -65 104
	L -66 104
	L -66 105
	L -67 105
	L -67 106
	L -67 107
	L -68 107
	L -68 106
	L -68 105
	L -69 105
	L -69 104
	L -70 104
	L -71 104
	L -71 103
	L -70 103
	L -69 103
	L -69 102
	L -69 101
	L -70 101
	L -71 101
	L -71 100
	L -70 100
	L -69 100
	L -69 99
	L -70 99
	L -70 100
	L -70 101
	L -71 101
	L -71 100
	L -71 99
	L -72 99
	L -72 98
	L -73 98
	L -74 98
	L -74 97
	L -73 97
	L -72 97
	L -72 96
	L -73 96
	L -73 97
	L -73 98
	L -74 98
	L -74 97
	L -74 96
	L -75 96
	L -76 96
	L -76 97
	L -76 98
	L -77 98
	L -77 97
	L -77 96
	L -78 96
	L -78 95
	L -79 95
	L -80 95
	L -80 94
	L -79 94
	L -78 94
	L -78 93
	L -77 93
	L -77 92
	L -77 91
	L -76 91
	L -76 92
	L -76 93
	L -75 93
	L -74 93
	L -74 92
	L -74 91
	L -73 91
	L -73 92
	L -73 93
	L -72 93
	L -72 92
	L -73 92
	L -74 92
	L -74 91
	L -73 91
	L -72 91
	L -72 90
	L -72 89
	L -73 89
	L -74 89
	L -74 88
	L -73 88
	L -72 88
	L -72 87
	L -73 87
	L -73 88
	L -73 89
	L -74 89
	L -74 88
	L -74 87
	L -75 87
	L -76 87
	L -76 88
	L -76 89
	L -77 89
	L -77 88
	L -77 87
	L -78 87
	L -78 86
	L -79 86
	L -80 86
	L -80 85
	L -79 85
	L -78 85
	L -78 84
	L -77 84
	L -77 83
	L -77 82
	L -76 82
	L -76 83
	L -76 84
	L -75 84
	L -74 84
	L -74 83
	L -74 82
	L -73 82
	L -73 83
	L -73 84
	L -72 84
	L -72 83
	L -73 83
	L -74 83
	L -74 82
	L -73 82
	L -72 82
	L -72 81
	L -73 81
	L -73 82
	L -73 83
	L -74 83
	L -74 82
	L -74 81
	L -75 81
	L -75 82
	L -74 82
	L -73 82
	L -73 83
	L -74 83
	L -75 83
	L -75 84
	L -75 85
	L -74 85
	L -73 85
	L -73 86
	L -74 86
	L -75 86
	L -75 87
	L -76 87
	L -76 88
	L -76 89
	L -77 89
	L -77 88
	L -77 87
	L -78 87
	L -78 86
	L -79 86
	L -80 86
	L -80 85
	L -79 85
	L -78 85
	L -78 84
	L -78 83
	L -79 83
	L -80 83
	L -80 82
	L -79 82
	L -78 82
	L -78 81
	L -79 81
	L -79 82
	L -79 83
	L -80 83
	L -80 82
	L -80 81
	L -81 81
	L -81 80
	L -82 80
	L -83 80
	L -83 79
	L -82 79
	L -81 79
	L -81 78
	L -82 78
	L -82 79
	L -82 80
	L -83 80
	L -83 79
	L -83 78
	L -84 78
	L -85 78
	L -85 79
	L -85 80
	L -86 80
	L -86 79
	L -86 78
	L -87 78
	L -87 77
	L -88 77
	L -89 77
	L -89 76
	L -88 76
	L -87 76
	L -87 75
	L -86 75
	L -86 74
	L -86 73
	L -85 73
	L -85 74
	L -85 75
	L -84 75
	L -83 75
	L -83 74
	L -83 73
	L -82 73
	L -82 74
	L -82 75
	L -81 75
	L -81 74
	L -82 74
	L -83 74
	L -83 73
	L -82 73
	L -81 73
	L -81 72
	L -82 72
	L -82 73
	L -82 74
	L -83 74
	L -83 73
	L -83 72
	L -84 72
	L -84 73
	L -83 73
	L -82 73
	L -82 74
	L -83 74
	L -84 74
	L -84 75
	L -84 76
	L -83 76
	L -82 76
	L -82 77
	L -83 77
	L -84 77
	L -84 78
	L -85 78
	L -85 79
	L -85 80
	L -86 80
	L -86 79
	L -86 78
	L -87 78
	L -87 77
	L -88 77
	L -89 77
	L -89 76
	L -88 76
	L -87 76
	L -87 75
	L -87 74
	L -88 74
	L -89 74
	L -89 73
	L -88 73
	L -87 73
	L -87 72
	L -88 72
	L -88 73
	L -88 74
	L -89 74
	L -89 73
	L -89 72
	L -90 72
	L -91 72
	L -91 73
	L -91 74
	L -92 74
	L -92 73
	L -92 72
	L -93 72
	L -93 73
	L -92 73
	L -91 73
	L -91 74
	L -92 74
	L -93 74
	L -93 75
	L -93 76
	L -92 76
	L -91 76
	L -91 77
	L -92 77
	L -93 77
	L -93 78
	L -94 78
	L -94 79
	L -94 80
	L -95 80
	L -95 79
	L -95 78
	L -96 78
	L -96 77
	L -97 77
	L -98 77
	L -98 76
	L -97 76
	L -96 76
	L -96 75
	L -96 74
	L -97 74
	L -98 74
	L -98 73
	L -97 73
	L -96 73
	L -96 72
	L -97 72
	L -97 73
	L -97 74
	L -98 74
	L -98 73
	L -98 72
	L -99 72
	L -99 71
	L -100 71
	L -101 71
	L -101 70
	L -100 70
	L -99 70
	L -99 69
	L -100 69
	L -100 70
	L -100 71
	L -101 71
	L -101 70
	L -101 69
	L -102 69
	L -103 69
	L -103 70
	L -103 71
	L -104 71
	L -104 70
	L -104 69
	L -105 69
	L -105 68
	L -106 68
	L -107 68
	L -107 67
	L -106 67
	L -105 67
	L -105 66
	L -104 66
	L -104 65
	L -104 64
	L -103 64
	L -103 65
	L -103 66
	L -102 66
	L -101 66
	L -101 65
	L -101 64
	L -100 64
	L -100 65
	L -100 66
	L -99 66
	L -99 65
	L -100 65
	L -101 65
	L -101 64
	L -100 64
	L -99 64
	L -99 63
	L -98 63
	L -98 62
	L -98 61
	L -97 61
	L -97 62
	L -97 63
	L -96 63
	L -96 62
	L -97 62
	L -98 62
	L -98 61
	L -97 61
	L -96 61
	L -96 60
	L -96 59
	L -97 59
	L -98 59
	L -98 58
	L -97 58
	L -96 58
	L -96 57
	L -95 57
	L -95 56
	L -95 55
	L -94 55
	L -94 56
	L -94 57
	L -93 57
	L -93 58
	L -92 58
	L -91 58
	L -91 59
	L -92 59
	L -93 59
	L -93 60
	L -93 61
	L -92 61
	L -91 61
	L -91 62
	L -92 62
	L -93 62
	L -93 63
	L -92 63
	L -92 62
	L -92 61
	L -91 61
	L -91 62
	L -91 63
	L -90 63
	L -89 63
	L -89 62
	L -89 61
	L -88 61
	L -88 62
	L -88 63
	L -87 63
	L -87 62
	L -88 62
	L -89 62
	L -89 61
	L -88 61
	L -87 61
	L -87 60
	L -87 59
	L -88 59
	L -89 59
	L -89 58
	L -88 58
	L -87 58
	L -87 57
	L -86 57
	L -86 56
	L -86 55
	L -85 55
	L -85 56
	L -85 57
	L -84 57
	L -84 58
	L -83 58
	L -82 58
	L -82 59
	L -83 59
	L -84 59
	L -84 60
	L -84 61
	L -83 61
	L -82 61
	L -82 62
	L -83 62
	L -84 62
	L -84 63
	L -83 63
	L -83 62
	L -83 61
	L -82 61
	L -82 62
	L -82 63
	L -81 63
	L -81 62
	L -82 62
	L -83 62
	L -83 61
	L -82 61
	L -81 61
	L -81 60
	L -82 60
	L -82 61
	L -82 62
	L -83 62
	L -83 61
	L -83 60
	L -84 60
	L -85 60
	L -85 61
	L -85 62
	L -86 62
	L -86 61
	L -86 60
	L -87 60
	L -87 59
	L -88 59
	L -89 59
	L -89 58
	L -88 58
	L -87 58
	L -87 57
	L -86 57
	L -86 56
	L -86 55
	L -85 55
	L -85 56
	L -85 57
	L -84 57
	L -83 57
	L -83 56
	L -83 55
	L -82 55
	L -82 56
	L -82 57
	L -81 57
	L -81 56
	L -82 56
	L -83 56
	L -83 55
	L -82 55
	L -81 55
	L -81 54
	L -82 54
	L -82 55
	L -82 56
	L -83 56
	L -83 55
	L -83 54
	L -84 54
	L -84 55
	L -83 55
	L -82 55
	L -82 56
	L -83 56
	L -84 56
	L -84 57
	L -84 58
	L -83 58
	L -82 58
	L -82 59
	L -83 59
	L -84 59
	L -84 60
	L -85 60
	L -85 61
	L -85 62
	L -86 62
	L -86 61
	L -86 60
	L -87 60
	L -87 59
	L -88 59
	L -89 59
	L -89 58
	L -88 58
	L -87 58
	L -87 57
	L -87 56
	L -88 56
	L -89 56
	L -89 55
	L -88 55
	L -87 55
	L -87 54
	L -88 54
	L -88 55
	L -88 56
	L -89 56
	L -89 55
	L -89 54
	L -90 54
	L -90 55
	L -89 55
	L -88 55
	L -88 56
	L -89 56
	L -90 56
	L -90 57
	L -89 57
	L -89 56
	L -89 55
	L -88 55
	L -88 56
	L -88 57
	L -87 57
	L -86 57
	L -86 56
	L -86 55
	L -85 55
	L -85 56
	L -85 57
	L -84 57
	L -84 58
	L -83 58
	L -82 58
	L -82 59
	L -83 59
	L -84 59
	L -84 60
	L -85 60
	L -85 61
	L -85 62
	L -86 62
	L -86 61
	L -86 60
	L -87 60
	L -88 60
	L -88 61
	L -88 62
	L -89 62
	L -89 61
	L -89 60
	L -90 60
	L -90 61
	L -89 61
	L -88 61
	L -88 62
	L -89 62
	L -90 62
	L -90 63
	L -90 64
	L -89 64
	L -88 64
	L -88 65
	L -89 65
	L -90 65
	L -90 66
	L -89 66
	L -89 65
	L -89 64
	L -88 64
	L -88 65
	L -88 66
	L -87 66
	L -86 66
	L -86 65
	L -86 64
	L -85 64
	L -85 65
	L -85 66
	L -84 66
	L -84 67
	L -83 67
	L -82 67
	L -82 68
	L -83 68
	L -84 68
	L -84 69
	L -85 69
	L -85 70
	L -85 71
	L -86 71
	L -86 70
	L -86 69
	L -87 69
	L -88 69
	L -88 70
	L -88 71
	L -89 71
	L -89 70
	L -89 69
	L -90 69
	L -90 70
	L -89 70
	L -88 70
	L -88 71
	L -89 71
	L -90 71
	L -90 72
	L -91 72
	L -91 73
	L -91 74
	L -92 74
	L -92 73
	L -92 72
	L -93 72
	L -93 73
	L -92 73
	L -91 73
	L -91 74
	L -92 74
	L -93 74
	L -93 75
	L -93 76
	L -92 76
	L -91 76
	L -91 77
	L -92 77
	L -93 77
	L -93 78
	L -94 78
	L -94 79
	L -94 80
	L -95 80
	L -95 79
	L -95 78
	L -96 78
	L -96 77
	L -97 77
	L -98 77
	L -98 76
	L -97 76
	L -96 76
	L -96 75
	L -96 74
	L -97 74
	L -98 74
	L -98 73
	L -97 73
	L -96 73
	L -96 72
	L -97 72
	L -97 73
	L -97 74
	L -98 74
	L -98 73
	L -98 72
	L -99 72
	L -99 71
	L -100 71
	L -101 71
	L -101 70
	L -100 70
	L -99 70
	L -99 69
	L -100 69
	L -100 70
	L -100 71
	L -101 71
	L -101 70
	L -101 69
	L -102 69
	L -103 69
	L -103 70
	L -103 71
	L -104 71
	L -104 70
	L -104 69
	L -105 69
	L -105 68
	L -106 68
	L -107 68
	L -107 67
	L -106 67
	L -105 67
	L -105 66
	L -104 66
	L -104 65
	L -104 64
	L -103 64
	L -103 65
	L -103 66
	L -102 66
	L -101 66
	L -101 65
	L -101 64
	L -100 64
	L -100 65
	L -100 66
	L -99 66
	L -99 65
	L -100 65
	L -101 65
	L -101 64
	L -100 64
	L -99 64
	L -99 63
	L -99 62
	L -100 62
	L -101 62
	L -101 61
	L -100 61
	L -99 61
	L -99 60
	L -100 60
	L -100 61
	L -100 62
	L -101 62
	L -101 61
	L -101 60
	L -102 60
	L -103 60
	L -103 61
	L -103 62
	L -104 62
	L -104 61
	L -104 60
	L -105 60
	L -105 59
	L -106 59
	L -107 59
	L -107 58
	L -106 58
	L -105 58
	L -105 57
	L -104 57
	L -104 56
	L -104 55
	L -103 55
	L -103 56
	L -103 57
	L -102 57
	L -101 57
	L -101 56
	L -101 55
	L -100 55
	L -100 56
	L -100 57
	L -99 57
	L -99 56
	L -100 56
	L -101 56
	L -101 55
	L -100 55
	L -99 55
	L -99 54
	L -100 54
	L -100 55
	L -100 56
	L -101 56
	L -101 55
	L -101 54
	L -102 54
	L -102 55
	L -101 55
	L -100 55
	L -100 56
	L -101 56
	L -102 56
	L -102 57
	L -102 58
	L -101 58
	L -100 58
	L -100 59
	L -101 59
	L -102 59
	L -102 60
	L -103 60
	L -103 61
	L -103 62
	L -104 62
	L -104 61
	L -104 60
	L -105 60
	L -105 59
	L -106 59
	L -107 59
	L -107 58
	L -106 58
	L -105 58
	L -105 57
	L -105 56
	L -106 56
	L -107 56
	L -107 55
	L -106 55
	L -105 55
	L -105 54
	L -106 54
	L -106 55
	L -106 56
	L -107 56
	L -107 55
	L -107 54
	L -108 54
	L -109 54
	L -109 55
	L -109 56
	L -110 56
	L -110 55
	L -110 54
	L -111 54
	L -111 55
	L -110 55
	L -109 55
	L -109 56
	L -110 56
	L -111 56
	L -111 57
	L -111 58
	L -110 58
	L -109 58
	L -109 59
	L -110 59
	L -111 59
	L -111 60
	L -112 60
	L -112 61
	L -112 62
	L -113 62
	L -113 61
	L -113 60
	L -114 60
	L -114 59
	L -115 59
	L -116 59
	L -116 58
	L -115 58
	L -114 58
	L -114 57
	L -114 56
	L -115 56
	L -116 56
	L -116 55
	L -115 55
	L -114 55
	L -114 54
	L -115 54
	L -115 55
	L -115 56
	L -116 56
	L -116 55
	L -116 54
	L -117 54
	L -117 55
	L -116 55
	L -115 55
	L -115 56
	L -116 56
	L -117 56
	L -117 57
	L -116 57
	L -116 56
	L -116 55
	L -115 55
	L -115 56
	L -115 57
	L -114 57
	L -113 57
	L -113 56
	L -113 55
	L -112 55
	L -112 56
	L -112 57
	L -111 57
	L -111 58
	L -110 58
	L -109 58
	L -109 59
	L -110 59
	L -111 59
	L -111 60
	L -112 60
	L -112 61
	L -112 62
	L -113 62
	L -113 61
	L -113 60
	L -114 60
	L -115 60
	L -115 61
	L -115 62
	L -116 62
	L -116 61
	L -116 60
	L -117 60
	L -117 61
	L -116 61
	L -115 61
	L -115 62
	L -116 62
	L -117 62
	L -117 63
	L -117 64
	L -116 64
	L -115 64
	L -115 65
	L -116 65
	L -117 65
	L -117 66
	L -116 66
	L -116 65
	L -116 64
	L -115 64
	L -115 65
	L -115 66
	L -114 66
	L -113 66
	L -113 65
	L -113 64
	L -112 64
	L -112 65
	L -112 66
	L -111 66
	L -111 67
	L -110 67
	L -109 67
	L -109 68
	L -110 68
	L -111 68
	L -111 69
	L -112 69
	L -112 70
	L -112 71
	L -113 71
	L -113 70
	L -113 69
	L -114 69
	L -115 69
	L -115 70
	L -115 71
	L -116 71
	L -116 70
	L -116 69
	L -117 69
	L -117 70
	L -116 70
	L -115 70
	L -115 71
	L -116 71
	L -117 71
	L -117 72
	L -118 72
	L -118 73
	L -118 74
	L -119 74
	L -119 73
	L -119 72
	L -120 72
	L -120 73
	L -119 73
	L -118 73
	L -118 74
	L -119 74
	L -120 74
	L -120 75
	L -120 76
	L -119 76
	L -118 76
	L -118 77
	L -119 77
	L -120 77
	L -120 78
	L -121 78
	L -121 79
	L -121 80
	L -122 80
	L -122 79
	L -122 78
	L -123 78
	L -123 77
	L -124 77
	L -125 77
	L -125 76
	L -124 76
	L -123 76
	L -123 75
	L -123 74
	L -124 74
	L -125 74
	L -125 73
	L -124 73
	L -123 73
	L -123 72
	L -124 72
	L -124 73
	L -124 74
	L -125 74
	L -125 73
	L -125 72
	L -126 72
	L -126 71
	L -127 71
	L -128 71
	L -128 70
	L -127 70
	L -126 70
	L -126 69
	L -127 69
	L -127 70
	L -127 71
	L -128 71
	L -128 70
	L -128 69
	L -129 69
	L -130 69
	L -130 70
	L -130 71
	L -131 71
	L -131 70
	L -131 69
	L -132 69
	L -132 68
	L -133 68
	L -134 68
	L -134 67
	L -133 67
	L -132 67
	L -132 66
	L -131 66
	L -131 65
	L -131 64
	L -130 64
	L -130 65
	L -130 66
	L -129 66
	L -128 66
	L -128 65
	L -128 64
	L -127 64
	L -127 65
	L -127 66
	L -126 66
	L -126 65
	L -127 65
	L -128 65
	L -128 64
	L -127 64
	L -126 64
	L -126 63
	L -126 62
	L -127 62
	L -128 62
	L -128 61
	L -127 61
	L -126 61
	L -126 60
	L -127 60
	L -127 61
	L -127 62
	L -128 62
	L -128 61
	L -128 60
	L -129 60
	L -130 60
	L -130 61
	L -130 62
	L -131 62
	L -131 61
	L -131 60
	L -132 60
	L -132 59
	L -133 59
	L -134 59
	L -134 58
	L -133 58
	L -132 58
	L -132 57
	L -131 57
	L -131 56
	L -131 55
	L -130 55
	L -130 56
	L -130 57
	L -129 57
	L -128 57
	L -128 56
	L -128 55
	L -127 55
	L -127 56
	L -127 57
	L -126 57
	L -126 56
	L -127 56
	L -128 56
	L -128 55
	L -127 55
	L -126 55
	L -126 54
	L -127 54
	L -127 55
	L -127 56
	L -128 56
	L -128 55
	L -128 54
	L -129 54
	L -129 55
	L -128 55
	L -127 55
	L -127 56
	L -128 56
	L -129 56
	L -129 57
	L -129 58
	L -128 58
	L -127 58
	L -127 59
	L -128 59
	L -129 59
	L -129 60
	L -130 60
	L -130 61
	L -130 62
	L -131 62
	L -131 61
	L -131 60
	L -132 60
	L -132 59
	L -133 59
	L -134 59
	L -134 58
	L -133 58
	L -132 58
	L -132 57
	L -132 56
	L -133 56
	L -134 56
	L -134 55
	L -133 55
	L -132 55
	L -132 54
	L -133 54
	L -133 55
	L -133 56
	L -134 56
	L -134 55
	L -134 54
	L -135 54
	L -135 53
	L -136 53
	L -137 53
	L -137 52
	L -136 52
	L -135 52
	L -135 51
	L -136 51
	L -136 52
	L -136 53
	L -137 53
	L -137 52
	L -137 51
	L -138 51
	L -139 51
	L -139 52
	L -139 53
	L -140 53
	L -140 52
	L -140 51
	L -141 51
	L -141 50
	L -142 50
	L -143 50
	L -143 49
	L -142 49
	L -141 49
	L -141 48
	L -140 48
	L -140 47
	L -140 46
	L -139 46
	L -139 47
	L -139 48
	L -138 48
	L -137 48
	L -137 47
	L -137 46
	L -136 46
	L -136 47
	L -136 48
	L -135 48
	L -135 47
	L -136 47
	L -137 47
	L -137 46
	L -136 46
	L -135 46
	L -135 45
	L -136 45
	L -136 46
	L -136 47
	L -137 47
	L -137 46
	L -137 45
	L -138 45
	L -138 46
	L -137 46
	L -136 46
	L -136 47
	L -137 47
	L -138 47
	L -138 48
	L -138 49
	L -137 49
	L -136 49
	L -136 50
	L -137 50
	L -138 50
	L -138 51
	L -139 51
	L -139 52
	L -139 53
	L -140 53
	L -140 52
	L -140 51
	L -141 51
	L -141 50
	L -142 50
	L -143 50
	L -143 49
	L -142 49
	L -141 49
	L -141 48
	L -141 47
	L -142 47
	L -143 47
	L -143 46
	L -142 46
	L -141 46
	L -141 45
	L -142 45
	L -142 46
	L -142 47
	L -143 47
	L -143 46
	L -143 45
	L -144 45
	L -145 45
	L -145 46
	L -145 47
	L -146 47
	L -146 46
	L -146 45
	L -147 45
	L -147 46
	L -146 46
	L -145 46
	L -145 47
	L -146 47
	L -147 47
	L -147 48
	L -147 49
	L -146 49
	L -145 49
	L -145 50
	L -146 50
	L -147 50
	L -147 51
	L -148 51
	L -148 52
	L -148 53
	L -149 53
	L -149 52
	L -149 51
	L -150 51
	L -150 50
	L -151 50
	L -152 50
	L -152 49
	L -151 49
	L -150 49
	L -150 48
	L -150 47
	L -151 47
	L -152 47
	L -152 46
	L -151 46
	L -150 46
	L -150 45
	L -151 45
	L -151 46
	L -151 47
	L -152 47
	L -152 46
	L -152 45
	L -153 45
	L -153 44
	L -154 44
	L -155 44
	L -155 43
	L -154 43
	L -153 43
	L -153 42
	L -154 42
	L -154 43
	L -154 44
	L -155 44
	L -155 43
	L -155 42
	L -156 42
	L -157 42
	L -157 43
	L -157 44
	L -158 44
	L -158 43
	L -158 42
	L -159 42
	L -159 41
	L -160 41
	L -161 41
	L -161 40
	L -160 40
	L -159 40
	L -159 39
	L -158 39
	L -158 38
	L -158 37
	L -157 37
	L -157 38
	L -157 39
	L -156 39
	L -155 39
	L -155 38
	L -155 37
	L -154 37
	L -154 38
	L -154 39
	L -153 39
	L -153 38
	L -154 38
	L -155 38
	L -155 37
	L -154 37
	L -153 37
	L -153 36
	L -152 36
	L -152 35
	L -152 34
	L -151 34
	L -151 35
	L -151 36
	L -150 36
	L -150 35
	L -151 35
	L -152 35
	L -152 34
	L -151 34
	L -150 34
	L -150 33
	L -150 32
	L -151 32
	L -152 32
	L -152 31
	L -151 31
	L -150 31
	L -150 30
	L -149 30
	L -149 29
	L -149 28
	L -148 28
	L -148 29
	L -148 30
	L -147 30
	L -147 31
	L -146 31
	L -145 31
	L -145 32
	L -146 32
	L -147 32
	L -147 33
	L -147 34
	L -146 34
	L -145 34
	L -145 35
	L -146 35
	L -147 35
	L -147 36
	L -146 36
	L -146 35
	L -146 34
	L -145 34
	L -145 35
	L -145 36
	L -144 36
	L -143 36
	L -143 35
	L -143 34
	L -142 34
	L -142 35
	L -142 36
	L -141 36
	L -141 35
	L -142 35
	L -143 35
	L -143 34
	L -142 34
	L -141 34
	L -141 33
	L -141 32
	L -142 32
	L -143 32
	L -143 31
	L -142 31
	L -141 31
	L -141 30
	L -140 30
	L -140 29
	L -140 28
	L -139 28
	L -139 29
	L -139 30
	L -138 30
	L -138 31
	L -137 31
	L -136 31
	L -136 32
	L -137 32
	L -138 32
	L -138 33
	L -138 34
	L -137 34
	L -136 34
	L -136 35
	L -137 35
	L -138 35
	L -138 36
	L -137 36
	L -137 35
	L -137 34
	L -136 34
	L -136 35
	L -136 36
	L -135 36
	L -135 35
	L -136 35
	L -137 35
	L -137 34
	L -136 34
	L -135 34
	L -135 33
	L -136 33
	L -136 34
	L -136 35
	L -137 35
	L -137 34
	L -137 33
	L -138 33
	L -139 33
	L -139 34
	L -139 35
	L -140 35
	L -140 34
	L -140 33
	L -141 33
	L -141 32
	L -142 32
	L -143 32
	L -143 31
	L -142 31
	L -141 31
	L -141 30
	L -140 30
	L -140 29
	L -140 28
	L -139 28
	L -139 29
	L -139 30
	L -138 30
	L -137 30
	L -137 29
	L -137 28
	L -136 28
	L -136 29
	L -136 30
	L -135 30
	L -135 29
	L -136 29
	L -137 29
	L -137 28
	L -136 28
	L -135 28
	L -135 27
	L -134 27
	L -134 26
	L -134 25
	L -133 25
	L -133 26
	L -133 27
	L -132 27
	L -132 26
	L -133 26
	L -134 26
	L -134 25
	L -133 25
	L -132 25
	L -132 24
	L -132 23
	L -133 23
	L -134 23
	L -134 22
	L -133 22
	L -132 22
	L -132 21
	L -131 21
	L -131 20
	L -131 19
	L -130 19
	L -130 20
	L -130 21
	L -129 21
	L -129 22
	L -128 22
	L -127 22
	L -127 23
	L -128 23
	L -129 23
	L -129 24
	L -129 25
	L -128 25
	L -127 25
	L -127 26
	L -128 26
	L -129 26
	L -129 27
	L -128 27
	L -128 26
	L -128 25
	L -127 25
	L -127 26
	L -127 27
	L -126 27
	L -126 26
	L -127 26
	L -128 26
	L -128 25
	L -127 25
	L -126 25
	L -126 24
	L -127 24
	L -127 25
	L -127 26
	L -128 26
	L -128 25
	L -128 24
	L -129 24
	L -130 24
	L -130 25
	L -130 26
	L -131 26
	L -131 25
	L -131 24
	L -132 24
	L -132 23
	L -133 23
	L -134 23
	L -134 22
	L -133 22
	L -132 22
	L -132 21
	L -131 21
	L -131 20
	L -131 19
	L -130 19
	L -130 20
	L -130 21
	L -129 21
	L -128 21
	L -128 20
	L -128 19
	L -127 19
	L -127 20
	L -127 21
	L -126 21
	L -126 20
	L -127 20
	L -128 20
	L -128 19
	L -127 19
	L -126 19
	L -126 18
	L -126 17
	L -127 17
	L -128 17
	L -128 16
	L -127 16
	L -126 16
	L -126 15
	L -127 15
	L -127 16
	L -127 17
	L -128 17
	L -128 16
	L -128 15
	L -129 15
	L -130 15
	L -130 16
	L -130 17
	L -131 17
	L -131 16
	L -131 15
	L -132 15
	L -132 14
	L -133 14
	L -134 14
	L -134 13
	L -133 13
	L -132 13
	L -132 12
	L -131 12
	L -131 11
	L -131 10
	L -130 10
	L -130 11
	L -130 12
	L -129 12
	L -128 12
	L -128 11
	L -128 10
	L -127 10
	L -127 11
	L -127 12
	L -126 12
	L -126 11
	L -127 11
	L -128 11
	L -128 10
	L -127 10
	L -126 10
	L -126 9
	L -125 9
	L -125 8
	L -125 7
	L -124 7
	L -124 8
	L -124 9
	L -123 9
	L -123 8
	L -124 8
	L -125 8
	L -125 7
	L -124 7
	L -123 7
	L -123 6
	L -123 5
	L -124 5
	L -125 5
	L -125 4
	L -124 4
	L -123 4
	L -123 3
	L -122 3
	L -122 2
	L -122 1
	L -121 1
	L -121 2
	L -121 3
	L -120 3
	L -120 4
	L -119 4
	L -118 4
	L -118 5
	L -119 5
	L -120 5
	L -120 6
	L -120 7
	L -119 7
	L -118 7
	L -118 8
	L -119 8
	L -120 8
	L -120 9
	L -119 9
	L -119 8
	L -119 7
	L -118 7
	L -118 8
	L -118 9
	L -117 9
	L -117 10
	L -116 10
	L -115 10
	L -115 11
	L -116 11
	L -117 11
	L -117 12
	L -116 12
	L -116 11
	L -116 10
	L -115 10
	L -115 11
	L -115 12
	L -114 12
	L -113 12
	L -113 11
	L -113 10
	L -112 10
	L -112 11
	L -112 12
	L -111 12
	L -111 13
	L -110 13
	L -109 13
	L -109 14
	L -110 14
	L -111 14
	L -111 15
	L -112 15
	L -112 16
	L -112 17
	L -113 17
	L -113 16
	L -113 15
	L -114 15
	L -115 15
	L -115 16
	L -115 17
	L -116 17
	L -116 16
	L -116 15
	L -117 15
	L -117 16
	L -116 16
	L -115 16
	L -115 17
	L -116 17
	L -117 17
	L -117 18
	L -117 19
	L -116 19
	L -115 19
	L -115 20
	L -116 20
	L -117 20
	L -117 21
	L -116 21
	L -116 20
	L -116 19
	L -115 19
	L -115 20
	L -115 21
	L -114 21
	L -113 21
	L -113 20
	L -113 19
	L -112 19
	L -112 20
	L -112 21
	L -111 21
	L -111 22
	L -110 22
	L -109 22
	L -109 23
	L -110 23
	L -111 23
	L -111 24
	L -112 24
	L -112 25
	L -112 26
	L -113 26
	L -113 25
	L -113 24
	L -114 24
	L -115 24
	L -115 25
	L -115 26
	L -116 26
	L -116 25
	L -116 24
	L -117 24
	L -117 25
	L -116 25
	L -115 25
	L -115 26
	L -116 26
	L -117 26
	L -117 27
	L -116 27
	L -116 26
	L -116 25
	L -115 25
	L -115 26
	L -115 27
	L -114 27
	L -114 26
	L -115 26
	L -116 26
	L -116 25
	L -115 25
	L -114 25
	L -114 24
	L -114 23
	L -115 23
	L -116 23
	L -116 22
	L -115 22
	L -114 22
	L -114 21
	L -113 21
	L -113 20
	L -113 19
	L -112 19
	L -112 20
	L -112 21
	L -111 21
	L -111 22
	L -110 22
	L -109 22
	L -109 23
	L -110 23
	L -111 23
	L -111 24
	L -111 25
	L -110 25
	L -109 25
	L -109 26
	L -110 26
	L -111 26
	L -111 27
	L -110 27
	L -110 26
	L -110 25
	L -109 25
	L -109 26
	L -109 27
	L -108 27
	L -107 27
	L -107 26
	L -107 25
	L -106 25
	L -106 26
	L -106 27
	L -105 27
	L -105 26
	L -106 26
	L -107 26
	L -107 25
	L -106 25
	L -105 25
	L -105 24
	L -105 23
	L -106 23
	L -107 23
	L -107 22
	L -106 22
	L -105 22
	L -105 21
	L -104 21
	L -104 20
	L -104 19
	L -103 19
	L -103 20
	L -103 21
	L -102 21
	L -102 22
	L -101 22
	L -100 22
	L -100 23
	L -101 23
	L -102 23
	L -102 24
	L -102 25
	L -101 25
	L -100 25
	L -100 26
	L -101 26
	L -102 26
	L -102 27
	L -101 27
	L -101 26
	L -101 25
	L -100 25
	L -100 26
	L -100 27
	L -99 27
	L -99 26
	L -100 26
	L -101 26
	L -101 25
	L -100 25
	L -99 25
	L -99 24
	L -100 24
	L -100 25
	L -100 26
	L -101 26
	L -101 25
	L -101 24
	L -102 24
	L -103 24
	L -103 25
	L -103 26
	L -104 26
	L -104 25
	L -104 24
	L -105 24
	L -105 23
	L -106 23
	L -107 23
	L -107 22
	L -106 22
	L -105 22
	L -105 21
	L -104 21
	L -104 20
	L -104 19
	L -103 19
	L -103 20
	L -103 21
	L -102 21
	L -101 21
	L -101 20
	L -101 19
	L -100 19
	L -100 20
	L -100 21
	L -99 21
	L -99 20
	L -100 20
	L -101 20
	L -101 19
	L -100 19
	L -99 19
	L -99 18
	L -99 17
	L -100 17
	L -101 17
	L -101 16
	L -100 16
	L -99 16
	L -99 15
	L -100 15
	L -100 16
	L -100 17
	L -101 17
	L -101 16
	L -101 15
	L -102 15
	L -103 15
	L -103 16
	L -103 17
	L -104 17
	L -104 16
	L -104 15
	L -105 15
	L -105 14
	L -106 14
	L -107 14
	L -107 13
	L -106 13
	L -105 13
	L -105 12
	L -104 12
	L -104 11
	L -104 10
	L -103 10
	L -103 11
	L -103 12
	L -102 12
	L -101 12
	L -101 11
	L -101 10
	L -100 10
	L -100 11
	L -100 12
	L -99 12
	L -99 11
	L -100 11
	L -101 11
	L -101 10
	L -100 10
	L -99 10
	L -99 9
	L -98 9
	L -98 8
	L -98 7
	L -97 7
	L -97 8
	L -97 9
	L -96 9
	L -96 8
	L -97 8
	L -98 8
	L -98 7
	L -97 7
	L -96 7
	L -96 6
	L -96 5
	L -97 5
	L -98 5
	L -98 4
	L -97 4
	L -96 4
	L -96 3
	L -95 3
	L -95 2
	L -95 1
	L -94 1
	L -94 2
	L -94 3
	L -93 3
	L -93 4
	L -92 4
	L -91 4
	L -91 5
	L -92 5
	L -93 5
	L -93 6
	L -93 7
	L -92 7
	L -91 7
	L -91 8
	L -92 8
	L -93 8
	L -93 9
	L -92 9
	L -92 8
	L -92 7
	L -91 7
	L -91 8
	L -91 9
	L -90 9
	L -90 10
	L -89 10
	L -88 10
	L -88 11
	L -89 11
	L -90 11
	L -90 12
	L -89 12
	L -89 11
	L -89 10
	L -88 10
	L -88 11
	L -88 12
	L -87 12
	L -86 12
	L -86 11
	L -86 10
	L -85 10
	L -85 11
	L -85 12
	L -84 12
	L -84 13
	L -83 13
	L -82 13
	L -82 14
	L -83 14
	L -84 14
	L -84 15
	L -85 15
	L -85 16
	L -85 17
	L -86 17
	L -86 16
	L -86 15
	L -87 15
	L -88 15
	L -88 16
	L -88 17
	L -89 17
	L -89 16
	L -89 15
	L -90 15
	L -90 16
	L -89 16
	L -88 16
	L -88 17
	L -89 17
	L -90 17
	L -90 18
	L -90 19
	L -89 19
	L -88 19
	L -88 20
	L -89 20
	L -90 20
	L -90 21
	L -89 21
	L -89 20
	L -89 19
	L -88 19
	L -88 20
	L -88 21
	L -87 21
	L -86 21
	L -86 20
	L -86 19
	L -85 19
	L -85 20
	L -85 21
	L -84 21
	L -84 22
	L -83 22
	L -82 22
	L -82 23
	L -83 23
	L -84 23
	L -84 24
	L -85 24
	L -85 25
	L -85 26
	L -86 26
	L -86 25
	L -86 24
	L -87 24
	L -88 24
	L -88 25
	L -88 26
	L -89 26
	L -89 25
	L -89 24
	L -90 24
	L -90 25
	L -89 25
	L -88 25
	L -88 26
	L -89 26
	L -90 26
	L -90 27
	L -89 27
	L -89 26
	L -89 25
	L -88 25
	L -88 26
	L -88 27
	L -87 27
	L -87 26
	L -88 26
	L -89 26
	L -89 25
	L -88 25
	L -87 25
	L -87 24
	L -87 23
	L -88 23
	L -89 23
	L -89 22
	L -88 22
	L -87 22
	L -87 21
	L -86 21
	L -86 20
	L -86 19
	L -85 19
	L -85 20
	L -85 21
	L -84 21
	L -84 22
	L -83 22
	L -82 22
	L -82 23
	L -83 23
	L -84 23
	L -84 24
	L -84 25
	L -83 25
	L -82 25
	L -82 26
	L -83 26
	L -84 26
	L -84 27
	L -83 27
	L -83 26
	L -83 25
	L -82 25
	L -82 26
	L -82 27
	L -81 27
	L -81 26
	L -82 26
	L -83 26
	L -83 25
	L -82 25
	L -81 25
	L -81 24
	L -82 24
	L -82 25
	L -82 26
	L -83 26
	L -83 25
	L -83 24
	L -84 24
	L -85 24
	L -85 25
	L -85 26
	L -86 26
	L -86 25
	L -86 24
	L -87 24
	L -87 23
	L -88 23
	L -89 23
	L -89 22
	L -88 22
	L -87 22
	L -87 21
	L -86 21
	L -86 20
	L -86 19
	L -85 19
	L -85 20
	L -85 21
	L -84 21
	L -83 21
	L -83 20
	L -83 19
	L -82 19
	L -82 20
	L -82 21
	L -81 21
	L -81 20
	L -82 20
	L -83 20
	L -83 19
	L -82 19
	L -81 19
	L -81 18
	L -82 18
	L -82 19
	L -82 20
	L -83 20
	L -83 19
	L -83 18
	L -84 18
	L -84 19
	L -83 19
	L -82 19
	L -82 20
	L -83 20
	L -84 20
	L -84 21
	L -84 22
	L -83 22
	L -82 22
	L -82 23
	L -83 23
	L -84 23
	L -84 24
	L -85 24
	L -85 25
	L -85 26
	L -86 26
	L -86 25
	L -86 24
	L -87 24
	L -87 23
	L -88 23
	L -89 23
	L -89 22
	L -88 22
	L -87 22
	L -87 21
	L -87 20
	L -88 20
	L -89 20
	L -89 19
	L -88 19
	L -87 19
	L -87 18
	L -88 18
	L -88 19
	L -88 20
	L -89 20
	L -89 19
	L -89 18
	L -90 18
	L -91 18
	L -91 19
	L -91 20
	L -92 20
	L -92 19
	L -92 18
	L -93 18
	L -93 19
	L -92 19
	L -91 19
	L -91 20
	L -92 20
	L -93 20
	L -93 21
	L -93 22
	L -92 22
	L -91 22
	L -91 23
	L -92 23
	L -93 23
	L -93 24
	L -94 24
	L -94 25
	L -94 26
	L -95 26
	L -95 25
	L -95 24
	L -96 24
	L -96 23
	L -97 23
	L -98 23
	L -98 22
	L -97 22
	L -96 22
	L -96 21
	L -96 20
	L -97 20
	L -98 20
	L -98 19
	L -97 19
	L -96 19
	L -96 18
	L -97 18
	L -97 19
	L -97 20
	L -98 20
	L -98 19
	L -98 18
	L -99 18
	L -99 17
	L -100 17
	L -101 17
	L -101 16
	L -100 16
	L -99 16
	L -99 15
	L -100 15
	L -100 16
	L -100 17
	L -101 17
	L -101 16
	L -101 15
	L -102 15
	L -103 15
	L -103 16
	L -103 17
	L -104 17
	L -104 16
	L -104 15
	L -105 15
	L -105 14
	L -106 14
	L -107 14
	L -107 13
	L -106 13
	L -105 13
	L -105 12
	L -104 12
	L -104 11
	L -104 10
	L -103 10
	L -103 11
	L -103 12
	L -102 12
	L -101 12
	L -101 11
	L -101 10
	L -100 10
	L -100 11
	L -100 12
	L -99 12
	L -99 11
	L -100 11
	L -101 11
	L -101 10
	L -100 10
	L -99 10
	L -99 9
	L -98 9
	L -98 8
	L -98 7
	L -97 7
	L -97 8
	L -97 9
	L -96 9
	L -96 8
	L -97 8
	L -98 8
	L -98 7
	L -97 7
	L -96 7
	L -96 6
	L -96 5
	L -97 5
	L -98 5
	L -98 4
	L -97 4
	L -96 4
	L -96 3
	L -95 3
	L -95 2
	L -95 1
	L -94 1
	L -94 2
	L -94 3
	L -93 3
	L -93 4
	L -92 4
	L -91 4
	L -91 5
	L -92 5
	L -93 5
	L -93 6
	L -93 7
	L -92 7
	L -91 7
	L -91 8
	L -92 8
	L -93 8
	L -93 9
	L -92 9
	L -92 8
	L -92 7
	L -91 7
	L -91 8
	L -91 9
	L -90 9
	L -89 9
	L -89 8
	L -89 7
	L -88 7
	L -88 8
	L -88 9
	L -87 9
	L -87 8
	L -88 8
	L -89 8
	L -89 7
	L -88 7
	L -87 7
	L -87 6
	L -87 5
	L -88 5
	L -89 5
	L -89 4
	L -88 4
	L -87 4
	L -87 3
	L -86 3
	L -86 2
	L -86 1
	L -85 1
	L -85 2
	L -85 3
	L -84 3
	L -84 4
	L -83 4
	L -82 4
	L -82 5
	L -83 5
	L -84 5
	L -84 6
	L -84 7
	L -83 7
	L -82 7
	L -82 8
	L -83 8
	L -84 8
	L -84 9
	L -83 9
	L -83 8
	L -83 7
	L -82 7
	L -82 8
	L -82 9
	L -81 9
	L -81 8
	L -82 8
	L -83 8
	L -83 7
	L -82 7
	L -81 7
	L -81 6
	L -82 6
	L -82 7
	L -82 8
	L -83 8
	L -83 7
	L -83 6
	L -84 6
	L -85 6
	L -85 7
	L -85 8
	L -86 8
	L -86 7
	L -86 6
	L -87 6
	L -87 5
	L -88 5
	L -89 5
	L -89 4
	L -88 4
	L -87 4
	L -87 3
	L -86 3
	L -86 2
	L -86 1
	L -85 1
	L -85 2
	L -85 3
	L -84 3
	L -83 3
	L -83 2
	L -83 1
	L -82 1
	L -82 2
	L -82 3
	L -81 3
	L -81 2
	L -82 2
	L -83 2
	L -83 1
	L -82 1
	L -81 1
	L -81 -3.541e-06
	L -80 -3.409e-06
	L -80 -1
	L -80 -2
	L -79 -2
	L -79 -1
	L -79 -3.278e-06
	L -78 -3.147e-06
	L -78 -1
	L -79 -1
	L -80 -1
	L -80 -2
	L -79 -2
	L -78 -2
	L -78 -3
	L -78 -4
	L -79 -4
	L -80 -4
	L -80 -5
	L -79 -5
	L -78 -5
	L -78 -6
	L -77 -6
	L -77 -7
	L -77 -8
	L -76 -8
	L -76 -7
	L -76 -6
	L -75 -6
	L -75 -5
	L -74 -5
	L -73 -5
	L -73 -4
	L -74 -4
	L -75 -4
	L -75 -3
	L -75 -2
	L -74 -2
	L -73 -2
	L -73 -1
	L -74 -1
	L -75 -1
	L -75 -2.754e-06
	L -74 -2.623e-06
	L -74 -1
	L -74 -2
	L -73 -2
	L -73 -1
	L -73 -2.492e-06
	L -72 -2.36e-06
	L -72 -1
	L -73 -1
	L -74 -1
	L -74 -2
	L -73 -2
	L -72 -2
	L -72 -3
	L -73 -3
	L -73 -2
	L -73 -1
	L -74 -1
	L -74 -2
	L -74 -3
	L -75 -3
	L -76 -3
	L -76 -2
	L -76 -1
	L -77 -1
	L -77 -2
	L -77 -3
	L -78 -3
	L -78 -4
	L -79 -4
	L -80 -4
	L -80 -5
	L -79 -5
	L -78 -5
	L -78 -6
	L -77 -6
	L -77 -7
	L -77 -8
	L -76 -8
	L -76 -7
	L -76 -6
	L -75 -6
	L -74 -6
	L -74 -7
	L -74 -8
	L -73 -8
	L -73 -7
	L -73 -6
	L -72 -6
	L -72 -7
	L -73 -7
	L -74 -7
	L -74 -8
	L -73 -8
	L -72 -8
	L -72 -9
	L -72 -10
	L -73 -10
	L -74 -10
	L -74 -11
	L -73 -11
	L -72 -11
	L -72 -12
	L -73 -12
	L -73 -11
	L -73 -10
	L -74 -10
	L -74 -11
	L -74 -12
	L -75 -12
	L -76 -12
	L -76 -11
	L -76 -10
	L -77 -10
	L -77 -11
	L -77 -12
	L -78 -12
	L -78 -13
	L -79 -13
	L -80 -13
	L -80 -14
	L -79 -14
	L -78 -14
	L -78 -15
	L -77 -15
	L -77 -16
	L -77 -17
	L -76 -17
	L -76 -16
	L -76 -15
	L -75 -15
	L -74 -15
	L -74 -16
	L -74 -17
	L -73 -17
	L -73 -16
	L -73 -15
	L -72 -15
	L -72 -16
	L -73 -16
	L -74 -16
	L -74 -17
	L -73 -17
	L -72 -17
	L -72 -18
	L -71 -18
	L -71 -19
	L -71 -20
	L -70 -20
	L -70 -19
	L -70 -18
	L -69 -18
	L -69 -19
	L -70 -19
	L -71 -19
	L -71 -20
	L -70 -20
	L -69 -20
	L -69 -21
	L -69 -22
	L -70 -22
	L -71 -22
	L -71 -23
	L -70 -23
	L -69 -23
	L -69 -24
	L -68 -24
	L -68 -25
	L -68 -26
	L -67 -26
	L -67 -25
	L -67 -24
	L -66 -24
	L -66 -23
	L -65 -23
	L -64 -23
	L -64 -22
	L -65 -22
	L -66 -22
	L -66 -21
	L -66 -20
	L -65 -20
	L -64 -20
	L -64 -19
	L -65 -19
	L -66 -19
	L -66 -18
	L -65 -18
	L -65 -19
	L -65 -20
	L -64 -20
	L -64 -19
	L -64 -18
	L -63 -18
	L -63 -17
	L -62 -17
	L -61 -17
	L -61 -16
	L -62 -16
	L -63 -16
	L -63 -15
	L -62 -15
	L -62 -16
	L -62 -17
	L -61 -17
	L -61 -16
	L -61 -15
	L -60 -15
	L -59 -15
	L -59 -16
	L -59 -17
	L -58 -17
	L -58 -16
	L -58 -15
	L -57 -15
	L -57 -14
	L -56 -14
	L -55 -14
	L -55 -13
	L -56 -13
	L -57 -13
	L -57 -12
	L -58 -12
	L -58 -11
	L -58 -10
	L -59 -10
	L -59 -11
	L -59 -12
	L -60 -12
	L -61 -12
	L -61 -11
	L -61 -10
	L -62 -10
	L -62 -11
	L -62 -12
	L -63 -12
	L -63 -11
	L -62 -11
	L -61 -11
	L -61 -10
	L -62 -10
	L -63 -10
	L -63 -9
	L -63 -8
	L -62 -8
	L -61 -8
	L -61 -7
	L -62 -7
	L -63 -7
	L -63 -6
	L -62 -6
	L -62 -7
	L -62 -8
	L -61 -8
	L -61 -7
	L -61 -6
	L -60 -6
	L -59 -6
	L -59 -7
	L -59 -8
	L -58 -8
	L -58 -7
	L -58 -6
	L -57 -6
	L -57 -5
	L -56 -5
	L -55 -5
	L -55 -4
	L -56 -4
	L -57 -4
	L -57 -3
	L -58 -3
	L -58 -2
	L -58 -1
	L -59 -1
	L -59 -2
	L -59 -3
	L -60 -3
	L -61 -3
	L -61 -2
	L -61 -1
	L -62 -1
	L -62 -2
	L -62 -3
	L -63 -3
	L -63 -2
	L -62 -2
	L -61 -2
	L -61 -1
	L -62 -1
	L -63 -1
	L -63 -1.18e-06
	L -62 -1.049e-06
	L -62 -1
	L -62 -2
	L -61 -2
	L -61 -1
	L -61 -9.179e-07
	L -60 -7.868e-07
	L -60 -1
	L -61 -1
	L -62 -1
	L -62 -2
	L -61 -2
	L -60 -2
	L -60 -3
	L -60 -4
	L -61 -4
	L -62 -4
	L -62 -5
	L -61 -5
	L -60 -5
	L -60 -6
	L -59 -6
	L -59 -7
	L -59 -8
	L -58 -8
	L -58 -7
	L -58 -6
	L -57 -6
	L -57 -5
	L -56 -5
	L -55 -5
	L -55 -4
	L -56 -4
	L -57 -4
	L -57 -3
	L -57 -2
	L -56 -2
	L -55 -2
	L -55 -1
	L -56 -1
	L -57 -1
	L -57 -3.934e-07
	L -56 -2.623e-07
	L -56 -1
	L -56 -2
	L -55 -2
	L -55 -1
	L -55 -1.311e-07
	L -54 -2.864e-12
	L -54 -1
	L -55 -1
	L -56 -1
	L -56 -2
	L -55 -2
	L -54 -2
	L -54 -3
	L -55 -3
	L -55 -2
	L -55 -1
	L -56 -1
	L -56 -2
	L -56 -3
	L -57 -3
	L -58 -3
	L -58 -2
	L -58 -1
	L -59 -1
	L -59 -2
	L -59 -3
	L -60 -3
	L -60 -4
	L -61 -4
	L -62 -4
	L -62 -5
	L -61 -5
	L -60 -5
	L -60 -6
	L -59 -6
	L -59 -7
	L -59 -8
	L -58 -8
	L -58 -7
	L -58 -6
	L -57 -6
	L -56 -6
	L -56 -7
	L -56 -8
	L -55 -8
	L -55 -7
	L -55 -6
	L -54 -6
	L -54 -7
	L -55 -7
	L -56 -7
	L -56 -8
	L -55 -8
	L -54 -8
	L -54 -9
	L -55 -9
	L -55 -8
	L -55 -7
	L -56 -7
	L -56 -8
	L -56 -9
	L -57 -9
	L -57 -8
	L -56 -8
	L -55 -8
	L -55 -7
	L -56 -7
	L -57 -7
	L -57 -6
	L -57 -5
	L -56 -5
	L -55 -5
	L -55 -4
	L -56 -4
	L -57 -4
	L -57 -3
	L -58 -3
	L -58 -2
	L -58 -1
	L -59 -1
	L -59 -2
	L -59 -3
	L -60 -3
	L -60 -4
	L -61 -4
	L -62 -4
	L -62 -5
	L -61 -5
	L -60 -5
	L -60 -6
	L -60 -7
	L -61 -7
	L -62 -7
	L -62 -8
	L -61 -8
	L -60 -8
	L -60 -9
	L -61 -9
	L -61 -8
	L -61 -7
	L -62 -7
	L -62 -8
	L -62 -9
	L -63 -9
	L -64 -9
	L -64 -8
	L -64 -7
	L -65 -7
	L -65 -8
	L -65 -9
	L -66 -9
	L -66 -8
	L -65 -8
	L -64 -8
	L -64 -7
	L -65 -7
	L -66 -7
	L -66 -6
	L -66 -5
	L -65 -5
	L -64 -5
	L -64 -4
	L -65 -4
	L -66 -4
	L -66 -3
	L -67 -3
	L -67 -2
	L -67 -1
	L -68 -1
	L -68 -2
	L -68 -3
	L -69 -3
	L -69 -4
	L -70 -4
	L -71 -4
	L -71 -5
	L -70 -5
	L -69 -5
	L -69 -6
	L -69 -7
	L -70 -7
	L -71 -7
	L -71 -8
	L -70 -8
	L -69 -8
	L -69 -9
	L -70 -9
	L -70 -8
	L -70 -7
	L -71 -7
	L -71 -8
	L -71 -9
	L -72 -9
	L -72 -10
	L -73 -10
	L -74 -10
	L -74 -11
	L -73 -11
	L -72 -11
	L -72 -12
	L -73 -12
	L -73 -11
	L -73 -10
	L -74 -10
	L -74 -11
	L -74 -12
	L -75 -12
	L -76 -12
	L -76 -11
	L -76 -10
	L -77 -10
	L -77 -11
	L -77 -12
	L -78 -12
	L -78 -13
	L -79 -13
	L -80 -13
	L -80 -14
	L -79 -14
	L -78 -14
	L -78 -15
	L -77 -15
	L -77 -16
	L -77 -17
	L -76 -17
	L -76 -16
	L -76 -15
	L -75 -15
	L -74 -15
	L -74 -16
	L -74 -17
	L -73 -17
	L -73 -16
	L -73 -15
	L -72 -15
	L -72 -16
	L -73 -16
	L -74 -16
	L -74 -17
	L -73 -17
	L -72 -17
	L -72 -18
	L -71 -18
	L -71 -19
	L -71 -20
	L -70 -20
	L -70 -19
	L -70 -18
	L -69 -18
	L -69 -19
	L -70 -19
	L -71 -19
	L -71 -20
	L -70 -20
	L -69 -20
	L -69 -21
	L -69 -22
	L -70 -22
	L -71 -22
	L -71 -23
	L -70 -23
	L -69 -23
	L -69 -24
	L -68 -24
	L -68 -25
	L -68 -26
	L -67 -26
	L -67 -25
	L -67 -24
	L -66 -24
	L -66 -23
	L -65 -23
	L -64 -23
	L -64 -22
	L -65 -22
	L -66 -22
	L -66 -21
	L -66 -20
	L -65 -20
	L -64 -20
	L -64 -19
	L -65 -19
	L -66 -19
	L -66 -18
	L -65 -18
	L -65 -19
	L -65 -20
	L -64 -20
	L -64 -19
	L -64 -18
	L -63 -18
	L -62 -18
	L -62 -19
	L -62 -20
	L -61 -20
	L -61 -19
	L -61 -18
	L -60 -18
	L -60 -19
	L -61 -19
	L -62 -19
	L -62 -20
	L -61 -20
	L -60 -20
	L -60 -21
	L -60 -22
	L -61 -22
	L -62 -22
	L -62 -23
	L -61 -23
	L -60 -23
	L -60 -24
	L -59 -24
	L -59 -25
	L -59 -26
	L -58 -26
	L -58 -25
	L -58 -24
	L -57 -24
	L -57 -23
	L -56 -23
	L -55 -23
	L -55 -22
	L -56 -22
	L -57 -22
	L -57 -21
	L -57 -20
	L -56 -20
	L -55 -20
	L -55 -19
	L -56 -19
	L -57 -19
	L -57 -18
	L -56 -18
	L -56 -19
	L -56 -20
	L -55 -20
	L -55 -19
	L -55 -18
	L -54 -18
	L -54 -19
	L -55 -19
	L -56 -19
	L -56 -20
	L -55 -20
	L -54 -20
	L -54 -21
	L -55 -21
	L -55 -20
	L -55 -19
	L -56 -19
	L -56 -20
	L -56 -21
	L -57 -21
	L -58 -21
	L -58 -20
	L -58 -19
	L -59 -19
	L -59 -20
	L -59 -21
	L -60 -21
	L -60 -22
	L -61 -22
	L -62 -22
	L -62 -23
	L -61 -23
	L -60 -23
	L -60 -24
	L -59 -24
	L -59 -25
	L -59 -26
	L -58 -26
	L -58 -25
	L -58 -24
	L -57 -24
	L -56 -24
	L -56 -25
	L -56 -26
	L -55 -26
	L -55 -25
	L -55 -24
	L -54 -24
	L -54 -25
	L -55 -25
	L -56 -25
	L -56 -26
	L -55 -26
	L -54 -26
	L -54 -27
	L -54 -28
	L -55 -28
	L -56 -28
	L -56 -29
	L -55 -29
	L -54 -29
	L -54 -30
	L -55 -30
	L -55 -29
	L -55 -28
	L -56 -28
	L -56 -29
	L -56 -30
	L -57 -30
	L -58 -30
	L -58 -29
	L -58 -28
	L -59 -28
	L -59 -29
	L -59 -30
	L -60 -30
	L -60 -31
	L -61 -31
	L -62 -31
	L -62 -32
	L -61 -32
	L -60 -32
	L -60 -33
	L -59 -33
	L -59 -34
	L -59 -35
	L -58 -35
	L -58 -34
	L -58 -33
	L -57 -33
	L -56 -33
	L -56 -34
	L -56 -35
	L -55 -35
	L -55 -34
	L -55 -33
	L -54 -33
	L -54 -34
	L -55 -34
	L -56 -34
	L -56 -35
	L -55 -35
	L -54 -35
	L -54 -36
	L -55 -36
	L -55 -35
	L -55 -34
	L -56 -34
	L -56 -35
	L -56 -36
	L -57 -36
	L -57 -35
	L -56 -35
	L -55 -35
	L -55 -34
	L -56 -34
	L -57 -34
	L -57 -33
	L -57 -32
	L -56 -32
	L -55 -32
	L -55 -31
	L -56 -31
	L -57 -31
	L -57 -30
	L -58 -30
	L -58 -29
	L -58 -28
	L -59 -28
	L -59 -29
	L -59 -30
	L -60 -30
	L -60 -31
	L -61 -31
	L -62 -31
	L -62 -32
	L -61 -32
	L -60 -32
	L -60 -33
	L -60 -34
	L -61 -34
	L -62 -34
	L -62 -35
	L -61 -35
	L -60 -35
	L -60 -36
	L -61 -36
	L -61 -35
	L -61 -34
	L -62 -34
	L -62 -35
	L -62 -36
	L -63 -36
	L -64 -36
	L -64 -35
	L -64 -34
	L -65 -34
	L -65 -35
	L -65 -36
	L -66 -36
	L -66 -35
	L -65 -35
	L -64 -35
	L -64 -34
	L -65 -34
	L -66 -34
	L -66 -33
	L -66 -32
	L -65 -32
	L -64 -32
	L -64 -31
	L -65 -31
	L -66 -31
	L -66 -30
	L -67 -30
	L -67 -29
	L -67 -28
	L -68 -28
	L -68 -29
	L -68 -30
	L -69 -30
	L -69 -31
	L -70 -31
	L -71 -31
	L -71 -32
	L -70 -32
	L -69 -32
	L -69 -33
	L -69 -34
	L -70 -34
	L -71 -34
	L -71 -35
	L -70 -35
	L -69 -35
	L -69 -36
	L -70 -36
	L -70 -35
	L -70 -34
	L -71 -34
	L -71 -35
	L -71 -36
	L -72 -36
	L -72 -37
	L -73 -37
	L -74 -37
	L -74 -38
	L -73 -38
	L -72 -38
	L -72 -39
	L -73 -39
	L -73 -38
	L -73 -37
	L -74 -37
	L -74 -38
	L -74 -39
	L -75 -39
	L -76 -39
	L -76 -38
	L -76 -37
	L -77 -37
	L -77 -38
	L -77 -39
	L -78 -39
	L -78 -40
	L -79 -40
	L -80 -40
	L -80 -41
	L -79 -41
	L -78 -41
	L -78 -42
	L -77 -42
	L -77 -43
	L -77 -44
	L -76 -44
	L -76 -43
	L -76 -42
	L -75 -42
	L -74 -42
	L -74 -43
	L -74 -44
	L -73 -44
	L -73 -43
	L -73 -42
	L -72 -42
	L -72 -43
	L -73 -43
	L -74 -43
	L -74 -44
	L -73 -44
	L -72 -44
	L -72 -45
	L -71 -45
	L -71 -46
	L -71 -47
	L -70 -47
	L -70 -46
	L -70 -45
	L -69 -45
	L -69 -46
	L -70 -46
	L -71 -46
	L -71 -47
	L -70 -47
	L -69 -47
	L -69 -48
	L -69 -49
	L -70 -49
	L -71 -49
	L -71 -50
	L -70 -50
	L -69 -50
	L -69 -51
	L -68 -51
	L -68 -52
	L -68 -53
	L -67 -53
	L -67 -52
	L -67 -51
	L -66 -51
	L -66 -50
	L -65 -50
	L -64 -50
	L -64 -49
	L -65 -49
	L -66 -49
	L -66 -48
	L -66 -47
	L -65 -47
	L -64 -47
	L -64 -46
	L -65 -46
	L -66 -46
	L -66 -45
	L -65 -45
	L -65 -46
	L -65 -47
	L -64 -47
	L -64 -46
	L -64 -45
	L -63 -45
	L -62 -45
	L -62 -46
	L -62 -47
	L -61 -47
	L -61 -46
	L -61 -45
	L -60 -45
	L -60 -46
	L -61 -46
	L -62 -46
	L -62 -47
	L -61 -47
	L -60 -47
	L -60 -48
	L -60 -49
	L -61 -49
	L -62 -49
	L -62 -50
	L -61 -50
	L -60 -50
	L -60 -51
	L -59 -51
	L -59 -52
	L -59 -53
	L -58 -53
	L -58 -52
	L -58 -51
	L -57 -51
	L -57 -50
	L -56 -50
	L -55 -50
	L -55 -49
	L -56 -49
	L -57 -49
	L -57 -48
	L -57 -47
	L -56 -47
	L -55 -47
	L -55 -46
	L -56 -46
	L -57 -46
	L -57 -45
	L -56 -45
	L -56 -46
	L -56 -47
	L -55 -47
	L -55 -46
	L -55 -45
	L -54 -45
	L -54 -46
	L -55 -46
	L -56 -46
	L -56 -47
	L -55 -47
	L -54 -47
	L -54 -48
	L -55 -48
	L -55 -47
	L -55 -46
	L -56 -46
	L -56 -47
	L -56 -48
	L -57 -48
	L -58 -48
	L -58 -47
	L -58 -46
	L -59 -46
	L -59 -47
	L -59 -48
	L -60 -48
	L -60 -49
	L -61 -49
	L -62 -49
	L -62 -50
	L -61 -50
	L -60 -50
	L -60 -51
	L -59 -51
	L -59 -52
	L -59 -53
	L -58 -53
	L -58 -52
	L -58 -51
	L -57 -51
	L -56 -51
	L -56 -52
	L -56 -53
	L -55 -53
	L -55 -52
	L -55 -51
	L -54 -51
	L -54 -52
	L -55 -52
	L -56 -52
	L -56 -53
	L -55 -53
	L -54 -53
	L -54 -54
	L -53 -54
	L -53 -55
	L -53 -56
	L -52 -56
	L -52 -55
	L -52 -54
	L -51 -54
	L -51 -55
	L -52 -55
	L -53 -55
	L -53 -56
	L -52 -56
	L -51 -56
	L -51 -57
	L -51 -58
	L -52 -58
	L -53 -58
	L -53 -59
	L -52 -59
	L -51 -59
	L -51 -60
	L -50 -60
	L -50 -61
	L -50 -62
	L -49 -62
	L -49 -61
	L -49 -60
	L -48 -60
	L -48 -59
	L -47 -59
	L -46 -59
	L -46 -58
	L -47 -58
	L -48 -58
	L -48 -57
	L -48 -56
	L -47 -56
	L -46 -56
	L -46 -55
	L -47 -55
	L -48 -55
	L -48 -54
	L -47 -54
	L -47 -55
	L -47 -56
	L -46 -56
	L -46 -55
	L -46 -54
	L -45 -54
	L -45 -55
	L -46 -55
	L -47 -55
	L -47 -56
	L -46 -56
	L -45 -56
	L -45 -57
	L -46 -57
	L -46 -56
	L -46 -55
	L -47 -55
	L -47 -56
	L -47 -57
	L -48 -57
	L -49 -57
	L -49 -56
	L -49 -55
	L -50 -55
	L -50 -56
	L -50 -57
	L -51 -57
	L -51 -58
	L -52 -58
	L -53 -58
	L -53 -59
	L -52 -59
	L -51 -59
	L -51 -60
	L -50 -60
	L -50 -61
	L -50 -62
	L -49 -62
	L -49 -61
	L -49 -60
	L -48 -60
	L -47 -60
	L -47 -61
	L -47 -62
	L -46 -62
	L -46 -61
	L -46 -60
	L -45 -60
	L -45 -61
	L -46 -61
	L -47 -61
	L -47 -62
	L -46 -62
	L -45 -62
	L -45 -63
	L -45 -64
	L -46 -64
	L -47 -64
	L -47 -65
	L -46 -65
	L -45 -65
	L -45 -66
	L -46 -66
	L -46 -65
	L -46 -64
	L -47 -64
	L -47 -65
	L -47 -66
	L -48 -66
	L -49 -66
	L -49 -65
	L -49 -64
	L -50 -64
	L -50 -65
	L -50 -66
	L -51 -66
	L -51 -67
	L -52 -67
	L -53 -67
	L -53 -68
	L -52 -68
	L -51 -68
	L -51 -69
	L -50 -69
	L -50 -70
	L -50 -71
	L -49 -71
	L -49 -70
	L -49 -69
	L -48 -69
	L -47 -69
	L -47 -70
	L -47 -71
	L -46 -71
	L -46 -70
	L -46 -69
	L -45 -69
	L -45 -70
	L -46 -70
	L -47 -70
	L -47 -71
	L -46 -71
	L -45 -71
	L -45 -72
	L -44 -72
	L -44 -73
	L -44 -74
	L -43 -74
	L -43 -73
	L -43 -72
	L -42 -72
	L -42 -73
	L -43 -73
	L -44 -73
	L -44 -74
	L -43 -74
	L -42 -74
	L -42 -75
	L -42 -76
	L -43 -76
	L -44 -76
	L -44 -77
	L -43 -77
	L -42 -77
	L -42 -78
	L -41 -78
	L -41 -79
	L -41 -80
	L -40 -80
	L -40 -79
	L -40 -78
	L -39 -78
	L -39 -77
	L -38 -77
	L -37 -77
	L -37 -76
	L -38 -76
	L -39 -76
	L -39 -75
	L -39 -74
	L -38 -74
	L -37 -74
	L -37 -73
	L -38 -73
	L -39 -73
	L -39 -72
	L -38 -72
	L -38 -73
	L -38 -74
	L -37 -74
	L -37 -73
	L -37 -72
	L -36 -72
	L -36 -71
	L -35 -71
	L -34 -71
	L -34 -70
	L -35 -70
	L -36 -70
	L -36 -69
	L -35 -69
	L -35 -70
	L -35 -71
	L -34 -71
	L -34 -70
	L -34 -69
	L -33 -69
	L -32 -69
	L -32 -70
	L -32 -71
	L -31 -71
	L -31 -70
	L -31 -69
	L -30 -69
	L -30 -68
	L -29 -68
	L -28 -68
	L -28 -67
	L -29 -67
	L -30 -67
	L -30 -66
	L -31 -66
	L -31 -65
	L -31 -64
	L -32 -64
	L -32 -65
	L -32 -66
	L -33 -66
	L -34 -66
	L -34 -65
	L -34 -64
	L -35 -64
	L -35 -65
	L -35 -66
	L -36 -66
	L -36 -65
	L -35 -65
	L -34 -65
	L -34 -64
	L -35 -64
	L -36 -64
	L -36 -63
	L -36 -62
	L -35 -62
	L -34 -62
	L -34 -61
	L -35 -61
	L -36 -61
	L -36 -60
	L -35 -60
	L -35 -61
	L -35 -62
	L -34 -62
	L -34 -61
	L -34 -60
	L -33 -60
	L -32 -60
	L -32 -61
	L -32 -62
	L -31 -62
	L -31 -61
	L -31 -60
	L -30 -60
	L -30 -59
	L -29 -59
	L -28 -59
	L -28 -58
	L -29 -58
	L -30 -58
	L -30 -57
	L -31 -57
	L -31 -56
	L -31 -55
	L -32 -55
	L -32 -56
	L -32 -57
	L -33 -57
	L -34 -57
	L -34 -56
	L -34 -55
	L -35 -55
	L -35 -56
	L -35 -57
	L -36 -57
	L -36 -56
	L -35 -56
	L -34 -56
	L -34 -55
	L -35 -55
	L -36 -55
	L -36 -54
	L -35 -54
	L -35 -55
	L -35 -56
	L -34 -56
	L -34 -55
	L -34 -54
	L -33 -54
	L -33 -55
	L -34 -55
	L -35 -55
	L -35 -56
	L -34 -56
	L -33 -56
	L -33 -57
	L -33 -58
	L -34 -58
	L -35 -58
	L -35 -59
	L -34 -59
	L -33 -59
	L -33 -60
	L -32 -60
	L -32 -61
	L -32 -62
	L -31 -62
	L -31 -61
	L -31 -60
	L -30 -60
	L -30 -59
	L -29 -59
	L -28 -59
	L -28 -58
	L -29 -58
	L -30 -58
	L -30 -57
	L -30 -56
	L -29 -56
	L -28 -56
	L -28 -55
	L -29 -55
	L -30 -55
	L -30 -54
	L -29 -54
	L -29 -55
	L -29 -56
	L -28 -56
	L -28 -55
	L -28 -54
	L -27 -54
	L -27 -53
	L -26 -53
	L -25 -53
	L -25 -52
	L -26 -52
	L -27 -52
	L -27 -51
	L -26 -51
	L -26 -52
	L -26 -53
	L -25 -53
	L -25 -52
	L -25 -51
	L -24 -51
	L -23 -51
	L -23 -52
	L -23 -53
	L -22 -53
	L -22 -52
	L -22 -51
	L -21 -51
	L -21 -50
	L -20 -50
	L -19 -50
	L -19 -49
	L -20 -49
	L -21 -49
	L -21 -48
	L -22 -48
	L -22 -47
	L -22 -46
	L -23 -46
	L -23 -47
	L -23 -48
	L -24 -48
	L -25 -48
	L -25 -47
	L -25 -46
	L -26 -46
	L -26 -47
	L -26 -48
	L -27 -48
	L -27 -47
	L -26 -47
	L -25 -47
	L -25 -46
	L -26 -46
	L -27 -46
	L -27 -45
	L -26 -45
	L -26 -46
	L -26 -47
	L -25 -47
	L -25 -46
	L -25 -45
	L -24 -45
	L -24 -46
	L -25 -46
	L -26 -46
	L -26 -47
	L -25 -47
	L -24 -47
	L -24 -48
	L -24 -49
	L -25 -49
	L -26 -49
	L -26 -50
	L -25 -50
	L -24 -50
	L -24 -51
	L -23 -51
	L -23 -52
	L -23 -53
	L -22 -53
	L -22 -52
	L -22 -51
	L -21 -51
	L -21 -50
	L -20 -50
	L -19 -50
	L -19 -49
	L -20 -49
	L -21 -49
	L -21 -48
	L -21 -47
	L -20 -47
	L -19 -47
	L -19 -46
	L -20 -46
	L -21 -46
	L -21 -45
	L -20 -45
	L -20 -46
	L -20 -47
	L -19 -47
	L -19 -46
	L -19 -45
	L -18 -45
	L -17 -45
	L -17 -46
	L -17 -47
	L -16 -47
	L -16 -46
	L -16 -45
	L -15 -45
	L -15 -46
	L -16 -46
	L -17 -46
	L -17 -47
	L -16 -47
	L -15 -47
	L -15 -48
	L -15 -49
	L -16 -49
	L -17 -49
	L -17 -50
	L -16 -50
	L -15 -50
	L -15 -51
	L -14 -51
	L -14 -52
	L -14 -53
	L -13 -53
	L -13 -52
	L -13 -51
	L -12 -51
	L -12 -50
	L -11 -50
	L -10 -50
	L -10 -49
	L -11 -49
	L -12 -49
	L -12 -48
	L -12 -47
	L -11 -47
	L -10 -47
	L -10 -46
	L -11 -46
	L -12 -46
	L -12 -45
	L -11 -45
	L -11 -46
	L -11 -47
	L -10 -47
	L -10 -46
	L -10 -45
	L -9 -45
	L -9 -44
	L -8 -44
	L -7 -44
	L -7 -43
	L -8 -43
	L -9 -43
	L -9 -42
	L -8 -42
	L -8 -43
	L -8 -44
	L -7 -44
	L -7 -43
	L -7 -42
	L -6 -42
	L -5 -42
	L -5 -43
	L -5 -44
	L -4 -44
	L -4 -43
	L -4 -42
	L -3 -42
	L -3 -41
	L -2 -41
	L -1 -41
	L -1 -40
	L -2 -40
	L -3 -40
	L -3 -39
	L -4 -39
	L -4 -38
	L -4 -37
	L -5 -37
	L -5 -38
	L -5 -39
	L -6 -39
	L -7 -39
	L -7 -38
	L -7 -37
	L -8 -37
	L -8 -38
	L -8 -39
	L -9 -39
	L -9 -38
	L -8 -38
	L -7 -38
	L -7 -37
	L -8 -37
	L -9 -37
	L -9 -36
	L -10 -36
	L -10 -35
	L -10 -34
	L -11 -34
	L -11 -35
	L -11 -36
	L -12 -36
	L -12 -35
	L -11 -35
	L -10 -35
	L -10 -34
	L -11 -34
	L -12 -34
	L -12 -33
	L -12 -32
	L -11 -32
	L -10 -32
	L -10 -31
	L -11 -31
	L -12 -31
	L -12 -30
	L -13 -30
	L -13 -29
	L -13 -28
	L -14 -28
	L -14 -29
	L -14 -30
	L -15 -30
	L -15 -31
	L -16 -31
	L -17 -31
	L -17 -32
	L -16 -32
	L -15 -32
	L -15 -33
	L -15 -34
	L -16 -34
	L -17 -34
	L -17 -35
	L -16 -35
	L -15 -35
	L -15 -36
	L -16 -36
	L -16 -35
	L -16 -34
	L -17 -34
	L -17 -35
	L -17 -36
	L -18 -36
	L -19 -36
	L -19 -35
	L -19 -34
	L -20 -34
	L -20 -35
	L -20 -36
	L -21 -36
	L -21 -35
	L -20 -35
	L -19 -35
	L -19 -34
	L -20 -34
	L -21 -34
	L -21 -33
	L -21 -32
	L -20 -32
	L -19 -32
	L -19 -31
	L -20 -31
	L -21 -31
	L -21 -30
	L -22 -30
	L -22 -29
	L -22 -28
	L -23 -28
	L -23 -29
	L -23 -30
	L -24 -30
	L -24 -31
	L -25 -31
	L -26 -31
	L -26 -32
	L -25 -32
	L -24 -32
	L -24 -33
	L -24 -34
	L -25 -34
	L -26 -34
	L -26 -35
	L -25 -35
	L -24 -35
	L -24 -36
	L -25 -36
	L -25 -35
	L -25 -34
	L -26 -34
	L -26 -35
	L -26 -36
	L -27 -36
	L -27 -35
	L -26 -35
	L -25 -35
	L -25 -34
	L -26 -34
	L -27 -34
	L -27 -33
	L -26 -33
	L -26 -34
	L -26 -35
	L -25 -35
	L -25 -34
	L -25 -33
	L -24 -33
	L -23 -33
	L -23 -34
	L -23 -35
	L -22 -35
	L -22 -34
	L -22 -33
	L -21 -33
	L -21 -32
	L -20 -32
	L -19 -32
	L -19 -31
	L -20 -31
	L -21 -31
	L -21 -30
	L -22 -30
	L -22 -29
	L -22 -28
	L -23 -28
	L -23 -29
	L -23 -30
	L -24 -30
	L -25 -30
	L -25 -29
	L -25 -28
	L -26 -28
	L -26 -29
	L -26 -30
	L -27 -30
	L -27 -29
	L -26 -29
	L -25 -29
	L -25 -28
	L -26 -28
	L -27 -28
	L -27 -27
	L -27 -26
	L -26 -26
	L -25 -26
	L -25 -25
	L -26 -25
	L -27 -25
	L -27 -24
	L -26 -24
	L -26 -25
	L -26 -26
	L -25 -26
	L -25 -25
	L -25 -24
	L -24 -24
	L -23 -24
	L -23 -25
	L -23 -26
	L -22 -26
	L -22 -25
	L -22 -24
	L -21 -24
	L -21 -23
	L -20 -23
	L -19 -23
	L -19 -22
	L -20 -22
	L -21 -22
	L -21 -21
	L -22 -21
	L -22 -20
	L -22 -19
	L -23 -19
	L -23 -20
	L -23 -21
	L -24 -21
	L -25 -21
	L -25 -20
	L -25 -19
	L -26 -19
	L -26 -20
	L -26 -21
	L -27 -21
	L -27 -20
	L -26 -20
	L -25 -20
	L -25 -19
	L -26 -19
	L -27 -19
	L -27 -18
	L -26 -18
	L -26 -19
	L -26 -20
	L -25 -20
	L -25 -19
	L -25 -18
	L -24 -18
	L -24 -19
	L -25 -19
	L -26 -19
	L -26 -20
	L -25 -20
	L -24 -20
	L -24 -21
	L -24 -22
	L -25 -22
	L -26 -22
	L -26 -23
	L -25 -23
	L -24 -23
	L -24 -24
	L -23 -24
	L -23 -25
	L -23 -26
	L -22 -26
	L -22 -25
	L -22 -24
	L -21 -24
	L -21 -23
	L -20 -23
	L -19 -23
	L -19 -22
	L -20 -22
	L -21 -22
	L -21 -21
	L -21 -20
	L -20 -20
	L -19 -20
	L -19 -19
	L -20 -19
	L -21 -19
	L -21 -18
	L -20 -18
	L -20 -19
	L -20 -20
	L -19 -20
	L -19 -19
	L -19 -18
	L -18 -18
	L -17 -18
	L -17 -19
	L -17 -20
	L -16 -20
	L -16 -19
	L -16 -18
	L -15 -18
	L -15 -19
	L -16 -19
	L -17 -19
	L -17 -20
	L -16 -20
	L -15 -20
	L -15 -21
	L -15 -22
	L -16 -22
	L -17 -22
	L -17 -23
	L -16 -23
	L -15 -23
	L -15 -24
	L -14 -24
	L -14 -25
	L -14 -26
	L -13 -26
	L -13 -25
	L -13 -24
	L -12 -24
	L -12 -23
	L -11 -23
	L -10 -23
	L -10 -22
	L -11 -22
	L -12 -22
	L -12 -21
	L -12 -20
	L -11 -20
	L -10 -20
	L -10 -19
	L -11 -19
	L -12 -19
	L -12 -18
	L -11 -18
	L -11 -19
	L -11 -20
	L -10 -20
	L -10 -19
	L -10 -18
	L -9 -18
	L -9 -17
	L -8 -17
	L -7 -17
	L -7 -16
	L -8 -16
	L -9 -16
	L -9 -15
	L -8 -15
	L -8 -16
	L -8 -17
	L -7 -17
	L -7 -16
	L -7 -15
	L -6 -15
	L -5 -15
	L -5 -16
	L -5 -17
	L -4 -17
	L -4 -16
	L -4 -15
	L -3 -15
	L -3 -14
	L -2 -14
	L -1 -14
	L -1 -13
	L -2 -13
	L -3 -13
	L -3 -12
	L -4 -12
	L -4 -11
	L -4 -10
	L -5 -10
	L -5 -11
	L -5 -12
	L -6 -12
	L -7 -12
	L -7 -11
	L -7 -10
	L -8 -10
	L -8 -11
	L -8 -12
	L -9 -12
	L -9 -11
	L -8 -11
	L -7 -11
	L -7 -10
	L -8 -10
	L -9 -10
	L -9 -9
	L -10 -9
	L -10 -8
	L -10 -7
	L -11 -7
	L -11 -8
	L -11 -9
	L -12 -9
	L -12 -8
	L -11 -8
	L -10 -8
	L -10 -7
	L -11 -7
	L -12 -7
	L -12 -6
	L -12 -5
	L -11 -5
	L -10 -5
	L -10 -4
	L -11 -4
	L -12 -4
	L -12 -3
	L -13 -3
	L -13 -2
	L -13 -1
	L -14 -1
	L -14 -2
	L -14 -3
	L -15 -3
	L -15 -4
	L -16 -4
	L -17 -4
	L -17 -5
	L -16 -5
	L -15 -5
	L -15 -6
	L -15 -7
	L -16 -7
	L -17 -7
	L -17 -8
	L -16 -8
	L -15 -8
	L -15 -9
	L -16 -9
	L -16 -8
	L -16 -7
	L -17 -7
	L -17 -8
	L -17 -9
	L -18 -9
	L -19 -9
	L -19 -8
	L -19 -7
	L -20 -7
	L -20 -8
	L -20 -9
	L -21 -9
	L -21 -8
	L -20 -8
	L -19 -8
	L -19 -7
	L -20 -7
	L -21 -7
	L -21 -6
	L -21 -5
	L -20 -5
	L -19 -5
	L -19 -4
	L -20 -4
	L -21 -4
	L -21 -3
	L -22 -3
	L -22 -2
	L -22 -1
	L -23 -1
	L -23 -2
	L -23 -3
	L -24 -3
	L -24 -4
	L -25 -4
	L -26 -4
	L -26 -5
	L -25 -5
	L -24 -5
	L -24 -6
	L -24 -7
	L -25 -7
	L -26 -7
	L -26 -8
	L -25 -8
	L -24 -8
	L -24 -9
	L -25 -9
	L -25 -8
	L -25 -7
	L -26 -7
	L -26 -8
	L -26 -9
	L -27 -9
	L -27 -8
	L -26 -8
	L -25 -8
	L -25 -7
	L -26 -7
	L -27 -7
	L -27 -6
	L -26 -6
	L -26 -7
	L -26 -8
	L -25 -8
	L -25 -7
	L -25 -6
	L -24 -6
	L -23 -6
	L -23 -7
	L -23 -8
	L -22 -8
	L -22 -7
	L -22 -6
	L -21 -6
	L -21 -5
	L -20 -5
	L -19 -5
	L -19 -4
	L -20 -4
	L -21 -4
	L -21 -3
	L -22 -3
	L -22 -2
	L -22 -1
	L -23 -1
	L -23 -2
	L -23 -3
	L -24 -3
	L -25 -3
	L -25 -2
	L -25 -1
	L -26 -1
	L -26 -2
	L -26 -3
	L -27 -3
	L -27 -2
	L -26 -2
	L -25 -2
	L -25 -1
	L -26 -1
	L -27 -1
	L -27 3.541e-06
	L -26 3.672e-06
	L -26 -1
	L -26 -2
	L -25 -2
	L -25 -1
	L -25 3.803e-06
	L -24 3.934e-06
	L -24 -1
	L -25 -1
	L -26 -1
	L -26 -2
	L -25 -2
	L -24 -2
	L -24 -3
	L -24 -4
	L -25 -4
	L -26 -4
	L -26 -5
	L -25 -5
	L -24 -5
	L -24 -6
	L -23 -6
	L -23 -7
	L -23 -8
	L -22 -8
	L -22 -7
	L -22 -6
	L -21 -6
	L -21 -5
	L -20 -5
	L -19 -5
	L -19 -4
	L -20 -4
	L -21 -4
	L -21 -3
	L -21 -2
	L -20 -2
	L -19 -2
	L -19 -1
	L -20 -1
	L -21 -1
	L -21 4.327e-06
	L -20 4.459e-06
	L -20 -1
	L -20 -2
	L -19 -2
	L -19 -1
	L -19 4.59e-06
	L -18 4.721e-06
	L -18 -1
	L -19 -1
	L -20 -1
	L -20 -2
	L -19 -2
	L -18 -2
	L -18 -3
	L -19 -3
	L -19 -2
	L -19 -1
	L -20 -1
	L -20 -2
	L -20 -3
	L -21 -3
	L -22 -3
	L -22 -2
	L -22 -1
	L -23 -1
	L -23 -2
	L -23 -3
	L -24 -3
	L -24 -4
	L -25 -4
	L -26 -4
	L -26 -5
	L -25 -5
	L -24 -5
	L -24 -6
	L -23 -6
	L -23 -7
	L -23 -8
	L -22 -8
	L -22 -7
	L -22 -6
	L -21 -6
	L -20 -6
	L -20 -7
	L -20 -8
	L -19 -8
	L -19 -7
	L -19 -6
	L -18 -6
	L -18 -7
	L -19 -7
	L -20 -7
	L -20 -8
	L -19 -8
	L -18 -8
	L -18 -9
	L -18 -10
	L -19 -10
	L -20 -10
	L -20 -11
	L -19 -11
	L -18 -11
	L -18 -12
	L -19 -12
	L -19 -11
	L -19 -10
	L -20 -10
	L -20 -11
	L -20 -12
	L -21 -12
	L -22 -12
	L -22 -11
	L -22 -10
	L -23 -10
	L -23 -11
	L -23 -12
	L -24 -12
	L -24 -13
	L -25 -13
	L -26 -13
	L -26 -14
	L -25 -14
	L -24 -14
	L -24 -15
	L -23 -15
	L -23 -16
	L -23 -17
	L -22 -17
	L -22 -16
	L -22 -15
	L -21 -15
	L -20 -15
	L -20 -16
	L -20 -17
	L -19 -17
	L -19 -16
	L -19 -15
	L -18 -15
	L -18 -16
	L -19 -16
	L -20 -16
	L -20 -17
	L -19 -17
	L -18 -17
	L -18 -18
	L -17 -18
	L -17 -19
	L -17 -20
	L -16 -20
	L -16 -19
	L -16 -18
	L -15 -18
	L -15 -19
	L -16 -19
	L -17 -19
	L -17 -20
	L -16 -20
	L -15 -20
	L -15 -21
	L -15 -22
	L -16 -22
	L -17 -22
	L -17 -23
	L -16 -23
	L -15 -23
	L -15 -24
	L -14 -24
	L -14 -25
	L -14 -26
	L -13 -26
	L -13 -25
	L -13 -24
	L -12 -24
	L -12 -23
	L -11 -23
	L -10 -23
	L -10 -22
	L -11 -22
	L -12 -22
	L -12 -21
	L -12 -20
	L -11 -20
	L -10 -20
	L -10 -19
	L -11 -19
	L -12 -19
	L -12 -18
	L -11 -18
	L -11 -19
	L -11 -20
	L -10 -20
	L -10 -19
	L -10 -18
	L -9 -18
	L -9 -17
	L -8 -17
	L -7 -17
	L -7 -16
	L -8 -16
	L -9 -16
	L -9 -15
	L -8 -15
	L -8 -16
	L -8 -17
	L -7 -17
	L -7 -16
	L -7 -15
	L -6 -15
	L -5 -15
	L -5 -16
	L -5 -17
	L -4 -17
	L -4 -16
	L -4 -15
	L -3 -15
	L -3 -14
	L -2 -14
	L -1 -14
	L -1 -13
	L -2 -13
	L -3 -13
	L -3 -12
	L -4 -12
	L -4 -11
	L -4 -10
	L -5 -10
	L -5 -11
	L -5 -12
	L -6 -12
	L -7 -12
	L -7 -11
	L -7 -10
	L -8 -10
	L -8 -11
	L -8 -12
	L -9 -12
	L -9 -11
	L -8 -11
	L -7 -11
	L -7 -10
	L -8 -10
	L -9 -10
	L -9 -9
	L -9 -8
	L -8 -8
	L -7 -8
	L -7 -7
	L -8 -7
	L -9 -7
	L -9 -6
	L -8 -6
	L -8 -7
	L -8 -8
	L -7 -8
	L -7 -7
	L -7 -6
	L -6 -6
	L -5 -6
	L -5 -7
	L -5 -8
	L -4 -8
	L -4 -7
	L -4 -6
	L -3 -6
	L -3 -5
	L -2 -5
	L -1 -5
	L -1 -4
	L -2 -4
	L -3 -4
	L -3 -3
	L -4 -3
	L -4 -2
	L -4 -1
	L -5 -1
	L -5 -2
	L -5 -3
	L -6 -3
	L -7 -3
	L -7 -2
	L -7 -1
	L -8 -1
	L -8 -2
	L -8 -3
	L -9 -3
	L -9 -2
	L -8 -2
	L -7 -2
	L -7 -1
	L -8 -1
	L -9 -1
	L -9 5.901e-06
	L -8 6.032e-06
	L -8 -1
	L -8 -2
	L -7 -2
	L -7 -1
	L -7 6.163e-06
	L -6 6.294e-06
	L -6 -1
	L -7 -1
	L -8 -1
	L -8 -2
	L -7 -2
	L -6 -2
	L -6 -3
	L -6 -4
	L -7 -4
	L -8 -4
	L -8 -5
	L -7 -5
	L -6 -5
	L -6 -6
	L -5 -6
	L -5 -7
	L -5 -8
	L -4 -8
	L -4 -7
	L -4 -6
	L -3 -6
	L -3 -5
	L -2 -5
	L -1 -5
	L -1 -4
	L -2 -4
	L -3 -4
	L -3 -3
	L -3 -2
	L -2 -2
	L -1 -2
	L -1 -1
	L -2 -1
	L -3 -1
	L -3 6.688e-06
	L -2 6.819e-06
	L -2 -1
	L -2 -2
	L -1 -2
	L -1 -1
	L -1 6.95e-06
	L 7.081e-06 7.081e-06
"/>
</svg>
