<svg version="1.1" baseProfile="full" xmlns="http://www.w3.org/2000/svg"
width="1024" height="883.7"
viewBox="-38.24 -65 76.48 66"
>
<rect x="-38.24" y="-65" width="100%" height="100%" fill="white" />
<path stroke="green" stroke-width="0.04" stroke-linecap="round" fill="none"
transform="scale(1 -1)"
d="	M 0 0
	L 0 1
	L 0 2
	L 0 3
	L 0 4
	L 0 5
	L 0 6
	L 0 7
	L 0 8
	L 0 9
	L 0 10
	L 0 11
	L 0 12
	L 0 13
	L 0 14
	L 0 15
	L 0 16
	L 0 17
	L 0 18
	L 0 19
	L 0 20
	L 0 21
	L 0 22
	L 0 23
	L 0 24
	L 0 25
	L 0 26
	L 0 27
	L 0 28
	L 0 29
	L 0 30
	L 0 31
	L 0 32
	L 0 33
	L 0 34
	L 0 35
	L 0 36
	L 0 37
	L 0 38
	L 0 39
	L 0 40
	L 0 41
	L 0 42
	L 0 43
	L 0 44
	L 0 45
	L 0 46
	L 0 47
	L 0 48
	L 0 49
	L 0 50
	L 0 51
	L 0 52
	L 0 53
	L 0 54
	L 0 55
	L 0 56
	L 0 57
	L 0 58
	L 0 59
	L 0 60
	L 0 61
	L 0 62
	L 0 63
	L 0 64
	L -0.866 63.5
	L -1.732 63
	L -2.598 62.5
	L -3.464 62
	L -4.33 61.5
	L -5.196 61
	L -6.062 60.5
	L -6.928 60
	L -7.794 59.5
	L -8.66 59
	L -9.526 58.5
	L -10.39 58
	L -11.26 57.5
	L -12.12 57
	L -12.99 56.5
	L -13.86 56
	L -14.72 55.5
	L -15.59 55
	L -16.45 54.5
	L -17.32 54
	L -18.19 53.5
	L -19.05 53
	L -19.92 52.5
	L -20.78 52
	L -21.65 51.5
	L -22.52 51
	L -23.38 50.5
	L -24.25 50
	L -25.11 49.5
	L -25.98 49
	L -26.85 48.5
	L -27.71 48
	L -26.85 47.5
	L -25.98 47
	L -25.11 46.5
	L -24.25 46
	L -23.38 45.5
	L -22.52 45
	L -21.65 44.5
	L -20.78 44
	L -19.92 43.5
	L -19.05 43
	L -18.19 42.5
	L -17.32 42
	L -16.45 41.5
	L -15.59 41
	L -14.72 40.5
	L -13.86 40
	L -13.86 41
	L -13.86 42
	L -13.86 43
	L -13.86 44
	L -13.86 45
	L -13.86 46
	L -13.86 47
	L -13.86 48
	L -14.72 47.5
	L -15.59 47
	L -16.45 46.5
	L -17.32 46
	L -16.45 45.5
	L -15.59 45
	L -15.59 46
	L -16.45 45.5
	M -15.59 46
	L -14.72 45.5
	M -15.59 45
	L -16.45 44.5
	L -15.59 44
	M -16.45 44.5
	L -16.45 45.5
	M -17.32 46
	L -17.32 47
	L -17.32 48
	L -18.19 47.5
	L -17.32 47
	M -18.19 47.5
	L -18.19 48.5
	M -17.32 48
	L -16.45 47.5
	L -16.45 48.5
	M -16.45 47.5
	L -17.32 47
	M -13.86 48
	L -12.99 47.5
	L -12.12 47
	L -11.26 46.5
	L -10.39 46
	L -10.39 47
	L -10.39 48
	L -11.26 47.5
	L -10.39 47
	M -11.26 47.5
	L -11.26 48.5
	M -10.39 48
	L -9.526 47.5
	L -9.526 48.5
	M -9.526 47.5
	L -10.39 47
	M -10.39 46
	L -11.26 45.5
	L -12.12 45
	L -11.26 44.5
	L -11.26 45.5
	M -11.26 44.5
	L -12.12 44
	M -12.12 45
	L -12.12 46
	L -12.99 45.5
	M -12.12 46
	L -11.26 45.5
	M -13.86 40
	L -14.72 39.5
	L -15.59 39
	L -16.45 38.5
	L -17.32 38
	L -18.19 37.5
	L -19.05 37
	L -19.92 36.5
	L -20.78 36
	L -19.92 35.5
	L -19.05 35
	L -18.19 34.5
	L -17.32 34
	L -17.32 35
	L -17.32 36
	L -18.19 35.5
	L -17.32 35
	M -18.19 35.5
	L -18.19 36.5
	M -17.32 36
	L -16.45 35.5
	L -16.45 36.5
	M -16.45 35.5
	L -17.32 35
	M -17.32 34
	L -18.19 33.5
	L -19.05 33
	L -18.19 32.5
	L -18.19 33.5
	M -18.19 32.5
	L -19.05 32
	M -19.05 33
	L -19.05 34
	L -19.92 33.5
	M -19.05 34
	L -18.19 33.5
	M -20.78 36
	L -20.78 37
	L -20.78 38
	L -20.78 39
	L -20.78 40
	L -21.65 39.5
	L -22.52 39
	L -21.65 38.5
	L -21.65 39.5
	M -21.65 38.5
	L -22.52 38
	M -22.52 39
	L -22.52 40
	L -23.38 39.5
	M -22.52 40
	L -21.65 39.5
	M -20.78 40
	L -19.92 39.5
	L -19.05 39
	L -19.05 40
	L -19.92 39.5
	M -19.05 40
	L -18.19 39.5
	M -19.05 39
	L -19.92 38.5
	L -19.05 38
	M -19.92 38.5
	L -19.92 39.5
	M -27.71 48
	L -27.71 49
	L -27.71 50
	L -27.71 51
	L -27.71 52
	L -27.71 53
	L -27.71 54
	L -27.71 55
	L -27.71 56
	L -27.71 57
	L -27.71 58
	L -27.71 59
	L -27.71 60
	L -27.71 61
	L -27.71 62
	L -27.71 63
	L -27.71 64
	L -28.58 63.5
	L -29.44 63
	L -30.31 62.5
	L -31.18 62
	L -32.04 61.5
	L -32.91 61
	L -33.77 60.5
	L -34.64 60
	L -33.77 59.5
	L -32.91 59
	L -32.04 58.5
	L -31.18 58
	L -31.18 59
	L -31.18 60
	L -32.04 59.5
	L -31.18 59
	M -32.04 59.5
	L -32.04 60.5
	M -31.18 60
	L -30.31 59.5
	L -30.31 60.5
	M -30.31 59.5
	L -31.18 59
	M -31.18 58
	L -32.04 57.5
	L -32.91 57
	L -32.04 56.5
	L -32.04 57.5
	M -32.04 56.5
	L -32.91 56
	M -32.91 57
	L -32.91 58
	L -33.77 57.5
	M -32.91 58
	L -32.04 57.5
	M -34.64 60
	L -34.64 61
	L -34.64 62
	L -34.64 63
	L -34.64 64
	L -35.51 63.5
	L -36.37 63
	L -35.51 62.5
	L -35.51 63.5
	M -35.51 62.5
	L -36.37 62
	M -36.37 63
	L -36.37 64
	L -37.24 63.5
	M -36.37 64
	L -35.51 63.5
	M -34.64 64
	L -33.77 63.5
	L -32.91 63
	L -32.91 64
	L -33.77 63.5
	M -32.91 64
	L -32.04 63.5
	M -32.91 63
	L -33.77 62.5
	L -32.91 62
	M -33.77 62.5
	L -33.77 63.5
	M -27.71 64
	L -26.85 63.5
	L -25.98 63
	L -25.11 62.5
	L -24.25 62
	L -23.38 61.5
	L -22.52 61
	L -21.65 60.5
	L -20.78 60
	L -20.78 61
	L -20.78 62
	L -20.78 63
	L -20.78 64
	L -21.65 63.5
	L -22.52 63
	L -21.65 62.5
	L -21.65 63.5
	M -21.65 62.5
	L -22.52 62
	M -22.52 63
	L -22.52 64
	L -23.38 63.5
	M -22.52 64
	L -21.65 63.5
	M -20.78 64
	L -19.92 63.5
	L -19.05 63
	L -19.05 64
	L -19.92 63.5
	M -19.05 64
	L -18.19 63.5
	M -19.05 63
	L -19.92 62.5
	L -19.05 62
	M -19.92 62.5
	L -19.92 63.5
	M -20.78 60
	L -21.65 59.5
	L -22.52 59
	L -23.38 58.5
	L -24.25 58
	L -23.38 57.5
	L -22.52 57
	L -22.52 58
	L -23.38 57.5
	M -22.52 58
	L -21.65 57.5
	M -22.52 57
	L -23.38 56.5
	L -22.52 56
	M -23.38 56.5
	L -23.38 57.5
	M -24.25 58
	L -24.25 59
	L -24.25 60
	L -25.11 59.5
	L -24.25 59
	M -25.11 59.5
	L -25.11 60.5
	M -24.25 60
	L -23.38 59.5
	L -23.38 60.5
	M -23.38 59.5
	L -24.25 59
	M 0 64
	L 0.866 63.5
	L 1.732 63
	L 2.598 62.5
	L 3.464 62
	L 4.33 61.5
	L 5.196 61
	L 6.062 60.5
	L 6.928 60
	L 7.794 59.5
	L 8.66 59
	L 9.526 58.5
	L 10.39 58
	L 11.26 57.5
	L 12.12 57
	L 12.99 56.5
	L 13.86 56
	L 14.72 55.5
	L 15.59 55
	L 16.45 54.5
	L 17.32 54
	L 18.19 53.5
	L 19.05 53
	L 19.92 52.5
	L 20.78 52
	L 21.65 51.5
	L 22.52 51
	L 23.38 50.5
	L 24.25 50
	L 25.11 49.5
	L 25.98 49
	L 26.85 48.5
	L 27.71 48
	L 27.71 49
	L 27.71 50
	L 27.71 51
	L 27.71 52
	L 27.71 53
	L 27.71 54
	L 27.71 55
	L 27.71 56
	L 27.71 57
	L 27.71 58
	L 27.71 59
	L 27.71 60
	L 27.71 61
	L 27.71 62
	L 27.71 63
	L 27.71 64
	L 26.85 63.5
	L 25.98 63
	L 25.11 62.5
	L 24.25 62
	L 23.38 61.5
	L 22.52 61
	L 21.65 60.5
	L 20.78 60
	L 21.65 59.5
	L 22.52 59
	L 23.38 58.5
	L 24.25 58
	L 24.25 59
	L 24.25 60
	L 23.38 59.5
	L 24.25 59
	M 23.38 59.5
	L 23.38 60.5
	M 24.25 60
	L 25.11 59.5
	L 25.11 60.5
	M 25.11 59.5
	L 24.25 59
	M 24.25 58
	L 23.38 57.5
	L 22.52 57
	L 23.38 56.5
	L 23.38 57.5
	M 23.38 56.5
	L 22.52 56
	M 22.52 57
	L 22.52 58
	L 21.65 57.5
	M 22.52 58
	L 23.38 57.5
	M 20.78 60
	L 20.78 61
	L 20.78 62
	L 20.78 63
	L 20.78 64
	L 19.92 63.5
	L 19.05 63
	L 19.92 62.5
	L 19.92 63.5
	M 19.92 62.5
	L 19.05 62
	M 19.05 63
	L 19.05 64
	L 18.19 63.5
	M 19.05 64
	L 19.92 63.5
	M 20.78 64
	L 21.65 63.5
	L 22.52 63
	L 22.52 64
	L 21.65 63.5
	M 22.52 64
	L 23.38 63.5
	M 22.52 63
	L 21.65 62.5
	L 22.52 62
	M 21.65 62.5
	L 21.65 63.5
	M 27.71 64
	L 28.58 63.5
	L 29.44 63
	L 30.31 62.5
	L 31.18 62
	L 32.04 61.5
	L 32.91 61
	L 33.77 60.5
	L 34.64 60
	L 34.64 61
	L 34.64 62
	L 34.64 63
	L 34.64 64
	L 33.77 63.5
	L 32.91 63
	L 33.77 62.5
	L 33.77 63.5
	M 33.77 62.5
	L 32.91 62
	M 32.91 63
	L 32.91 64
	L 32.04 63.5
	M 32.91 64
	L 33.77 63.5
	M 34.64 64
	L 35.51 63.5
	L 36.37 63
	L 36.37 64
	L 35.51 63.5
	M 36.37 64
	L 37.24 63.5
	M 36.37 63
	L 35.51 62.5
	L 36.37 62
	M 35.51 62.5
	L 35.51 63.5
	M 34.64 60
	L 33.77 59.5
	L 32.91 59
	L 32.04 58.5
	L 31.18 58
	L 32.04 57.5
	L 32.91 57
	L 32.91 58
	L 32.04 57.5
	M 32.91 58
	L 33.77 57.5
	M 32.91 57
	L 32.04 56.5
	L 32.91 56
	M 32.04 56.5
	L 32.04 57.5
	M 31.18 58
	L 31.18 59
	L 31.18 60
	L 30.31 59.5
	L 31.18 59
	M 30.31 59.5
	L 30.31 60.5
	M 31.18 60
	L 32.04 59.5
	L 32.04 60.5
	M 32.04 59.5
	L 31.18 59
	M 27.71 48
	L 26.85 47.5
	L 25.98 47
	L 25.11 46.5
	L 24.25 46
	L 23.38 45.5
	L 22.52 45
	L 21.65 44.5
	L 20.78 44
	L 19.92 43.5
	L 19.05 43
	L 18.19 42.5
	L 17.32 42
	L 16.45 41.5
	L 15.59 41
	L 14.72 40.5
	L 13.86 40
	L 14.72 39.5
	L 15.59 39
	L 16.45 38.5
	L 17.32 38
	L 18.19 37.5
	L 19.05 37
	L 19.92 36.5
	L 20.78 36
	L 20.78 37
	L 20.78 38
	L 20.78 39
	L 20.78 40
	L 19.92 39.5
	L 19.05 39
	L 19.92 38.5
	L 19.92 39.5
	M 19.92 38.5
	L 19.05 38
	M 19.05 39
	L 19.05 40
	L 18.19 39.5
	M 19.05 40
	L 19.92 39.5
	M 20.78 40
	L 21.65 39.5
	L 22.52 39
	L 22.52 40
	L 21.65 39.5
	M 22.52 40
	L 23.38 39.5
	M 22.52 39
	L 21.65 38.5
	L 22.52 38
	M 21.65 38.5
	L 21.65 39.5
	M 20.78 36
	L 19.92 35.5
	L 19.05 35
	L 18.19 34.5
	L 17.32 34
	L 18.19 33.5
	L 19.05 33
	L 19.05 34
	L 18.19 33.5
	M 19.05 34
	L 19.92 33.5
	M 19.05 33
	L 18.19 32.5
	L 19.05 32
	M 18.19 32.5
	L 18.19 33.5
	M 17.32 34
	L 17.32 35
	L 17.32 36
	L 16.45 35.5
	L 17.32 35
	M 16.45 35.5
	L 16.45 36.5
	M 17.32 36
	L 18.19 35.5
	L 18.19 36.5
	M 18.19 35.5
	L 17.32 35
	M 13.86 40
	L 13.86 41
	L 13.86 42
	L 13.86 43
	L 13.86 44
	L 13.86 45
	L 13.86 46
	L 13.86 47
	L 13.86 48
	L 12.99 47.5
	L 12.12 47
	L 11.26 46.5
	L 10.39 46
	L 11.26 45.5
	L 12.12 45
	L 12.12 46
	L 11.26 45.5
	M 12.12 46
	L 12.99 45.5
	M 12.12 45
	L 11.26 44.5
	L 12.12 44
	M 11.26 44.5
	L 11.26 45.5
	M 10.39 46
	L 10.39 47
	L 10.39 48
	L 9.526 47.5
	L 10.39 47
	M 9.526 47.5
	L 9.526 48.5
	M 10.39 48
	L 11.26 47.5
	L 11.26 48.5
	M 11.26 47.5
	L 10.39 47
	M 13.86 48
	L 14.72 47.5
	L 15.59 47
	L 16.45 46.5
	L 17.32 46
	L 17.32 47
	L 17.32 48
	L 16.45 47.5
	L 17.32 47
	M 16.45 47.5
	L 16.45 48.5
	M 17.32 48
	L 18.19 47.5
	L 18.19 48.5
	M 18.19 47.5
	L 17.32 47
	M 17.32 46
	L 16.45 45.5
	L 15.59 45
	L 16.45 44.5
	L 16.45 45.5
	M 16.45 44.5
	L 15.59 44
	M 15.59 45
	L 15.59 46
	L 14.72 45.5
	M 15.59 46
	L 16.45 45.5
"/>
</svg>
