<svg version="1.1" baseProfile="full" xmlns="http://www.w3.org/2000/svg"
width="1024" height="888.3"
viewBox="-94.53 -163 189.1 164"
>
<rect x="-94.53" y="-163" width="100%" height="100%" fill="white" />
<path stroke="green" stroke-width="0.04" stroke-linecap="round" fill="none"
transform="scale(1 -1)"
d="	M 0 0
	L 0.866 0.5
	L 1.732 -1.243e-07
	L 1.732 1
	L 2.598 1.5
	L 3.464 1
	L 3.464 -2.486e-07
	L 4.33 0.5
	L 5.196 -3.729e-07
	L 5.196 1
	L 6.062 1.5
	L 5.196 2
	L 5.196 3
	L 6.062 3.5
	L 6.928 3
	L 6.928 4
	L 7.794 4.5
	L 8.66 4
	L 8.66 3
	L 9.526 3.5
	L 10.39 3
	L 10.39 2
	L 9.526 1.5
	L 10.39 1
	L 10.39 -7.458e-07
	L 11.26 0.5
	L 12.12 -8.7e-07
	L 12.12 1
	L 12.99 1.5
	L 13.86 1
	L 13.86 -9.943e-07
	L 14.72 0.5
	L 15.59 -1.119e-06
	L 15.59 1
	L 16.45 1.5
	L 15.59 2
	L 15.59 3
	L 16.45 3.5
	L 17.32 3
	L 17.32 4
	L 18.19 4.5
	L 17.32 5
	L 17.32 6
	L 16.45 5.5
	L 15.59 6
	L 15.59 7
	L 16.45 7.5
	L 15.59 8
	L 15.59 9
	L 16.45 9.5
	L 17.32 9
	L 17.32 10
	L 18.19 10.5
	L 19.05 10
	L 19.05 9
	L 19.92 9.5
	L 20.78 9
	L 20.78 10
	L 21.65 10.5
	L 20.78 11
	L 20.78 12
	L 21.65 12.5
	L 22.52 12
	L 22.52 13
	L 23.38 13.5
	L 24.25 13
	L 24.25 12
	L 25.11 12.5
	L 25.98 12
	L 25.98 11
	L 25.11 10.5
	L 25.98 10
	L 25.98 9
	L 26.85 9.5
	L 27.71 9
	L 27.71 10
	L 28.58 10.5
	L 29.44 10
	L 29.44 9
	L 30.31 9.5
	L 31.18 9
	L 31.18 8
	L 30.31 7.5
	L 31.18 7
	L 31.18 6
	L 30.31 5.5
	L 29.44 6
	L 29.44 5
	L 28.58 4.5
	L 29.44 4
	L 29.44 3
	L 30.31 3.5
	L 31.18 3
	L 31.18 2
	L 30.31 1.5
	L 31.18 1
	L 31.18 -2.237e-06
	L 32.04 0.5
	L 32.91 -2.362e-06
	L 32.91 1
	L 33.77 1.5
	L 34.64 1
	L 34.64 -2.486e-06
	L 35.51 0.5
	L 36.37 -2.61e-06
	L 36.37 1
	L 37.24 1.5
	L 36.37 2
	L 36.37 3
	L 37.24 3.5
	L 38.11 3
	L 38.11 4
	L 38.97 4.5
	L 39.84 4
	L 39.84 3
	L 40.7 3.5
	L 41.57 3
	L 41.57 2
	L 40.7 1.5
	L 41.57 1
	L 41.57 -2.983e-06
	L 42.44 0.5
	L 43.3 -3.107e-06
	L 43.3 1
	L 44.17 1.5
	L 45.03 1
	L 45.03 -3.232e-06
	L 45.9 0.5
	L 46.77 -3.356e-06
	L 46.77 1
	L 47.63 1.5
	L 46.77 2
	L 46.77 3
	L 47.63 3.5
	L 48.5 3
	L 48.5 4
	L 49.36 4.5
	L 48.5 5
	L 48.5 6
	L 47.63 5.5
	L 46.77 6
	L 46.77 7
	L 47.63 7.5
	L 46.77 8
	L 46.77 9
	L 47.63 9.5
	L 48.5 9
	L 48.5 10
	L 49.36 10.5
	L 50.23 10
	L 50.23 9
	L 51.1 9.5
	L 51.96 9
	L 51.96 10
	L 52.83 10.5
	L 51.96 11
	L 51.96 12
	L 52.83 12.5
	L 53.69 12
	L 53.69 13
	L 54.56 13.5
	L 53.69 14
	L 53.69 15
	L 52.83 14.5
	L 51.96 15
	L 51.96 16
	L 52.83 16.5
	L 51.96 17
	L 51.96 18
	L 51.1 17.5
	L 50.23 18
	L 50.23 17
	L 49.36 16.5
	L 48.5 17
	L 48.5 18
	L 47.63 17.5
	L 46.77 18
	L 46.77 19
	L 47.63 19.5
	L 46.77 20
	L 46.77 21
	L 47.63 21.5
	L 48.5 21
	L 48.5 22
	L 49.36 22.5
	L 48.5 23
	L 48.5 24
	L 47.63 23.5
	L 46.77 24
	L 46.77 25
	L 47.63 25.5
	L 46.77 26
	L 46.77 27
	L 47.63 27.5
	L 48.5 27
	L 48.5 28
	L 49.36 28.5
	L 50.23 28
	L 50.23 27
	L 51.1 27.5
	L 51.96 27
	L 51.96 28
	L 52.83 28.5
	L 51.96 29
	L 51.96 30
	L 52.83 30.5
	L 53.69 30
	L 53.69 31
	L 54.56 31.5
	L 55.43 31
	L 55.43 30
	L 56.29 30.5
	L 57.16 30
	L 57.16 29
	L 56.29 28.5
	L 57.16 28
	L 57.16 27
	L 58.02 27.5
	L 58.89 27
	L 58.89 28
	L 59.76 28.5
	L 60.62 28
	L 60.62 27
	L 61.49 27.5
	L 62.35 27
	L 62.35 28
	L 63.22 28.5
	L 62.35 29
	L 62.35 30
	L 63.22 30.5
	L 64.09 30
	L 64.09 31
	L 64.95 31.5
	L 64.09 32
	L 64.09 33
	L 63.22 32.5
	L 62.35 33
	L 62.35 34
	L 63.22 34.5
	L 62.35 35
	L 62.35 36
	L 63.22 36.5
	L 64.09 36
	L 64.09 37
	L 64.95 37.5
	L 65.82 37
	L 65.82 36
	L 66.68 36.5
	L 67.55 36
	L 67.55 37
	L 68.42 37.5
	L 67.55 38
	L 67.55 39
	L 68.42 39.5
	L 69.28 39
	L 69.28 40
	L 70.15 40.5
	L 70.15 41.5
	L 71.01 42
	L 70.15 42.5
	L 70.15 43.5
	L 71.01 44
	L 71.88 43.5
	L 71.88 44.5
	L 72.75 45
	L 71.88 45.5
	L 71.88 46.5
	L 71.01 46
	L 70.15 46.5
	L 70.15 47.5
	L 71.01 48
	L 70.15 48.5
	L 70.15 49.5
	L 71.01 50
	L 71.88 49.5
	L 71.88 50.5
	L 72.75 51
	L 73.61 50.5
	L 73.61 49.5
	L 74.48 50
	L 75.34 49.5
	L 75.34 50.5
	L 76.21 51
	L 75.34 51.5
	L 75.34 52.5
	L 76.21 53
	L 77.08 52.5
	L 77.08 53.5
	L 77.94 54
	L 77.08 54.5
	L 77.08 55.5
	L 76.21 55
	L 75.34 55.5
	L 75.34 56.5
	L 76.21 57
	L 75.34 57.5
	L 75.34 58.5
	L 74.48 58
	L 73.61 58.5
	L 73.61 57.5
	L 72.75 57
	L 71.88 57.5
	L 71.88 58.5
	L 71.01 58
	L 70.15 58.5
	L 70.15 59.5
	L 71.01 60
	L 70.15 60.5
	L 70.15 61.5
	L 71.01 62
	L 71.88 61.5
	L 71.88 62.5
	L 72.75 63
	L 71.88 63.5
	L 71.88 64.5
	L 71.01 64
	L 70.15 64.5
	L 70.15 65.5
	L 71.01 66
	L 70.15 66.5
	L 70.15 67.5
	L 71.01 68
	L 71.88 67.5
	L 71.88 68.5
	L 72.75 69
	L 73.61 68.5
	L 73.61 67.5
	L 74.48 68
	L 75.34 67.5
	L 75.34 68.5
	L 76.21 69
	L 75.34 69.5
	L 75.34 70.5
	L 76.21 71
	L 77.08 70.5
	L 77.08 71.5
	L 77.94 72
	L 78.81 71.5
	L 78.81 70.5
	L 79.67 71
	L 80.54 70.5
	L 80.54 69.5
	L 79.67 69
	L 80.54 68.5
	L 80.54 67.5
	L 81.41 68
	L 82.27 67.5
	L 82.27 68.5
	L 83.14 69
	L 84 68.5
	L 84 67.5
	L 84.87 68
	L 85.74 67.5
	L 85.74 68.5
	L 86.6 69
	L 85.74 69.5
	L 85.74 70.5
	L 86.6 71
	L 87.47 70.5
	L 87.47 71.5
	L 88.33 72
	L 87.47 72.5
	L 87.47 73.5
	L 86.6 73
	L 85.74 73.5
	L 85.74 74.5
	L 86.6 75
	L 85.74 75.5
	L 85.74 76.5
	L 86.6 77
	L 87.47 76.5
	L 87.47 77.5
	L 88.33 78
	L 89.2 77.5
	L 89.2 76.5
	L 90.07 77
	L 90.93 76.5
	L 90.93 77.5
	L 91.8 78
	L 90.93 78.5
	L 90.93 79.5
	L 91.8 80
	L 92.66 79.5
	L 92.66 80.5
	L 93.53 81
	L 92.66 81.5
	L 92.66 82.5
	L 91.8 82
	L 90.93 82.5
	L 90.93 83.5
	L 91.8 84
	L 90.93 84.5
	L 90.93 85.5
	L 90.07 85
	L 89.2 85.5
	L 89.2 84.5
	L 88.33 84
	L 87.47 84.5
	L 87.47 85.5
	L 86.6 85
	L 85.74 85.5
	L 85.74 86.5
	L 86.6 87
	L 85.74 87.5
	L 85.74 88.5
	L 86.6 89
	L 87.47 88.5
	L 87.47 89.5
	L 88.33 90
	L 87.47 90.5
	L 87.47 91.5
	L 86.6 91
	L 85.74 91.5
	L 85.74 92.5
	L 86.6 93
	L 85.74 93.5
	L 85.74 94.5
	L 84.87 94
	L 84 94.5
	L 84 93.5
	L 83.14 93
	L 82.27 93.5
	L 82.27 94.5
	L 81.41 94
	L 80.54 94.5
	L 80.54 93.5
	L 79.67 93
	L 80.54 92.5
	L 80.54 91.5
	L 79.67 91
	L 78.81 91.5
	L 78.81 90.5
	L 77.94 90
	L 77.08 90.5
	L 77.08 91.5
	L 76.21 91
	L 75.34 91.5
	L 75.34 92.5
	L 76.21 93
	L 75.34 93.5
	L 75.34 94.5
	L 74.48 94
	L 73.61 94.5
	L 73.61 93.5
	L 72.75 93
	L 71.88 93.5
	L 71.88 94.5
	L 71.01 94
	L 70.15 94.5
	L 70.15 95.5
	L 71.01 96
	L 70.15 96.5
	L 70.15 97.5
	L 71.01 98
	L 71.88 97.5
	L 71.88 98.5
	L 72.75 99
	L 71.88 99.5
	L 71.88 100.5
	L 71.01 100
	L 70.15 100.5
	L 70.15 101.5
	L 71.01 102
	L 70.15 102.5
	L 70.15 103.5
	L 71.01 104
	L 71.88 103.5
	L 71.88 104.5
	L 72.75 105
	L 73.61 104.5
	L 73.61 103.5
	L 74.48 104
	L 75.34 103.5
	L 75.34 104.5
	L 76.21 105
	L 75.34 105.5
	L 75.34 106.5
	L 76.21 107
	L 77.08 106.5
	L 77.08 107.5
	L 77.94 108
	L 77.08 108.5
	L 77.08 109.5
	L 76.21 109
	L 75.34 109.5
	L 75.34 110.5
	L 76.21 111
	L 75.34 111.5
	L 75.34 112.5
	L 74.48 112
	L 73.61 112.5
	L 73.61 111.5
	L 72.75 111
	L 71.88 111.5
	L 71.88 112.5
	L 71.01 112
	L 70.15 112.5
	L 70.15 113.5
	L 71.01 114
	L 70.15 114.5
	L 70.15 115.5
	L 71.01 116
	L 71.88 115.5
	L 71.88 116.5
	L 72.75 117
	L 71.88 117.5
	L 71.88 118.5
	L 71.01 118
	L 70.15 118.5
	L 70.15 119.5
	L 71.01 120
	L 70.15 120.5
	L 70.15 121.5
	L 69.28 122
	L 69.28 123
	L 68.42 122.5
	L 67.55 123
	L 67.55 124
	L 68.42 124.5
	L 67.55 125
	L 67.55 126
	L 66.68 125.5
	L 65.82 126
	L 65.82 125
	L 64.95 124.5
	L 64.09 125
	L 64.09 126
	L 63.22 125.5
	L 62.35 126
	L 62.35 127
	L 63.22 127.5
	L 62.35 128
	L 62.35 129
	L 63.22 129.5
	L 64.09 129
	L 64.09 130
	L 64.95 130.5
	L 64.09 131
	L 64.09 132
	L 63.22 131.5
	L 62.35 132
	L 62.35 133
	L 63.22 133.5
	L 62.35 134
	L 62.35 135
	L 61.49 134.5
	L 60.62 135
	L 60.62 134
	L 59.76 133.5
	L 58.89 134
	L 58.89 135
	L 58.02 134.5
	L 57.16 135
	L 57.16 134
	L 56.29 133.5
	L 57.16 133
	L 57.16 132
	L 56.29 131.5
	L 55.43 132
	L 55.43 131
	L 54.56 130.5
	L 53.69 131
	L 53.69 132
	L 52.83 131.5
	L 51.96 132
	L 51.96 133
	L 52.83 133.5
	L 51.96 134
	L 51.96 135
	L 51.1 134.5
	L 50.23 135
	L 50.23 134
	L 49.36 133.5
	L 48.5 134
	L 48.5 135
	L 47.63 134.5
	L 46.77 135
	L 46.77 136
	L 47.63 136.5
	L 46.77 137
	L 46.77 138
	L 47.63 138.5
	L 48.5 138
	L 48.5 139
	L 49.36 139.5
	L 48.5 140
	L 48.5 141
	L 47.63 140.5
	L 46.77 141
	L 46.77 142
	L 47.63 142.5
	L 46.77 143
	L 46.77 144
	L 47.63 144.5
	L 48.5 144
	L 48.5 145
	L 49.36 145.5
	L 50.23 145
	L 50.23 144
	L 51.1 144.5
	L 51.96 144
	L 51.96 145
	L 52.83 145.5
	L 51.96 146
	L 51.96 147
	L 52.83 147.5
	L 53.69 147
	L 53.69 148
	L 54.56 148.5
	L 53.69 149
	L 53.69 150
	L 52.83 149.5
	L 51.96 150
	L 51.96 151
	L 52.83 151.5
	L 51.96 152
	L 51.96 153
	L 51.1 152.5
	L 50.23 153
	L 50.23 152
	L 49.36 151.5
	L 48.5 152
	L 48.5 153
	L 47.63 152.5
	L 46.77 153
	L 46.77 154
	L 47.63 154.5
	L 46.77 155
	L 46.77 156
	L 47.63 156.5
	L 48.5 156
	L 48.5 157
	L 49.36 157.5
	L 48.5 158
	L 48.5 159
	L 47.63 158.5
	L 46.77 159
	L 46.77 160
	L 47.63 160.5
	L 46.77 161
	L 46.77 162
	L 45.9 161.5
	L 45.03 162
	L 45.03 161
	L 44.17 160.5
	L 43.3 161
	L 43.3 162
	L 42.44 161.5
	L 41.57 162
	L 41.57 161
	L 40.7 160.5
	L 41.57 160
	L 41.57 159
	L 40.7 158.5
	L 39.84 159
	L 39.84 158
	L 38.97 157.5
	L 38.11 158
	L 38.11 159
	L 37.24 158.5
	L 36.37 159
	L 36.37 160
	L 37.24 160.5
	L 36.37 161
	L 36.37 162
	L 35.51 161.5
	L 34.64 162
	L 34.64 161
	L 33.77 160.5
	L 32.91 161
	L 32.91 162
	L 32.04 161.5
	L 31.18 162
	L 31.18 161
	L 30.31 160.5
	L 31.18 160
	L 31.18 159
	L 30.31 158.5
	L 29.44 159
	L 29.44 158
	L 28.58 157.5
	L 29.44 157
	L 29.44 156
	L 30.31 156.5
	L 31.18 156
	L 31.18 155
	L 30.31 154.5
	L 31.18 154
	L 31.18 153
	L 30.31 152.5
	L 29.44 153
	L 29.44 152
	L 28.58 151.5
	L 27.71 152
	L 27.71 153
	L 26.85 152.5
	L 25.98 153
	L 25.98 152
	L 25.11 151.5
	L 25.98 151
	L 25.98 150
	L 25.11 149.5
	L 24.25 150
	L 24.25 149
	L 23.38 148.5
	L 22.52 149
	L 22.52 150
	L 21.65 149.5
	L 20.78 150
	L 20.78 151
	L 21.65 151.5
	L 20.78 152
	L 20.78 153
	L 19.92 152.5
	L 19.05 153
	L 19.05 152
	L 18.19 151.5
	L 17.32 152
	L 17.32 153
	L 16.45 152.5
	L 15.59 153
	L 15.59 154
	L 16.45 154.5
	L 15.59 155
	L 15.59 156
	L 16.45 156.5
	L 17.32 156
	L 17.32 157
	L 18.19 157.5
	L 17.32 158
	L 17.32 159
	L 16.45 158.5
	L 15.59 159
	L 15.59 160
	L 16.45 160.5
	L 15.59 161
	L 15.59 162
	L 14.72 161.5
	L 13.86 162
	L 13.86 161
	L 12.99 160.5
	L 12.12 161
	L 12.12 162
	L 11.26 161.5
	L 10.39 162
	L 10.39 161
	L 9.526 160.5
	L 10.39 160
	L 10.39 159
	L 9.526 158.5
	L 8.66 159
	L 8.66 158
	L 7.794 157.5
	L 6.928 158
	L 6.928 159
	L 6.062 158.5
	L 5.196 159
	L 5.196 160
	L 6.062 160.5
	L 5.196 161
	L 5.196 162
	L 4.33 161.5
	L 3.464 162
	L 3.464 161
	L 2.598 160.5
	L 1.732 161
	L 1.732 162
	L 0.866 161.5
	L 1.548e-13 162
	L -0.866 161.5
	L -1.732 162
	L -1.732 161
	L -2.598 160.5
	L -3.464 161
	L -3.464 162
	L -4.33 161.5
	L -5.196 162
	L -5.196 161
	L -6.062 160.5
	L -5.196 160
	L -5.196 159
	L -6.062 158.5
	L -6.928 159
	L -6.928 158
	L -7.794 157.5
	L -8.66 158
	L -8.66 159
	L -9.526 158.5
	L -10.39 159
	L -10.39 160
	L -9.526 160.5
	L -10.39 161
	L -10.39 162
	L -11.26 161.5
	L -12.12 162
	L -12.12 161
	L -12.99 160.5
	L -13.86 161
	L -13.86 162
	L -14.72 161.5
	L -15.59 162
	L -15.59 161
	L -16.45 160.5
	L -15.59 160
	L -15.59 159
	L -16.45 158.5
	L -17.32 159
	L -17.32 158
	L -18.19 157.5
	L -17.32 157
	L -17.32 156
	L -16.45 156.5
	L -15.59 156
	L -15.59 155
	L -16.45 154.5
	L -15.59 154
	L -15.59 153
	L -16.45 152.5
	L -17.32 153
	L -17.32 152
	L -18.19 151.5
	L -19.05 152
	L -19.05 153
	L -19.92 152.5
	L -20.78 153
	L -20.78 152
	L -21.65 151.5
	L -20.78 151
	L -20.78 150
	L -21.65 149.5
	L -22.52 150
	L -22.52 149
	L -23.38 148.5
	L -24.25 149
	L -24.25 150
	L -25.11 149.5
	L -25.98 150
	L -25.98 151
	L -25.11 151.5
	L -25.98 152
	L -25.98 153
	L -26.85 152.5
	L -27.71 153
	L -27.71 152
	L -28.58 151.5
	L -29.44 152
	L -29.44 153
	L -30.31 152.5
	L -31.18 153
	L -31.18 154
	L -30.31 154.5
	L -31.18 155
	L -31.18 156
	L -30.31 156.5
	L -29.44 156
	L -29.44 157
	L -28.58 157.5
	L -29.44 158
	L -29.44 159
	L -30.31 158.5
	L -31.18 159
	L -31.18 160
	L -30.31 160.5
	L -31.18 161
	L -31.18 162
	L -32.04 161.5
	L -32.91 162
	L -32.91 161
	L -33.77 160.5
	L -34.64 161
	L -34.64 162
	L -35.51 161.5
	L -36.37 162
	L -36.37 161
	L -37.24 160.5
	L -36.37 160
	L -36.37 159
	L -37.24 158.5
	L -38.11 159
	L -38.11 158
	L -38.97 157.5
	L -39.84 158
	L -39.84 159
	L -40.7 158.5
	L -41.57 159
	L -41.57 160
	L -40.7 160.5
	L -41.57 161
	L -41.57 162
	L -42.44 161.5
	L -43.3 162
	L -43.3 161
	L -44.17 160.5
	L -45.03 161
	L -45.03 162
	L -45.9 161.5
	L -46.77 162
	L -46.77 161
	L -47.63 160.5
	L -46.77 160
	L -46.77 159
	L -47.63 158.5
	L -48.5 159
	L -48.5 158
	L -49.36 157.5
	L -48.5 157
	L -48.5 156
	L -47.63 156.5
	L -46.77 156
	L -46.77 155
	L -47.63 154.5
	L -46.77 154
	L -46.77 153
	L -47.63 152.5
	L -48.5 153
	L -48.5 152
	L -49.36 151.5
	L -50.23 152
	L -50.23 153
	L -51.1 152.5
	L -51.96 153
	L -51.96 152
	L -52.83 151.5
	L -51.96 151
	L -51.96 150
	L -52.83 149.5
	L -53.69 150
	L -53.69 149
	L -54.56 148.5
	L -53.69 148
	L -53.69 147
	L -52.83 147.5
	L -51.96 147
	L -51.96 146
	L -52.83 145.5
	L -51.96 145
	L -51.96 144
	L -51.1 144.5
	L -50.23 144
	L -50.23 145
	L -49.36 145.5
	L -48.5 145
	L -48.5 144
	L -47.63 144.5
	L -46.77 144
	L -46.77 143
	L -47.63 142.5
	L -46.77 142
	L -46.77 141
	L -47.63 140.5
	L -48.5 141
	L -48.5 140
	L -49.36 139.5
	L -48.5 139
	L -48.5 138
	L -47.63 138.5
	L -46.77 138
	L -46.77 137
	L -47.63 136.5
	L -46.77 136
	L -46.77 135
	L -47.63 134.5
	L -48.5 135
	L -48.5 134
	L -49.36 133.5
	L -50.23 134
	L -50.23 135
	L -51.1 134.5
	L -51.96 135
	L -51.96 134
	L -52.83 133.5
	L -51.96 133
	L -51.96 132
	L -52.83 131.5
	L -53.69 132
	L -53.69 131
	L -54.56 130.5
	L -55.43 131
	L -55.43 132
	L -56.29 131.5
	L -57.16 132
	L -57.16 133
	L -56.29 133.5
	L -57.16 134
	L -57.16 135
	L -58.02 134.5
	L -58.89 135
	L -58.89 134
	L -59.76 133.5
	L -60.62 134
	L -60.62 135
	L -61.49 134.5
	L -62.35 135
	L -62.35 134
	L -63.22 133.5
	L -62.35 133
	L -62.35 132
	L -63.22 131.5
	L -64.09 132
	L -64.09 131
	L -64.95 130.5
	L -64.09 130
	L -64.09 129
	L -63.22 129.5
	L -62.35 129
	L -62.35 128
	L -63.22 127.5
	L -62.35 127
	L -62.35 126
	L -63.22 125.5
	L -64.09 126
	L -64.09 125
	L -64.95 124.5
	L -65.82 125
	L -65.82 126
	L -66.68 125.5
	L -67.55 126
	L -67.55 125
	L -68.42 124.5
	L -67.55 124
	L -67.55 123
	L -68.42 122.5
	L -69.28 123
	L -69.28 122
	L -70.15 121.5
	L -70.15 120.5
	L -71.01 120
	L -70.15 119.5
	L -70.15 118.5
	L -71.01 118
	L -71.88 118.5
	L -71.88 117.5
	L -72.75 117
	L -71.88 116.5
	L -71.88 115.5
	L -71.01 116
	L -70.15 115.5
	L -70.15 114.5
	L -71.01 114
	L -70.15 113.5
	L -70.15 112.5
	L -71.01 112
	L -71.88 112.5
	L -71.88 111.5
	L -72.75 111
	L -73.61 111.5
	L -73.61 112.5
	L -74.48 112
	L -75.34 112.5
	L -75.34 111.5
	L -76.21 111
	L -75.34 110.5
	L -75.34 109.5
	L -76.21 109
	L -77.08 109.5
	L -77.08 108.5
	L -77.94 108
	L -77.08 107.5
	L -77.08 106.5
	L -76.21 107
	L -75.34 106.5
	L -75.34 105.5
	L -76.21 105
	L -75.34 104.5
	L -75.34 103.5
	L -74.48 104
	L -73.61 103.5
	L -73.61 104.5
	L -72.75 105
	L -71.88 104.5
	L -71.88 103.5
	L -71.01 104
	L -70.15 103.5
	L -70.15 102.5
	L -71.01 102
	L -70.15 101.5
	L -70.15 100.5
	L -71.01 100
	L -71.88 100.5
	L -71.88 99.5
	L -72.75 99
	L -71.88 98.5
	L -71.88 97.5
	L -71.01 98
	L -70.15 97.5
	L -70.15 96.5
	L -71.01 96
	L -70.15 95.5
	L -70.15 94.5
	L -71.01 94
	L -71.88 94.5
	L -71.88 93.5
	L -72.75 93
	L -73.61 93.5
	L -73.61 94.5
	L -74.48 94
	L -75.34 94.5
	L -75.34 93.5
	L -76.21 93
	L -75.34 92.5
	L -75.34 91.5
	L -76.21 91
	L -77.08 91.5
	L -77.08 90.5
	L -77.94 90
	L -78.81 90.5
	L -78.81 91.5
	L -79.67 91
	L -80.54 91.5
	L -80.54 92.5
	L -79.67 93
	L -80.54 93.5
	L -80.54 94.5
	L -81.41 94
	L -82.27 94.5
	L -82.27 93.5
	L -83.14 93
	L -84 93.5
	L -84 94.5
	L -84.87 94
	L -85.74 94.5
	L -85.74 93.5
	L -86.6 93
	L -85.74 92.5
	L -85.74 91.5
	L -86.6 91
	L -87.47 91.5
	L -87.47 90.5
	L -88.33 90
	L -87.47 89.5
	L -87.47 88.5
	L -86.6 89
	L -85.74 88.5
	L -85.74 87.5
	L -86.6 87
	L -85.74 86.5
	L -85.74 85.5
	L -86.6 85
	L -87.47 85.5
	L -87.47 84.5
	L -88.33 84
	L -89.2 84.5
	L -89.2 85.5
	L -90.07 85
	L -90.93 85.5
	L -90.93 84.5
	L -91.8 84
	L -90.93 83.5
	L -90.93 82.5
	L -91.8 82
	L -92.66 82.5
	L -92.66 81.5
	L -93.53 81
	L -92.66 80.5
	L -92.66 79.5
	L -91.8 80
	L -90.93 79.5
	L -90.93 78.5
	L -91.8 78
	L -90.93 77.5
	L -90.93 76.5
	L -90.07 77
	L -89.2 76.5
	L -89.2 77.5
	L -88.33 78
	L -87.47 77.5
	L -87.47 76.5
	L -86.6 77
	L -85.74 76.5
	L -85.74 75.5
	L -86.6 75
	L -85.74 74.5
	L -85.74 73.5
	L -86.6 73
	L -87.47 73.5
	L -87.47 72.5
	L -88.33 72
	L -87.47 71.5
	L -87.47 70.5
	L -86.6 71
	L -85.74 70.5
	L -85.74 69.5
	L -86.6 69
	L -85.74 68.5
	L -85.74 67.5
	L -84.87 68
	L -84 67.5
	L -84 68.5
	L -83.14 69
	L -82.27 68.5
	L -82.27 67.5
	L -81.41 68
	L -80.54 67.5
	L -80.54 68.5
	L -79.67 69
	L -80.54 69.5
	L -80.54 70.5
	L -79.67 71
	L -78.81 70.5
	L -78.81 71.5
	L -77.94 72
	L -77.08 71.5
	L -77.08 70.5
	L -76.21 71
	L -75.34 70.5
	L -75.34 69.5
	L -76.21 69
	L -75.34 68.5
	L -75.34 67.5
	L -74.48 68
	L -73.61 67.5
	L -73.61 68.5
	L -72.75 69
	L -71.88 68.5
	L -71.88 67.5
	L -71.01 68
	L -70.15 67.5
	L -70.15 66.5
	L -71.01 66
	L -70.15 65.5
	L -70.15 64.5
	L -71.01 64
	L -71.88 64.5
	L -71.88 63.5
	L -72.75 63
	L -71.88 62.5
	L -71.88 61.5
	L -71.01 62
	L -70.15 61.5
	L -70.15 60.5
	L -71.01 60
	L -70.15 59.5
	L -70.15 58.5
	L -71.01 58
	L -71.88 58.5
	L -71.88 57.5
	L -72.75 57
	L -73.61 57.5
	L -73.61 58.5
	L -74.48 58
	L -75.34 58.5
	L -75.34 57.5
	L -76.21 57
	L -75.34 56.5
	L -75.34 55.5
	L -76.21 55
	L -77.08 55.5
	L -77.08 54.5
	L -77.94 54
	L -77.08 53.5
	L -77.08 52.5
	L -76.21 53
	L -75.34 52.5
	L -75.34 51.5
	L -76.21 51
	L -75.34 50.5
	L -75.34 49.5
	L -74.48 50
	L -73.61 49.5
	L -73.61 50.5
	L -72.75 51
	L -71.88 50.5
	L -71.88 49.5
	L -71.01 50
	L -70.15 49.5
	L -70.15 48.5
	L -71.01 48
	L -70.15 47.5
	L -70.15 46.5
	L -71.01 46
	L -71.88 46.5
	L -71.88 45.5
	L -72.75 45
	L -71.88 44.5
	L -71.88 43.5
	L -71.01 44
	L -70.15 43.5
	L -70.15 42.5
	L -71.01 42
	L -70.15 41.5
	L -70.15 40.5
	L -69.28 40
	L -69.28 39
	L -68.42 39.5
	L -67.55 39
	L -67.55 38
	L -68.42 37.5
	L -67.55 37
	L -67.55 36
	L -66.68 36.5
	L -65.82 36
	L -65.82 37
	L -64.95 37.5
	L -64.09 37
	L -64.09 36
	L -63.22 36.5
	L -62.35 36
	L -62.35 35
	L -63.22 34.5
	L -62.35 34
	L -62.35 33
	L -63.22 32.5
	L -64.09 33
	L -64.09 32
	L -64.95 31.5
	L -64.09 31
	L -64.09 30
	L -63.22 30.5
	L -62.35 30
	L -62.35 29
	L -63.22 28.5
	L -62.35 28
	L -62.35 27
	L -61.49 27.5
	L -60.62 27
	L -60.62 28
	L -59.76 28.5
	L -58.89 28
	L -58.89 27
	L -58.02 27.5
	L -57.16 27
	L -57.16 28
	L -56.29 28.5
	L -57.16 29
	L -57.16 30
	L -56.29 30.5
	L -55.43 30
	L -55.43 31
	L -54.56 31.5
	L -53.69 31
	L -53.69 30
	L -52.83 30.5
	L -51.96 30
	L -51.96 29
	L -52.83 28.5
	L -51.96 28
	L -51.96 27
	L -51.1 27.5
	L -50.23 27
	L -50.23 28
	L -49.36 28.5
	L -48.5 28
	L -48.5 27
	L -47.63 27.5
	L -46.77 27
	L -46.77 26
	L -47.63 25.5
	L -46.77 25
	L -46.77 24
	L -47.63 23.5
	L -48.5 24
	L -48.5 23
	L -49.36 22.5
	L -48.5 22
	L -48.5 21
	L -47.63 21.5
	L -46.77 21
	L -46.77 20
	L -47.63 19.5
	L -46.77 19
	L -46.77 18
	L -47.63 17.5
	L -48.5 18
	L -48.5 17
	L -49.36 16.5
	L -50.23 17
	L -50.23 18
	L -51.1 17.5
	L -51.96 18
	L -51.96 17
	L -52.83 16.5
	L -51.96 16
	L -51.96 15
	L -52.83 14.5
	L -53.69 15
	L -53.69 14
	L -54.56 13.5
	L -53.69 13
	L -53.69 12
	L -52.83 12.5
	L -51.96 12
	L -51.96 11
	L -52.83 10.5
	L -51.96 10
	L -51.96 9
	L -51.1 9.5
	L -50.23 9
	L -50.23 10
	L -49.36 10.5
	L -48.5 10
	L -48.5 9
	L -47.63 9.5
	L -46.77 9
	L -46.77 8
	L -47.63 7.5
	L -46.77 7
	L -46.77 6
	L -47.63 5.5
	L -48.5 6
	L -48.5 5
	L -49.36 4.5
	L -48.5 4
	L -48.5 3
	L -47.63 3.5
	L -46.77 3
	L -46.77 2
	L -47.63 1.5
	L -46.77 1
	L -46.77 -1.007e-05
	L -45.9 0.5
	L -45.03 -9.695e-06
	L -45.03 1
	L -44.17 1.5
	L -43.3 1
	L -43.3 -9.322e-06
	L -42.44 0.5
	L -41.57 -8.949e-06
	L -41.57 1
	L -40.7 1.5
	L -41.57 2
	L -41.57 3
	L -40.7 3.5
	L -39.84 3
	L -39.84 4
	L -38.97 4.5
	L -38.11 4
	L -38.11 3
	L -37.24 3.5
	L -36.37 3
	L -36.37 2
	L -37.24 1.5
	L -36.37 1
	L -36.37 -7.83e-06
	L -35.51 0.5
	L -34.64 -7.458e-06
	L -34.64 1
	L -33.77 1.5
	L -32.91 1
	L -32.91 -7.085e-06
	L -32.04 0.5
	L -31.18 -6.712e-06
	L -31.18 1
	L -30.31 1.5
	L -31.18 2
	L -31.18 3
	L -30.31 3.5
	L -29.44 3
	L -29.44 4
	L -28.58 4.5
	L -29.44 5
	L -29.44 6
	L -30.31 5.5
	L -31.18 6
	L -31.18 7
	L -30.31 7.5
	L -31.18 8
	L -31.18 9
	L -30.31 9.5
	L -29.44 9
	L -29.44 10
	L -28.58 10.5
	L -27.71 10
	L -27.71 9
	L -26.85 9.5
	L -25.98 9
	L -25.98 10
	L -25.11 10.5
	L -25.98 11
	L -25.98 12
	L -25.11 12.5
	L -24.25 12
	L -24.25 13
	L -23.38 13.5
	L -22.52 13
	L -22.52 12
	L -21.65 12.5
	L -20.78 12
	L -20.78 11
	L -21.65 10.5
	L -20.78 10
	L -20.78 9
	L -19.92 9.5
	L -19.05 9
	L -19.05 10
	L -18.19 10.5
	L -17.32 10
	L -17.32 9
	L -16.45 9.5
	L -15.59 9
	L -15.59 8
	L -16.45 7.5
	L -15.59 7
	L -15.59 6
	L -16.45 5.5
	L -17.32 6
	L -17.32 5
	L -18.19 4.5
	L -17.32 4
	L -17.32 3
	L -16.45 3.5
	L -15.59 3
	L -15.59 2
	L -16.45 1.5
	L -15.59 1
	L -15.59 -3.356e-06
	L -14.72 0.5
	L -13.86 -2.983e-06
	L -13.86 1
	L -12.99 1.5
	L -12.12 1
	L -12.12 -2.61e-06
	L -11.26 0.5
	L -10.39 -2.237e-06
	L -10.39 1
	L -9.526 1.5
	L -10.39 2
	L -10.39 3
	L -9.526 3.5
	L -8.66 3
	L -8.66 4
	L -7.794 4.5
	L -6.928 4
	L -6.928 3
	L -6.062 3.5
	L -5.196 3
	L -5.196 2
	L -6.062 1.5
	L -5.196 1
	L -5.196 -1.119e-06
	L -4.33 0.5
	L -3.464 -7.458e-07
	L -3.464 1
	L -2.598 1.5
	L -1.732 1
	L -1.732 -3.729e-07
	L -0.866 0.5
	L 2.325e-05 1.331e-12
"/>
</svg>
