<svg version="1.1" baseProfile="full" xmlns="http://www.w3.org/2000/svg"
width="452.3" height="1024"
viewBox="-56.43 -129 57.43 130"
>
<rect x="-56.43" y="-129" width="100%" height="100%" fill="white" />
<path stroke="green" stroke-width="0.04" stroke-linecap="round" fill="none"
transform="scale(1 -1)"
d="	M 0 0
	L 0 1
	L -0.866 1.5
	M 0 1
	L 0 2
	L -0.866 2.5
	L -1.732 2
	M -0.866 2.5
	L -1.732 3
	M 0 2
	L 0 3
	L -0.866 3.5
	M 0 3
	L 0 4
	L -0.866 4.5
	L -1.732 4
	M -0.866 4.5
	L -1.732 5
	L -2.598 4.5
	L -2.598 3.5
	M -2.598 4.5
	L -3.464 4
	M -1.732 5
	L -2.598 5.5
	L -3.464 5
	M -2.598 5.5
	L -3.464 6
	M 0 4
	L 0 5
	L -0.866 5.5
	M 0 5
	L 0 6
	L -0.866 6.5
	L -1.732 6
	M -0.866 6.5
	L -1.732 7
	M 0 6
	L 0 7
	L -0.866 7.5
	M 0 7
	L 0 8
	L -0.866 8.5
	L -1.732 8
	M -0.866 8.5
	L -1.732 9
	L -2.598 8.5
	L -2.598 7.5
	M -2.598 8.5
	L -3.464 8
	M -1.732 9
	L -2.598 9.5
	L -3.464 9
	M -2.598 9.5
	L -3.464 10
	L -4.33 9.5
	L -4.33 8.5
	M -4.33 9.5
	L -5.196 9
	L -5.196 8
	L -4.33 7.5
	M -5.196 8
	L -5.196 7
	M -5.196 9
	L -6.062 8.5
	L -6.062 7.5
	M -6.062 8.5
	L -6.928 8
	M -3.464 10
	L -4.33 10.5
	L -5.196 10
	M -4.33 10.5
	L -5.196 11
	L -6.062 10.5
	L -6.062 9.5
	M -6.062 10.5
	L -6.928 10
	M -5.196 11
	L -6.062 11.5
	L -6.928 11
	M -6.062 11.5
	L -6.928 12
	M 0 8
	L 0 9
	L -0.866 9.5
	M 0 9
	L 0 10
	L -0.866 10.5
	L -1.732 10
	M -0.866 10.5
	L -1.732 11
	M 0 10
	L 0 11
	L -0.866 11.5
	M 0 11
	L 0 12
	L -0.866 12.5
	L -1.732 12
	M -0.866 12.5
	L -1.732 13
	L -2.598 12.5
	L -2.598 11.5
	M -2.598 12.5
	L -3.464 12
	M -1.732 13
	L -2.598 13.5
	L -3.464 13
	M -2.598 13.5
	L -3.464 14
	M 0 12
	L 0 13
	L -0.866 13.5
	M 0 13
	L 0 14
	L -0.866 14.5
	L -1.732 14
	M -0.866 14.5
	L -1.732 15
	M 0 14
	L 0 15
	L -0.866 15.5
	M 0 15
	L 0 16
	L -0.866 16.5
	L -1.732 16
	M -0.866 16.5
	L -1.732 17
	L -2.598 16.5
	L -2.598 15.5
	M -2.598 16.5
	L -3.464 16
	M -1.732 17
	L -2.598 17.5
	L -3.464 17
	M -2.598 17.5
	L -3.464 18
	L -4.33 17.5
	L -4.33 16.5
	M -4.33 17.5
	L -5.196 17
	L -5.196 16
	L -4.33 15.5
	M -5.196 16
	L -5.196 15
	M -5.196 17
	L -6.062 16.5
	L -6.062 15.5
	M -6.062 16.5
	L -6.928 16
	M -3.464 18
	L -4.33 18.5
	L -5.196 18
	M -4.33 18.5
	L -5.196 19
	L -6.062 18.5
	L -6.062 17.5
	M -6.062 18.5
	L -6.928 18
	M -5.196 19
	L -6.062 19.5
	L -6.928 19
	M -6.062 19.5
	L -6.928 20
	L -7.794 19.5
	L -7.794 18.5
	M -7.794 19.5
	L -8.66 19
	L -8.66 18
	L -7.794 17.5
	M -8.66 18
	L -8.66 17
	M -8.66 19
	L -9.526 18.5
	L -9.526 17.5
	M -9.526 18.5
	L -10.39 18
	L -10.39 17
	L -9.526 16.5
	M -10.39 17
	L -10.39 16
	L -9.526 15.5
	L -8.66 16
	M -9.526 15.5
	L -8.66 15
	M -10.39 16
	L -10.39 15
	L -9.526 14.5
	M -10.39 15
	L -10.39 14
	M -10.39 18
	L -11.26 17.5
	L -11.26 16.5
	M -11.26 17.5
	L -12.12 17
	L -12.12 16
	L -11.26 15.5
	M -12.12 16
	L -12.12 15
	M -12.12 17
	L -12.99 16.5
	L -12.99 15.5
	M -12.99 16.5
	L -13.86 16
	M -6.928 20
	L -7.794 20.5
	L -8.66 20
	M -7.794 20.5
	L -8.66 21
	L -9.526 20.5
	L -9.526 19.5
	M -9.526 20.5
	L -10.39 20
	M -8.66 21
	L -9.526 21.5
	L -10.39 21
	M -9.526 21.5
	L -10.39 22
	L -11.26 21.5
	L -11.26 20.5
	M -11.26 21.5
	L -12.12 21
	L -12.12 20
	L -11.26 19.5
	M -12.12 20
	L -12.12 19
	M -12.12 21
	L -12.99 20.5
	L -12.99 19.5
	M -12.99 20.5
	L -13.86 20
	M -10.39 22
	L -11.26 22.5
	L -12.12 22
	M -11.26 22.5
	L -12.12 23
	L -12.99 22.5
	L -12.99 21.5
	M -12.99 22.5
	L -13.86 22
	M -12.12 23
	L -12.99 23.5
	L -13.86 23
	M -12.99 23.5
	L -13.86 24
	M 0 16
	L 0 17
	L -0.866 17.5
	M 0 17
	L 0 18
	L -0.866 18.5
	L -1.732 18
	M -0.866 18.5
	L -1.732 19
	M 0 18
	L 0 19
	L -0.866 19.5
	M 0 19
	L 0 20
	L -0.866 20.5
	L -1.732 20
	M -0.866 20.5
	L -1.732 21
	L -2.598 20.5
	L -2.598 19.5
	M -2.598 20.5
	L -3.464 20
	M -1.732 21
	L -2.598 21.5
	L -3.464 21
	M -2.598 21.5
	L -3.464 22
	M 0 20
	L 0 21
	L -0.866 21.5
	M 0 21
	L 0 22
	L -0.866 22.5
	L -1.732 22
	M -0.866 22.5
	L -1.732 23
	M 0 22
	L 0 23
	L -0.866 23.5
	M 0 23
	L 0 24
	L -0.866 24.5
	L -1.732 24
	M -0.866 24.5
	L -1.732 25
	L -2.598 24.5
	L -2.598 23.5
	M -2.598 24.5
	L -3.464 24
	M -1.732 25
	L -2.598 25.5
	L -3.464 25
	M -2.598 25.5
	L -3.464 26
	L -4.33 25.5
	L -4.33 24.5
	M -4.33 25.5
	L -5.196 25
	L -5.196 24
	L -4.33 23.5
	M -5.196 24
	L -5.196 23
	M -5.196 25
	L -6.062 24.5
	L -6.062 23.5
	M -6.062 24.5
	L -6.928 24
	M -3.464 26
	L -4.33 26.5
	L -5.196 26
	M -4.33 26.5
	L -5.196 27
	L -6.062 26.5
	L -6.062 25.5
	M -6.062 26.5
	L -6.928 26
	M -5.196 27
	L -6.062 27.5
	L -6.928 27
	M -6.062 27.5
	L -6.928 28
	M 0 24
	L 0 25
	L -0.866 25.5
	M 0 25
	L 0 26
	L -0.866 26.5
	L -1.732 26
	M -0.866 26.5
	L -1.732 27
	M 0 26
	L 0 27
	L -0.866 27.5
	M 0 27
	L 0 28
	L -0.866 28.5
	L -1.732 28
	M -0.866 28.5
	L -1.732 29
	L -2.598 28.5
	L -2.598 27.5
	M -2.598 28.5
	L -3.464 28
	M -1.732 29
	L -2.598 29.5
	L -3.464 29
	M -2.598 29.5
	L -3.464 30
	M 0 28
	L 0 29
	L -0.866 29.5
	M 0 29
	L 0 30
	L -0.866 30.5
	L -1.732 30
	M -0.866 30.5
	L -1.732 31
	M 0 30
	L 0 31
	L -0.866 31.5
	M 0 31
	L 0 32
	L -0.866 32.5
	L -1.732 32
	M -0.866 32.5
	L -1.732 33
	L -2.598 32.5
	L -2.598 31.5
	M -2.598 32.5
	L -3.464 32
	M -1.732 33
	L -2.598 33.5
	L -3.464 33
	M -2.598 33.5
	L -3.464 34
	L -4.33 33.5
	L -4.33 32.5
	M -4.33 33.5
	L -5.196 33
	L -5.196 32
	L -4.33 31.5
	M -5.196 32
	L -5.196 31
	M -5.196 33
	L -6.062 32.5
	L -6.062 31.5
	M -6.062 32.5
	L -6.928 32
	M -3.464 34
	L -4.33 34.5
	L -5.196 34
	M -4.33 34.5
	L -5.196 35
	L -6.062 34.5
	L -6.062 33.5
	M -6.062 34.5
	L -6.928 34
	M -5.196 35
	L -6.062 35.5
	L -6.928 35
	M -6.062 35.5
	L -6.928 36
	L -7.794 35.5
	L -7.794 34.5
	M -7.794 35.5
	L -8.66 35
	L -8.66 34
	L -7.794 33.5
	M -8.66 34
	L -8.66 33
	M -8.66 35
	L -9.526 34.5
	L -9.526 33.5
	M -9.526 34.5
	L -10.39 34
	L -10.39 33
	L -9.526 32.5
	M -10.39 33
	L -10.39 32
	L -9.526 31.5
	L -8.66 32
	M -9.526 31.5
	L -8.66 31
	M -10.39 32
	L -10.39 31
	L -9.526 30.5
	M -10.39 31
	L -10.39 30
	M -10.39 34
	L -11.26 33.5
	L -11.26 32.5
	M -11.26 33.5
	L -12.12 33
	L -12.12 32
	L -11.26 31.5
	M -12.12 32
	L -12.12 31
	M -12.12 33
	L -12.99 32.5
	L -12.99 31.5
	M -12.99 32.5
	L -13.86 32
	M -6.928 36
	L -7.794 36.5
	L -8.66 36
	M -7.794 36.5
	L -8.66 37
	L -9.526 36.5
	L -9.526 35.5
	M -9.526 36.5
	L -10.39 36
	M -8.66 37
	L -9.526 37.5
	L -10.39 37
	M -9.526 37.5
	L -10.39 38
	L -11.26 37.5
	L -11.26 36.5
	M -11.26 37.5
	L -12.12 37
	L -12.12 36
	L -11.26 35.5
	M -12.12 36
	L -12.12 35
	M -12.12 37
	L -12.99 36.5
	L -12.99 35.5
	M -12.99 36.5
	L -13.86 36
	M -10.39 38
	L -11.26 38.5
	L -12.12 38
	M -11.26 38.5
	L -12.12 39
	L -12.99 38.5
	L -12.99 37.5
	M -12.99 38.5
	L -13.86 38
	M -12.12 39
	L -12.99 39.5
	L -13.86 39
	M -12.99 39.5
	L -13.86 40
	L -14.72 39.5
	L -14.72 38.5
	M -14.72 39.5
	L -15.59 39
	L -15.59 38
	L -14.72 37.5
	M -15.59 38
	L -15.59 37
	M -15.59 39
	L -16.45 38.5
	L -16.45 37.5
	M -16.45 38.5
	L -17.32 38
	L -17.32 37
	L -16.45 36.5
	M -17.32 37
	L -17.32 36
	L -16.45 35.5
	L -15.59 36
	M -16.45 35.5
	L -15.59 35
	M -17.32 36
	L -17.32 35
	L -16.45 34.5
	M -17.32 35
	L -17.32 34
	M -17.32 38
	L -18.19 37.5
	L -18.19 36.5
	M -18.19 37.5
	L -19.05 37
	L -19.05 36
	L -18.19 35.5
	M -19.05 36
	L -19.05 35
	M -19.05 37
	L -19.92 36.5
	L -19.92 35.5
	M -19.92 36.5
	L -20.78 36
	L -20.78 35
	L -19.92 34.5
	M -20.78 35
	L -20.78 34
	L -19.92 33.5
	L -19.05 34
	M -19.92 33.5
	L -19.05 33
	M -20.78 34
	L -20.78 33
	L -19.92 32.5
	M -20.78 33
	L -20.78 32
	L -19.92 31.5
	L -19.05 32
	M -19.92 31.5
	L -19.05 31
	L -18.19 31.5
	L -18.19 32.5
	M -18.19 31.5
	L -17.32 32
	M -19.05 31
	L -18.19 30.5
	L -17.32 31
	M -18.19 30.5
	L -17.32 30
	M -20.78 32
	L -20.78 31
	L -19.92 30.5
	M -20.78 31
	L -20.78 30
	L -19.92 29.5
	L -19.05 30
	M -19.92 29.5
	L -19.05 29
	M -20.78 30
	L -20.78 29
	L -19.92 28.5
	M -20.78 29
	L -20.78 28
	M -20.78 36
	L -21.65 35.5
	L -21.65 34.5
	M -21.65 35.5
	L -22.52 35
	L -22.52 34
	L -21.65 33.5
	M -22.52 34
	L -22.52 33
	M -22.52 35
	L -23.38 34.5
	L -23.38 33.5
	M -23.38 34.5
	L -24.25 34
	L -24.25 33
	L -23.38 32.5
	M -24.25 33
	L -24.25 32
	L -23.38 31.5
	L -22.52 32
	M -23.38 31.5
	L -22.52 31
	M -24.25 32
	L -24.25 31
	L -23.38 30.5
	M -24.25 31
	L -24.25 30
	M -24.25 34
	L -25.11 33.5
	L -25.11 32.5
	M -25.11 33.5
	L -25.98 33
	L -25.98 32
	L -25.11 31.5
	M -25.98 32
	L -25.98 31
	M -25.98 33
	L -26.85 32.5
	L -26.85 31.5
	M -26.85 32.5
	L -27.71 32
	M -13.86 40
	L -14.72 40.5
	L -15.59 40
	M -14.72 40.5
	L -15.59 41
	L -16.45 40.5
	L -16.45 39.5
	M -16.45 40.5
	L -17.32 40
	M -15.59 41
	L -16.45 41.5
	L -17.32 41
	M -16.45 41.5
	L -17.32 42
	L -18.19 41.5
	L -18.19 40.5
	M -18.19 41.5
	L -19.05 41
	L -19.05 40
	L -18.19 39.5
	M -19.05 40
	L -19.05 39
	M -19.05 41
	L -19.92 40.5
	L -19.92 39.5
	M -19.92 40.5
	L -20.78 40
	M -17.32 42
	L -18.19 42.5
	L -19.05 42
	M -18.19 42.5
	L -19.05 43
	L -19.92 42.5
	L -19.92 41.5
	M -19.92 42.5
	L -20.78 42
	M -19.05 43
	L -19.92 43.5
	L -20.78 43
	M -19.92 43.5
	L -20.78 44
	L -21.65 43.5
	L -21.65 42.5
	M -21.65 43.5
	L -22.52 43
	L -22.52 42
	L -21.65 41.5
	M -22.52 42
	L -22.52 41
	M -22.52 43
	L -23.38 42.5
	L -23.38 41.5
	M -23.38 42.5
	L -24.25 42
	L -24.25 41
	L -23.38 40.5
	M -24.25 41
	L -24.25 40
	L -23.38 39.5
	L -22.52 40
	M -23.38 39.5
	L -22.52 39
	M -24.25 40
	L -24.25 39
	L -23.38 38.5
	M -24.25 39
	L -24.25 38
	M -24.25 42
	L -25.11 41.5
	L -25.11 40.5
	M -25.11 41.5
	L -25.98 41
	L -25.98 40
	L -25.11 39.5
	M -25.98 40
	L -25.98 39
	M -25.98 41
	L -26.85 40.5
	L -26.85 39.5
	M -26.85 40.5
	L -27.71 40
	M -20.78 44
	L -21.65 44.5
	L -22.52 44
	M -21.65 44.5
	L -22.52 45
	L -23.38 44.5
	L -23.38 43.5
	M -23.38 44.5
	L -24.25 44
	M -22.52 45
	L -23.38 45.5
	L -24.25 45
	M -23.38 45.5
	L -24.25 46
	L -25.11 45.5
	L -25.11 44.5
	M -25.11 45.5
	L -25.98 45
	L -25.98 44
	L -25.11 43.5
	M -25.98 44
	L -25.98 43
	M -25.98 45
	L -26.85 44.5
	L -26.85 43.5
	M -26.85 44.5
	L -27.71 44
	M -24.25 46
	L -25.11 46.5
	L -25.98 46
	M -25.11 46.5
	L -25.98 47
	L -26.85 46.5
	L -26.85 45.5
	M -26.85 46.5
	L -27.71 46
	M -25.98 47
	L -26.85 47.5
	L -27.71 47
	M -26.85 47.5
	L -27.71 48
	M 0 32
	L 0 33
	L -0.866 33.5
	M 0 33
	L 0 34
	L -0.866 34.5
	L -1.732 34
	M -0.866 34.5
	L -1.732 35
	M 0 34
	L 0 35
	L -0.866 35.5
	M 0 35
	L 0 36
	L -0.866 36.5
	L -1.732 36
	M -0.866 36.5
	L -1.732 37
	L -2.598 36.5
	L -2.598 35.5
	M -2.598 36.5
	L -3.464 36
	M -1.732 37
	L -2.598 37.5
	L -3.464 37
	M -2.598 37.5
	L -3.464 38
	M 0 36
	L 0 37
	L -0.866 37.5
	M 0 37
	L 0 38
	L -0.866 38.5
	L -1.732 38
	M -0.866 38.5
	L -1.732 39
	M 0 38
	L 0 39
	L -0.866 39.5
	M 0 39
	L 0 40
	L -0.866 40.5
	L -1.732 40
	M -0.866 40.5
	L -1.732 41
	L -2.598 40.5
	L -2.598 39.5
	M -2.598 40.5
	L -3.464 40
	M -1.732 41
	L -2.598 41.5
	L -3.464 41
	M -2.598 41.5
	L -3.464 42
	L -4.33 41.5
	L -4.33 40.5
	M -4.33 41.5
	L -5.196 41
	L -5.196 40
	L -4.33 39.5
	M -5.196 40
	L -5.196 39
	M -5.196 41
	L -6.062 40.5
	L -6.062 39.5
	M -6.062 40.5
	L -6.928 40
	M -3.464 42
	L -4.33 42.5
	L -5.196 42
	M -4.33 42.5
	L -5.196 43
	L -6.062 42.5
	L -6.062 41.5
	M -6.062 42.5
	L -6.928 42
	M -5.196 43
	L -6.062 43.5
	L -6.928 43
	M -6.062 43.5
	L -6.928 44
	M 0 40
	L 0 41
	L -0.866 41.5
	M 0 41
	L 0 42
	L -0.866 42.5
	L -1.732 42
	M -0.866 42.5
	L -1.732 43
	M 0 42
	L 0 43
	L -0.866 43.5
	M 0 43
	L 0 44
	L -0.866 44.5
	L -1.732 44
	M -0.866 44.5
	L -1.732 45
	L -2.598 44.5
	L -2.598 43.5
	M -2.598 44.5
	L -3.464 44
	M -1.732 45
	L -2.598 45.5
	L -3.464 45
	M -2.598 45.5
	L -3.464 46
	M 0 44
	L 0 45
	L -0.866 45.5
	M 0 45
	L 0 46
	L -0.866 46.5
	L -1.732 46
	M -0.866 46.5
	L -1.732 47
	M 0 46
	L 0 47
	L -0.866 47.5
	M 0 47
	L 0 48
	L -0.866 48.5
	L -1.732 48
	M -0.866 48.5
	L -1.732 49
	L -2.598 48.5
	L -2.598 47.5
	M -2.598 48.5
	L -3.464 48
	M -1.732 49
	L -2.598 49.5
	L -3.464 49
	M -2.598 49.5
	L -3.464 50
	L -4.33 49.5
	L -4.33 48.5
	M -4.33 49.5
	L -5.196 49
	L -5.196 48
	L -4.33 47.5
	M -5.196 48
	L -5.196 47
	M -5.196 49
	L -6.062 48.5
	L -6.062 47.5
	M -6.062 48.5
	L -6.928 48
	M -3.464 50
	L -4.33 50.5
	L -5.196 50
	M -4.33 50.5
	L -5.196 51
	L -6.062 50.5
	L -6.062 49.5
	M -6.062 50.5
	L -6.928 50
	M -5.196 51
	L -6.062 51.5
	L -6.928 51
	M -6.062 51.5
	L -6.928 52
	L -7.794 51.5
	L -7.794 50.5
	M -7.794 51.5
	L -8.66 51
	L -8.66 50
	L -7.794 49.5
	M -8.66 50
	L -8.66 49
	M -8.66 51
	L -9.526 50.5
	L -9.526 49.5
	M -9.526 50.5
	L -10.39 50
	L -10.39 49
	L -9.526 48.5
	M -10.39 49
	L -10.39 48
	L -9.526 47.5
	L -8.66 48
	M -9.526 47.5
	L -8.66 47
	M -10.39 48
	L -10.39 47
	L -9.526 46.5
	M -10.39 47
	L -10.39 46
	M -10.39 50
	L -11.26 49.5
	L -11.26 48.5
	M -11.26 49.5
	L -12.12 49
	L -12.12 48
	L -11.26 47.5
	M -12.12 48
	L -12.12 47
	M -12.12 49
	L -12.99 48.5
	L -12.99 47.5
	M -12.99 48.5
	L -13.86 48
	M -6.928 52
	L -7.794 52.5
	L -8.66 52
	M -7.794 52.5
	L -8.66 53
	L -9.526 52.5
	L -9.526 51.5
	M -9.526 52.5
	L -10.39 52
	M -8.66 53
	L -9.526 53.5
	L -10.39 53
	M -9.526 53.5
	L -10.39 54
	L -11.26 53.5
	L -11.26 52.5
	M -11.26 53.5
	L -12.12 53
	L -12.12 52
	L -11.26 51.5
	M -12.12 52
	L -12.12 51
	M -12.12 53
	L -12.99 52.5
	L -12.99 51.5
	M -12.99 52.5
	L -13.86 52
	M -10.39 54
	L -11.26 54.5
	L -12.12 54
	M -11.26 54.5
	L -12.12 55
	L -12.99 54.5
	L -12.99 53.5
	M -12.99 54.5
	L -13.86 54
	M -12.12 55
	L -12.99 55.5
	L -13.86 55
	M -12.99 55.5
	L -13.86 56
	M 0 48
	L 0 49
	L -0.866 49.5
	M 0 49
	L 0 50
	L -0.866 50.5
	L -1.732 50
	M -0.866 50.5
	L -1.732 51
	M 0 50
	L 0 51
	L -0.866 51.5
	M 0 51
	L 0 52
	L -0.866 52.5
	L -1.732 52
	M -0.866 52.5
	L -1.732 53
	L -2.598 52.5
	L -2.598 51.5
	M -2.598 52.5
	L -3.464 52
	M -1.732 53
	L -2.598 53.5
	L -3.464 53
	M -2.598 53.5
	L -3.464 54
	M 0 52
	L 0 53
	L -0.866 53.5
	M 0 53
	L 0 54
	L -0.866 54.5
	L -1.732 54
	M -0.866 54.5
	L -1.732 55
	M 0 54
	L 0 55
	L -0.866 55.5
	M 0 55
	L 0 56
	L -0.866 56.5
	L -1.732 56
	M -0.866 56.5
	L -1.732 57
	L -2.598 56.5
	L -2.598 55.5
	M -2.598 56.5
	L -3.464 56
	M -1.732 57
	L -2.598 57.5
	L -3.464 57
	M -2.598 57.5
	L -3.464 58
	L -4.33 57.5
	L -4.33 56.5
	M -4.33 57.5
	L -5.196 57
	L -5.196 56
	L -4.33 55.5
	M -5.196 56
	L -5.196 55
	M -5.196 57
	L -6.062 56.5
	L -6.062 55.5
	M -6.062 56.5
	L -6.928 56
	M -3.464 58
	L -4.33 58.5
	L -5.196 58
	M -4.33 58.5
	L -5.196 59
	L -6.062 58.5
	L -6.062 57.5
	M -6.062 58.5
	L -6.928 58
	M -5.196 59
	L -6.062 59.5
	L -6.928 59
	M -6.062 59.5
	L -6.928 60
	M 0 56
	L 0 57
	L -0.866 57.5
	M 0 57
	L 0 58
	L -0.866 58.5
	L -1.732 58
	M -0.866 58.5
	L -1.732 59
	M 0 58
	L 0 59
	L -0.866 59.5
	M 0 59
	L 0 60
	L -0.866 60.5
	L -1.732 60
	M -0.866 60.5
	L -1.732 61
	L -2.598 60.5
	L -2.598 59.5
	M -2.598 60.5
	L -3.464 60
	M -1.732 61
	L -2.598 61.5
	L -3.464 61
	M -2.598 61.5
	L -3.464 62
	M 0 60
	L 0 61
	L -0.866 61.5
	M 0 61
	L 0 62
	L -0.866 62.5
	L -1.732 62
	M -0.866 62.5
	L -1.732 63
	M 0 62
	L 0 63
	L -0.866 63.5
	M 0 63
	L 0 64
	L -0.866 64.5
	L -1.732 64
	M -0.866 64.5
	L -1.732 65
	L -2.598 64.5
	L -2.598 63.5
	M -2.598 64.5
	L -3.464 64
	M -1.732 65
	L -2.598 65.5
	L -3.464 65
	M -2.598 65.5
	L -3.464 66
	L -4.33 65.5
	L -4.33 64.5
	M -4.33 65.5
	L -5.196 65
	L -5.196 64
	L -4.33 63.5
	M -5.196 64
	L -5.196 63
	M -5.196 65
	L -6.062 64.5
	L -6.062 63.5
	M -6.062 64.5
	L -6.928 64
	M -3.464 66
	L -4.33 66.5
	L -5.196 66
	M -4.33 66.5
	L -5.196 67
	L -6.062 66.5
	L -6.062 65.5
	M -6.062 66.5
	L -6.928 66
	M -5.196 67
	L -6.062 67.5
	L -6.928 67
	M -6.062 67.5
	L -6.928 68
	L -7.794 67.5
	L -7.794 66.5
	M -7.794 67.5
	L -8.66 67
	L -8.66 66
	L -7.794 65.5
	M -8.66 66
	L -8.66 65
	M -8.66 67
	L -9.526 66.5
	L -9.526 65.5
	M -9.526 66.5
	L -10.39 66
	L -10.39 65
	L -9.526 64.5
	M -10.39 65
	L -10.39 64
	L -9.526 63.5
	L -8.66 64
	M -9.526 63.5
	L -8.66 63
	M -10.39 64
	L -10.39 63
	L -9.526 62.5
	M -10.39 63
	L -10.39 62
	M -10.39 66
	L -11.26 65.5
	L -11.26 64.5
	M -11.26 65.5
	L -12.12 65
	L -12.12 64
	L -11.26 63.5
	M -12.12 64
	L -12.12 63
	M -12.12 65
	L -12.99 64.5
	L -12.99 63.5
	M -12.99 64.5
	L -13.86 64
	M -6.928 68
	L -7.794 68.5
	L -8.66 68
	M -7.794 68.5
	L -8.66 69
	L -9.526 68.5
	L -9.526 67.5
	M -9.526 68.5
	L -10.39 68
	M -8.66 69
	L -9.526 69.5
	L -10.39 69
	M -9.526 69.5
	L -10.39 70
	L -11.26 69.5
	L -11.26 68.5
	M -11.26 69.5
	L -12.12 69
	L -12.12 68
	L -11.26 67.5
	M -12.12 68
	L -12.12 67
	M -12.12 69
	L -12.99 68.5
	L -12.99 67.5
	M -12.99 68.5
	L -13.86 68
	M -10.39 70
	L -11.26 70.5
	L -12.12 70
	M -11.26 70.5
	L -12.12 71
	L -12.99 70.5
	L -12.99 69.5
	M -12.99 70.5
	L -13.86 70
	M -12.12 71
	L -12.99 71.5
	L -13.86 71
	M -12.99 71.5
	L -13.86 72
	L -14.72 71.5
	L -14.72 70.5
	M -14.72 71.5
	L -15.59 71
	L -15.59 70
	L -14.72 69.5
	M -15.59 70
	L -15.59 69
	M -15.59 71
	L -16.45 70.5
	L -16.45 69.5
	M -16.45 70.5
	L -17.32 70
	L -17.32 69
	L -16.45 68.5
	M -17.32 69
	L -17.32 68
	L -16.45 67.5
	L -15.59 68
	M -16.45 67.5
	L -15.59 67
	M -17.32 68
	L -17.32 67
	L -16.45 66.5
	M -17.32 67
	L -17.32 66
	M -17.32 70
	L -18.19 69.5
	L -18.19 68.5
	M -18.19 69.5
	L -19.05 69
	L -19.05 68
	L -18.19 67.5
	M -19.05 68
	L -19.05 67
	M -19.05 69
	L -19.92 68.5
	L -19.92 67.5
	M -19.92 68.5
	L -20.78 68
	L -20.78 67
	L -19.92 66.5
	M -20.78 67
	L -20.78 66
	L -19.92 65.5
	L -19.05 66
	M -19.92 65.5
	L -19.05 65
	M -20.78 66
	L -20.78 65
	L -19.92 64.5
	M -20.78 65
	L -20.78 64
	L -19.92 63.5
	L -19.05 64
	M -19.92 63.5
	L -19.05 63
	L -18.19 63.5
	L -18.19 64.5
	M -18.19 63.5
	L -17.32 64
	M -19.05 63
	L -18.19 62.5
	L -17.32 63
	M -18.19 62.5
	L -17.32 62
	M -20.78 64
	L -20.78 63
	L -19.92 62.5
	M -20.78 63
	L -20.78 62
	L -19.92 61.5
	L -19.05 62
	M -19.92 61.5
	L -19.05 61
	M -20.78 62
	L -20.78 61
	L -19.92 60.5
	M -20.78 61
	L -20.78 60
	M -20.78 68
	L -21.65 67.5
	L -21.65 66.5
	M -21.65 67.5
	L -22.52 67
	L -22.52 66
	L -21.65 65.5
	M -22.52 66
	L -22.52 65
	M -22.52 67
	L -23.38 66.5
	L -23.38 65.5
	M -23.38 66.5
	L -24.25 66
	L -24.25 65
	L -23.38 64.5
	M -24.25 65
	L -24.25 64
	L -23.38 63.5
	L -22.52 64
	M -23.38 63.5
	L -22.52 63
	M -24.25 64
	L -24.25 63
	L -23.38 62.5
	M -24.25 63
	L -24.25 62
	M -24.25 66
	L -25.11 65.5
	L -25.11 64.5
	M -25.11 65.5
	L -25.98 65
	L -25.98 64
	L -25.11 63.5
	M -25.98 64
	L -25.98 63
	M -25.98 65
	L -26.85 64.5
	L -26.85 63.5
	M -26.85 64.5
	L -27.71 64
	M -13.86 72
	L -14.72 72.5
	L -15.59 72
	M -14.72 72.5
	L -15.59 73
	L -16.45 72.5
	L -16.45 71.5
	M -16.45 72.5
	L -17.32 72
	M -15.59 73
	L -16.45 73.5
	L -17.32 73
	M -16.45 73.5
	L -17.32 74
	L -18.19 73.5
	L -18.19 72.5
	M -18.19 73.5
	L -19.05 73
	L -19.05 72
	L -18.19 71.5
	M -19.05 72
	L -19.05 71
	M -19.05 73
	L -19.92 72.5
	L -19.92 71.5
	M -19.92 72.5
	L -20.78 72
	M -17.32 74
	L -18.19 74.5
	L -19.05 74
	M -18.19 74.5
	L -19.05 75
	L -19.92 74.5
	L -19.92 73.5
	M -19.92 74.5
	L -20.78 74
	M -19.05 75
	L -19.92 75.5
	L -20.78 75
	M -19.92 75.5
	L -20.78 76
	L -21.65 75.5
	L -21.65 74.5
	M -21.65 75.5
	L -22.52 75
	L -22.52 74
	L -21.65 73.5
	M -22.52 74
	L -22.52 73
	M -22.52 75
	L -23.38 74.5
	L -23.38 73.5
	M -23.38 74.5
	L -24.25 74
	L -24.25 73
	L -23.38 72.5
	M -24.25 73
	L -24.25 72
	L -23.38 71.5
	L -22.52 72
	M -23.38 71.5
	L -22.52 71
	M -24.25 72
	L -24.25 71
	L -23.38 70.5
	M -24.25 71
	L -24.25 70
	M -24.25 74
	L -25.11 73.5
	L -25.11 72.5
	M -25.11 73.5
	L -25.98 73
	L -25.98 72
	L -25.11 71.5
	M -25.98 72
	L -25.98 71
	M -25.98 73
	L -26.85 72.5
	L -26.85 71.5
	M -26.85 72.5
	L -27.71 72
	M -20.78 76
	L -21.65 76.5
	L -22.52 76
	M -21.65 76.5
	L -22.52 77
	L -23.38 76.5
	L -23.38 75.5
	M -23.38 76.5
	L -24.25 76
	M -22.52 77
	L -23.38 77.5
	L -24.25 77
	M -23.38 77.5
	L -24.25 78
	L -25.11 77.5
	L -25.11 76.5
	M -25.11 77.5
	L -25.98 77
	L -25.98 76
	L -25.11 75.5
	M -25.98 76
	L -25.98 75
	M -25.98 77
	L -26.85 76.5
	L -26.85 75.5
	M -26.85 76.5
	L -27.71 76
	M -24.25 78
	L -25.11 78.5
	L -25.98 78
	M -25.11 78.5
	L -25.98 79
	L -26.85 78.5
	L -26.85 77.5
	M -26.85 78.5
	L -27.71 78
	M -25.98 79
	L -26.85 79.5
	L -27.71 79
	M -26.85 79.5
	L -27.71 80
	L -28.58 79.5
	L -28.58 78.5
	M -28.58 79.5
	L -29.44 79
	L -29.44 78
	L -28.58 77.5
	M -29.44 78
	L -29.44 77
	M -29.44 79
	L -30.31 78.5
	L -30.31 77.5
	M -30.31 78.5
	L -31.18 78
	L -31.18 77
	L -30.31 76.5
	M -31.18 77
	L -31.18 76
	L -30.31 75.5
	L -29.44 76
	M -30.31 75.5
	L -29.44 75
	M -31.18 76
	L -31.18 75
	L -30.31 74.5
	M -31.18 75
	L -31.18 74
	M -31.18 78
	L -32.04 77.5
	L -32.04 76.5
	M -32.04 77.5
	L -32.91 77
	L -32.91 76
	L -32.04 75.5
	M -32.91 76
	L -32.91 75
	M -32.91 77
	L -33.77 76.5
	L -33.77 75.5
	M -33.77 76.5
	L -34.64 76
	L -34.64 75
	L -33.77 74.5
	M -34.64 75
	L -34.64 74
	L -33.77 73.5
	L -32.91 74
	M -33.77 73.5
	L -32.91 73
	M -34.64 74
	L -34.64 73
	L -33.77 72.5
	M -34.64 73
	L -34.64 72
	L -33.77 71.5
	L -32.91 72
	M -33.77 71.5
	L -32.91 71
	L -32.04 71.5
	L -32.04 72.5
	M -32.04 71.5
	L -31.18 72
	M -32.91 71
	L -32.04 70.5
	L -31.18 71
	M -32.04 70.5
	L -31.18 70
	M -34.64 72
	L -34.64 71
	L -33.77 70.5
	M -34.64 71
	L -34.64 70
	L -33.77 69.5
	L -32.91 70
	M -33.77 69.5
	L -32.91 69
	M -34.64 70
	L -34.64 69
	L -33.77 68.5
	M -34.64 69
	L -34.64 68
	M -34.64 76
	L -35.51 75.5
	L -35.51 74.5
	M -35.51 75.5
	L -36.37 75
	L -36.37 74
	L -35.51 73.5
	M -36.37 74
	L -36.37 73
	M -36.37 75
	L -37.24 74.5
	L -37.24 73.5
	M -37.24 74.5
	L -38.11 74
	L -38.11 73
	L -37.24 72.5
	M -38.11 73
	L -38.11 72
	L -37.24 71.5
	L -36.37 72
	M -37.24 71.5
	L -36.37 71
	M -38.11 72
	L -38.11 71
	L -37.24 70.5
	M -38.11 71
	L -38.11 70
	M -38.11 74
	L -38.97 73.5
	L -38.97 72.5
	M -38.97 73.5
	L -39.84 73
	L -39.84 72
	L -38.97 71.5
	M -39.84 72
	L -39.84 71
	M -39.84 73
	L -40.7 72.5
	L -40.7 71.5
	M -40.7 72.5
	L -41.57 72
	L -41.57 71
	L -40.7 70.5
	M -41.57 71
	L -41.57 70
	L -40.7 69.5
	L -39.84 70
	M -40.7 69.5
	L -39.84 69
	M -41.57 70
	L -41.57 69
	L -40.7 68.5
	M -41.57 69
	L -41.57 68
	L -40.7 67.5
	L -39.84 68
	M -40.7 67.5
	L -39.84 67
	L -38.97 67.5
	L -38.97 68.5
	M -38.97 67.5
	L -38.11 68
	M -39.84 67
	L -38.97 66.5
	L -38.11 67
	M -38.97 66.5
	L -38.11 66
	M -41.57 68
	L -41.57 67
	L -40.7 66.5
	M -41.57 67
	L -41.57 66
	L -40.7 65.5
	L -39.84 66
	M -40.7 65.5
	L -39.84 65
	M -41.57 66
	L -41.57 65
	L -40.7 64.5
	M -41.57 65
	L -41.57 64
	L -40.7 63.5
	L -39.84 64
	M -40.7 63.5
	L -39.84 63
	L -38.97 63.5
	L -38.97 64.5
	M -38.97 63.5
	L -38.11 64
	M -39.84 63
	L -38.97 62.5
	L -38.11 63
	M -38.97 62.5
	L -38.11 62
	L -37.24 62.5
	L -37.24 63.5
	M -37.24 62.5
	L -36.37 63
	L -36.37 64
	L -37.24 64.5
	M -36.37 64
	L -36.37 65
	M -36.37 63
	L -35.51 63.5
	L -35.51 64.5
	M -35.51 63.5
	L -34.64 64
	M -38.11 62
	L -37.24 61.5
	L -36.37 62
	M -37.24 61.5
	L -36.37 61
	L -35.51 61.5
	L -35.51 62.5
	M -35.51 61.5
	L -34.64 62
	M -36.37 61
	L -35.51 60.5
	L -34.64 61
	M -35.51 60.5
	L -34.64 60
	M -41.57 64
	L -41.57 63
	L -40.7 62.5
	M -41.57 63
	L -41.57 62
	L -40.7 61.5
	L -39.84 62
	M -40.7 61.5
	L -39.84 61
	M -41.57 62
	L -41.57 61
	L -40.7 60.5
	M -41.57 61
	L -41.57 60
	L -40.7 59.5
	L -39.84 60
	M -40.7 59.5
	L -39.84 59
	L -38.97 59.5
	L -38.97 60.5
	M -38.97 59.5
	L -38.11 60
	M -39.84 59
	L -38.97 58.5
	L -38.11 59
	M -38.97 58.5
	L -38.11 58
	M -41.57 60
	L -41.57 59
	L -40.7 58.5
	M -41.57 59
	L -41.57 58
	L -40.7 57.5
	L -39.84 58
	M -40.7 57.5
	L -39.84 57
	M -41.57 58
	L -41.57 57
	L -40.7 56.5
	M -41.57 57
	L -41.57 56
	M -41.57 72
	L -42.44 71.5
	L -42.44 70.5
	M -42.44 71.5
	L -43.3 71
	L -43.3 70
	L -42.44 69.5
	M -43.3 70
	L -43.3 69
	M -43.3 71
	L -44.17 70.5
	L -44.17 69.5
	M -44.17 70.5
	L -45.03 70
	L -45.03 69
	L -44.17 68.5
	M -45.03 69
	L -45.03 68
	L -44.17 67.5
	L -43.3 68
	M -44.17 67.5
	L -43.3 67
	M -45.03 68
	L -45.03 67
	L -44.17 66.5
	M -45.03 67
	L -45.03 66
	M -45.03 70
	L -45.9 69.5
	L -45.9 68.5
	M -45.9 69.5
	L -46.77 69
	L -46.77 68
	L -45.9 67.5
	M -46.77 68
	L -46.77 67
	M -46.77 69
	L -47.63 68.5
	L -47.63 67.5
	M -47.63 68.5
	L -48.5 68
	L -48.5 67
	L -47.63 66.5
	M -48.5 67
	L -48.5 66
	L -47.63 65.5
	L -46.77 66
	M -47.63 65.5
	L -46.77 65
	M -48.5 66
	L -48.5 65
	L -47.63 64.5
	M -48.5 65
	L -48.5 64
	L -47.63 63.5
	L -46.77 64
	M -47.63 63.5
	L -46.77 63
	L -45.9 63.5
	L -45.9 64.5
	M -45.9 63.5
	L -45.03 64
	M -46.77 63
	L -45.9 62.5
	L -45.03 63
	M -45.9 62.5
	L -45.03 62
	M -48.5 64
	L -48.5 63
	L -47.63 62.5
	M -48.5 63
	L -48.5 62
	L -47.63 61.5
	L -46.77 62
	M -47.63 61.5
	L -46.77 61
	M -48.5 62
	L -48.5 61
	L -47.63 60.5
	M -48.5 61
	L -48.5 60
	M -48.5 68
	L -49.36 67.5
	L -49.36 66.5
	M -49.36 67.5
	L -50.23 67
	L -50.23 66
	L -49.36 65.5
	M -50.23 66
	L -50.23 65
	M -50.23 67
	L -51.1 66.5
	L -51.1 65.5
	M -51.1 66.5
	L -51.96 66
	L -51.96 65
	L -51.1 64.5
	M -51.96 65
	L -51.96 64
	L -51.1 63.5
	L -50.23 64
	M -51.1 63.5
	L -50.23 63
	M -51.96 64
	L -51.96 63
	L -51.1 62.5
	M -51.96 63
	L -51.96 62
	M -51.96 66
	L -52.83 65.5
	L -52.83 64.5
	M -52.83 65.5
	L -53.69 65
	L -53.69 64
	L -52.83 63.5
	M -53.69 64
	L -53.69 63
	M -53.69 65
	L -54.56 64.5
	L -54.56 63.5
	M -54.56 64.5
	L -55.43 64
	M -27.71 80
	L -28.58 80.5
	L -29.44 80
	M -28.58 80.5
	L -29.44 81
	L -30.31 80.5
	L -30.31 79.5
	M -30.31 80.5
	L -31.18 80
	M -29.44 81
	L -30.31 81.5
	L -31.18 81
	M -30.31 81.5
	L -31.18 82
	L -32.04 81.5
	L -32.04 80.5
	M -32.04 81.5
	L -32.91 81
	L -32.91 80
	L -32.04 79.5
	M -32.91 80
	L -32.91 79
	M -32.91 81
	L -33.77 80.5
	L -33.77 79.5
	M -33.77 80.5
	L -34.64 80
	M -31.18 82
	L -32.04 82.5
	L -32.91 82
	M -32.04 82.5
	L -32.91 83
	L -33.77 82.5
	L -33.77 81.5
	M -33.77 82.5
	L -34.64 82
	M -32.91 83
	L -33.77 83.5
	L -34.64 83
	M -33.77 83.5
	L -34.64 84
	L -35.51 83.5
	L -35.51 82.5
	M -35.51 83.5
	L -36.37 83
	L -36.37 82
	L -35.51 81.5
	M -36.37 82
	L -36.37 81
	M -36.37 83
	L -37.24 82.5
	L -37.24 81.5
	M -37.24 82.5
	L -38.11 82
	L -38.11 81
	L -37.24 80.5
	M -38.11 81
	L -38.11 80
	L -37.24 79.5
	L -36.37 80
	M -37.24 79.5
	L -36.37 79
	M -38.11 80
	L -38.11 79
	L -37.24 78.5
	M -38.11 79
	L -38.11 78
	M -38.11 82
	L -38.97 81.5
	L -38.97 80.5
	M -38.97 81.5
	L -39.84 81
	L -39.84 80
	L -38.97 79.5
	M -39.84 80
	L -39.84 79
	M -39.84 81
	L -40.7 80.5
	L -40.7 79.5
	M -40.7 80.5
	L -41.57 80
	M -34.64 84
	L -35.51 84.5
	L -36.37 84
	M -35.51 84.5
	L -36.37 85
	L -37.24 84.5
	L -37.24 83.5
	M -37.24 84.5
	L -38.11 84
	M -36.37 85
	L -37.24 85.5
	L -38.11 85
	M -37.24 85.5
	L -38.11 86
	L -38.97 85.5
	L -38.97 84.5
	M -38.97 85.5
	L -39.84 85
	L -39.84 84
	L -38.97 83.5
	M -39.84 84
	L -39.84 83
	M -39.84 85
	L -40.7 84.5
	L -40.7 83.5
	M -40.7 84.5
	L -41.57 84
	M -38.11 86
	L -38.97 86.5
	L -39.84 86
	M -38.97 86.5
	L -39.84 87
	L -40.7 86.5
	L -40.7 85.5
	M -40.7 86.5
	L -41.57 86
	M -39.84 87
	L -40.7 87.5
	L -41.57 87
	M -40.7 87.5
	L -41.57 88
	L -42.44 87.5
	L -42.44 86.5
	M -42.44 87.5
	L -43.3 87
	L -43.3 86
	L -42.44 85.5
	M -43.3 86
	L -43.3 85
	M -43.3 87
	L -44.17 86.5
	L -44.17 85.5
	M -44.17 86.5
	L -45.03 86
	L -45.03 85
	L -44.17 84.5
	M -45.03 85
	L -45.03 84
	L -44.17 83.5
	L -43.3 84
	M -44.17 83.5
	L -43.3 83
	M -45.03 84
	L -45.03 83
	L -44.17 82.5
	M -45.03 83
	L -45.03 82
	M -45.03 86
	L -45.9 85.5
	L -45.9 84.5
	M -45.9 85.5
	L -46.77 85
	L -46.77 84
	L -45.9 83.5
	M -46.77 84
	L -46.77 83
	M -46.77 85
	L -47.63 84.5
	L -47.63 83.5
	M -47.63 84.5
	L -48.5 84
	L -48.5 83
	L -47.63 82.5
	M -48.5 83
	L -48.5 82
	L -47.63 81.5
	L -46.77 82
	M -47.63 81.5
	L -46.77 81
	M -48.5 82
	L -48.5 81
	L -47.63 80.5
	M -48.5 81
	L -48.5 80
	L -47.63 79.5
	L -46.77 80
	M -47.63 79.5
	L -46.77 79
	L -45.9 79.5
	L -45.9 80.5
	M -45.9 79.5
	L -45.03 80
	M -46.77 79
	L -45.9 78.5
	L -45.03 79
	M -45.9 78.5
	L -45.03 78
	M -48.5 80
	L -48.5 79
	L -47.63 78.5
	M -48.5 79
	L -48.5 78
	L -47.63 77.5
	L -46.77 78
	M -47.63 77.5
	L -46.77 77
	M -48.5 78
	L -48.5 77
	L -47.63 76.5
	M -48.5 77
	L -48.5 76
	M -48.5 84
	L -49.36 83.5
	L -49.36 82.5
	M -49.36 83.5
	L -50.23 83
	L -50.23 82
	L -49.36 81.5
	M -50.23 82
	L -50.23 81
	M -50.23 83
	L -51.1 82.5
	L -51.1 81.5
	M -51.1 82.5
	L -51.96 82
	L -51.96 81
	L -51.1 80.5
	M -51.96 81
	L -51.96 80
	L -51.1 79.5
	L -50.23 80
	M -51.1 79.5
	L -50.23 79
	M -51.96 80
	L -51.96 79
	L -51.1 78.5
	M -51.96 79
	L -51.96 78
	M -51.96 82
	L -52.83 81.5
	L -52.83 80.5
	M -52.83 81.5
	L -53.69 81
	L -53.69 80
	L -52.83 79.5
	M -53.69 80
	L -53.69 79
	M -53.69 81
	L -54.56 80.5
	L -54.56 79.5
	M -54.56 80.5
	L -55.43 80
	M -41.57 88
	L -42.44 88.5
	L -43.3 88
	M -42.44 88.5
	L -43.3 89
	L -44.17 88.5
	L -44.17 87.5
	M -44.17 88.5
	L -45.03 88
	M -43.3 89
	L -44.17 89.5
	L -45.03 89
	M -44.17 89.5
	L -45.03 90
	L -45.9 89.5
	L -45.9 88.5
	M -45.9 89.5
	L -46.77 89
	L -46.77 88
	L -45.9 87.5
	M -46.77 88
	L -46.77 87
	M -46.77 89
	L -47.63 88.5
	L -47.63 87.5
	M -47.63 88.5
	L -48.5 88
	M -45.03 90
	L -45.9 90.5
	L -46.77 90
	M -45.9 90.5
	L -46.77 91
	L -47.63 90.5
	L -47.63 89.5
	M -47.63 90.5
	L -48.5 90
	M -46.77 91
	L -47.63 91.5
	L -48.5 91
	M -47.63 91.5
	L -48.5 92
	L -49.36 91.5
	L -49.36 90.5
	M -49.36 91.5
	L -50.23 91
	L -50.23 90
	L -49.36 89.5
	M -50.23 90
	L -50.23 89
	M -50.23 91
	L -51.1 90.5
	L -51.1 89.5
	M -51.1 90.5
	L -51.96 90
	L -51.96 89
	L -51.1 88.5
	M -51.96 89
	L -51.96 88
	L -51.1 87.5
	L -50.23 88
	M -51.1 87.5
	L -50.23 87
	M -51.96 88
	L -51.96 87
	L -51.1 86.5
	M -51.96 87
	L -51.96 86
	M -51.96 90
	L -52.83 89.5
	L -52.83 88.5
	M -52.83 89.5
	L -53.69 89
	L -53.69 88
	L -52.83 87.5
	M -53.69 88
	L -53.69 87
	M -53.69 89
	L -54.56 88.5
	L -54.56 87.5
	M -54.56 88.5
	L -55.43 88
	M -48.5 92
	L -49.36 92.5
	L -50.23 92
	M -49.36 92.5
	L -50.23 93
	L -51.1 92.5
	L -51.1 91.5
	M -51.1 92.5
	L -51.96 92
	M -50.23 93
	L -51.1 93.5
	L -51.96 93
	M -51.1 93.5
	L -51.96 94
	L -52.83 93.5
	L -52.83 92.5
	M -52.83 93.5
	L -53.69 93
	L -53.69 92
	L -52.83 91.5
	M -53.69 92
	L -53.69 91
	M -53.69 93
	L -54.56 92.5
	L -54.56 91.5
	M -54.56 92.5
	L -55.43 92
	M -51.96 94
	L -52.83 94.5
	L -53.69 94
	M -52.83 94.5
	L -53.69 95
	L -54.56 94.5
	L -54.56 93.5
	M -54.56 94.5
	L -55.43 94
	M -53.69 95
	L -54.56 95.5
	L -55.43 95
	M -54.56 95.5
	L -55.43 96
	M 0 64
	L 0 65
	L -0.866 65.5
	M 0 65
	L 0 66
	L -0.866 66.5
	L -1.732 66
	M -0.866 66.5
	L -1.732 67
	M 0 66
	L 0 67
	L -0.866 67.5
	M 0 67
	L 0 68
	L -0.866 68.5
	L -1.732 68
	M -0.866 68.5
	L -1.732 69
	L -2.598 68.5
	L -2.598 67.5
	M -2.598 68.5
	L -3.464 68
	M -1.732 69
	L -2.598 69.5
	L -3.464 69
	M -2.598 69.5
	L -3.464 70
	M 0 68
	L 0 69
	L -0.866 69.5
	M 0 69
	L 0 70
	L -0.866 70.5
	L -1.732 70
	M -0.866 70.5
	L -1.732 71
	M 0 70
	L 0 71
	L -0.866 71.5
	M 0 71
	L 0 72
	L -0.866 72.5
	L -1.732 72
	M -0.866 72.5
	L -1.732 73
	L -2.598 72.5
	L -2.598 71.5
	M -2.598 72.5
	L -3.464 72
	M -1.732 73
	L -2.598 73.5
	L -3.464 73
	M -2.598 73.5
	L -3.464 74
	L -4.33 73.5
	L -4.33 72.5
	M -4.33 73.5
	L -5.196 73
	L -5.196 72
	L -4.33 71.5
	M -5.196 72
	L -5.196 71
	M -5.196 73
	L -6.062 72.5
	L -6.062 71.5
	M -6.062 72.5
	L -6.928 72
	M -3.464 74
	L -4.33 74.5
	L -5.196 74
	M -4.33 74.5
	L -5.196 75
	L -6.062 74.5
	L -6.062 73.5
	M -6.062 74.5
	L -6.928 74
	M -5.196 75
	L -6.062 75.5
	L -6.928 75
	M -6.062 75.5
	L -6.928 76
	M 0 72
	L 0 73
	L -0.866 73.5
	M 0 73
	L 0 74
	L -0.866 74.5
	L -1.732 74
	M -0.866 74.5
	L -1.732 75
	M 0 74
	L 0 75
	L -0.866 75.5
	M 0 75
	L 0 76
	L -0.866 76.5
	L -1.732 76
	M -0.866 76.5
	L -1.732 77
	L -2.598 76.5
	L -2.598 75.5
	M -2.598 76.5
	L -3.464 76
	M -1.732 77
	L -2.598 77.5
	L -3.464 77
	M -2.598 77.5
	L -3.464 78
	M 0 76
	L 0 77
	L -0.866 77.5
	M 0 77
	L 0 78
	L -0.866 78.5
	L -1.732 78
	M -0.866 78.5
	L -1.732 79
	M 0 78
	L 0 79
	L -0.866 79.5
	M 0 79
	L 0 80
	L -0.866 80.5
	L -1.732 80
	M -0.866 80.5
	L -1.732 81
	L -2.598 80.5
	L -2.598 79.5
	M -2.598 80.5
	L -3.464 80
	M -1.732 81
	L -2.598 81.5
	L -3.464 81
	M -2.598 81.5
	L -3.464 82
	L -4.33 81.5
	L -4.33 80.5
	M -4.33 81.5
	L -5.196 81
	L -5.196 80
	L -4.33 79.5
	M -5.196 80
	L -5.196 79
	M -5.196 81
	L -6.062 80.5
	L -6.062 79.5
	M -6.062 80.5
	L -6.928 80
	M -3.464 82
	L -4.33 82.5
	L -5.196 82
	M -4.33 82.5
	L -5.196 83
	L -6.062 82.5
	L -6.062 81.5
	M -6.062 82.5
	L -6.928 82
	M -5.196 83
	L -6.062 83.5
	L -6.928 83
	M -6.062 83.5
	L -6.928 84
	L -7.794 83.5
	L -7.794 82.5
	M -7.794 83.5
	L -8.66 83
	L -8.66 82
	L -7.794 81.5
	M -8.66 82
	L -8.66 81
	M -8.66 83
	L -9.526 82.5
	L -9.526 81.5
	M -9.526 82.5
	L -10.39 82
	L -10.39 81
	L -9.526 80.5
	M -10.39 81
	L -10.39 80
	L -9.526 79.5
	L -8.66 80
	M -9.526 79.5
	L -8.66 79
	M -10.39 80
	L -10.39 79
	L -9.526 78.5
	M -10.39 79
	L -10.39 78
	M -10.39 82
	L -11.26 81.5
	L -11.26 80.5
	M -11.26 81.5
	L -12.12 81
	L -12.12 80
	L -11.26 79.5
	M -12.12 80
	L -12.12 79
	M -12.12 81
	L -12.99 80.5
	L -12.99 79.5
	M -12.99 80.5
	L -13.86 80
	M -6.928 84
	L -7.794 84.5
	L -8.66 84
	M -7.794 84.5
	L -8.66 85
	L -9.526 84.5
	L -9.526 83.5
	M -9.526 84.5
	L -10.39 84
	M -8.66 85
	L -9.526 85.5
	L -10.39 85
	M -9.526 85.5
	L -10.39 86
	L -11.26 85.5
	L -11.26 84.5
	M -11.26 85.5
	L -12.12 85
	L -12.12 84
	L -11.26 83.5
	M -12.12 84
	L -12.12 83
	M -12.12 85
	L -12.99 84.5
	L -12.99 83.5
	M -12.99 84.5
	L -13.86 84
	M -10.39 86
	L -11.26 86.5
	L -12.12 86
	M -11.26 86.5
	L -12.12 87
	L -12.99 86.5
	L -12.99 85.5
	M -12.99 86.5
	L -13.86 86
	M -12.12 87
	L -12.99 87.5
	L -13.86 87
	M -12.99 87.5
	L -13.86 88
	M 0 80
	L 0 81
	L -0.866 81.5
	M 0 81
	L 0 82
	L -0.866 82.5
	L -1.732 82
	M -0.866 82.5
	L -1.732 83
	M 0 82
	L 0 83
	L -0.866 83.5
	M 0 83
	L 0 84
	L -0.866 84.5
	L -1.732 84
	M -0.866 84.5
	L -1.732 85
	L -2.598 84.5
	L -2.598 83.5
	M -2.598 84.5
	L -3.464 84
	M -1.732 85
	L -2.598 85.5
	L -3.464 85
	M -2.598 85.5
	L -3.464 86
	M 0 84
	L 0 85
	L -0.866 85.5
	M 0 85
	L 0 86
	L -0.866 86.5
	L -1.732 86
	M -0.866 86.5
	L -1.732 87
	M 0 86
	L 0 87
	L -0.866 87.5
	M 0 87
	L 0 88
	L -0.866 88.5
	L -1.732 88
	M -0.866 88.5
	L -1.732 89
	L -2.598 88.5
	L -2.598 87.5
	M -2.598 88.5
	L -3.464 88
	M -1.732 89
	L -2.598 89.5
	L -3.464 89
	M -2.598 89.5
	L -3.464 90
	L -4.33 89.5
	L -4.33 88.5
	M -4.33 89.5
	L -5.196 89
	L -5.196 88
	L -4.33 87.5
	M -5.196 88
	L -5.196 87
	M -5.196 89
	L -6.062 88.5
	L -6.062 87.5
	M -6.062 88.5
	L -6.928 88
	M -3.464 90
	L -4.33 90.5
	L -5.196 90
	M -4.33 90.5
	L -5.196 91
	L -6.062 90.5
	L -6.062 89.5
	M -6.062 90.5
	L -6.928 90
	M -5.196 91
	L -6.062 91.5
	L -6.928 91
	M -6.062 91.5
	L -6.928 92
	M 0 88
	L 0 89
	L -0.866 89.5
	M 0 89
	L 0 90
	L -0.866 90.5
	L -1.732 90
	M -0.866 90.5
	L -1.732 91
	M 0 90
	L 0 91
	L -0.866 91.5
	M 0 91
	L 0 92
	L -0.866 92.5
	L -1.732 92
	M -0.866 92.5
	L -1.732 93
	L -2.598 92.5
	L -2.598 91.5
	M -2.598 92.5
	L -3.464 92
	M -1.732 93
	L -2.598 93.5
	L -3.464 93
	M -2.598 93.5
	L -3.464 94
	M 0 92
	L 0 93
	L -0.866 93.5
	M 0 93
	L 0 94
	L -0.866 94.5
	L -1.732 94
	M -0.866 94.5
	L -1.732 95
	M 0 94
	L 0 95
	L -0.866 95.5
	M 0 95
	L 0 96
	L -0.866 96.5
	L -1.732 96
	M -0.866 96.5
	L -1.732 97
	L -2.598 96.5
	L -2.598 95.5
	M -2.598 96.5
	L -3.464 96
	M -1.732 97
	L -2.598 97.5
	L -3.464 97
	M -2.598 97.5
	L -3.464 98
	L -4.33 97.5
	L -4.33 96.5
	M -4.33 97.5
	L -5.196 97
	L -5.196 96
	L -4.33 95.5
	M -5.196 96
	L -5.196 95
	M -5.196 97
	L -6.062 96.5
	L -6.062 95.5
	M -6.062 96.5
	L -6.928 96
	M -3.464 98
	L -4.33 98.5
	L -5.196 98
	M -4.33 98.5
	L -5.196 99
	L -6.062 98.5
	L -6.062 97.5
	M -6.062 98.5
	L -6.928 98
	M -5.196 99
	L -6.062 99.5
	L -6.928 99
	M -6.062 99.5
	L -6.928 100
	L -7.794 99.5
	L -7.794 98.5
	M -7.794 99.5
	L -8.66 99
	L -8.66 98
	L -7.794 97.5
	M -8.66 98
	L -8.66 97
	M -8.66 99
	L -9.526 98.5
	L -9.526 97.5
	M -9.526 98.5
	L -10.39 98
	L -10.39 97
	L -9.526 96.5
	M -10.39 97
	L -10.39 96
	L -9.526 95.5
	L -8.66 96
	M -9.526 95.5
	L -8.66 95
	M -10.39 96
	L -10.39 95
	L -9.526 94.5
	M -10.39 95
	L -10.39 94
	M -10.39 98
	L -11.26 97.5
	L -11.26 96.5
	M -11.26 97.5
	L -12.12 97
	L -12.12 96
	L -11.26 95.5
	M -12.12 96
	L -12.12 95
	M -12.12 97
	L -12.99 96.5
	L -12.99 95.5
	M -12.99 96.5
	L -13.86 96
	M -6.928 100
	L -7.794 100.5
	L -8.66 100
	M -7.794 100.5
	L -8.66 101
	L -9.526 100.5
	L -9.526 99.5
	M -9.526 100.5
	L -10.39 100
	M -8.66 101
	L -9.526 101.5
	L -10.39 101
	M -9.526 101.5
	L -10.39 102
	L -11.26 101.5
	L -11.26 100.5
	M -11.26 101.5
	L -12.12 101
	L -12.12 100
	L -11.26 99.5
	M -12.12 100
	L -12.12 99
	M -12.12 101
	L -12.99 100.5
	L -12.99 99.5
	M -12.99 100.5
	L -13.86 100
	M -10.39 102
	L -11.26 102.5
	L -12.12 102
	M -11.26 102.5
	L -12.12 103
	L -12.99 102.5
	L -12.99 101.5
	M -12.99 102.5
	L -13.86 102
	M -12.12 103
	L -12.99 103.5
	L -13.86 103
	M -12.99 103.5
	L -13.86 104
	L -14.72 103.5
	L -14.72 102.5
	M -14.72 103.5
	L -15.59 103
	L -15.59 102
	L -14.72 101.5
	M -15.59 102
	L -15.59 101
	M -15.59 103
	L -16.45 102.5
	L -16.45 101.5
	M -16.45 102.5
	L -17.32 102
	L -17.32 101
	L -16.45 100.5
	M -17.32 101
	L -17.32 100
	L -16.45 99.5
	L -15.59 100
	M -16.45 99.5
	L -15.59 99
	M -17.32 100
	L -17.32 99
	L -16.45 98.5
	M -17.32 99
	L -17.32 98
	M -17.32 102
	L -18.19 101.5
	L -18.19 100.5
	M -18.19 101.5
	L -19.05 101
	L -19.05 100
	L -18.19 99.5
	M -19.05 100
	L -19.05 99
	M -19.05 101
	L -19.92 100.5
	L -19.92 99.5
	M -19.92 100.5
	L -20.78 100
	L -20.78 99
	L -19.92 98.5
	M -20.78 99
	L -20.78 98
	L -19.92 97.5
	L -19.05 98
	M -19.92 97.5
	L -19.05 97
	M -20.78 98
	L -20.78 97
	L -19.92 96.5
	M -20.78 97
	L -20.78 96
	L -19.92 95.5
	L -19.05 96
	M -19.92 95.5
	L -19.05 95
	L -18.19 95.5
	L -18.19 96.5
	M -18.19 95.5
	L -17.32 96
	M -19.05 95
	L -18.19 94.5
	L -17.32 95
	M -18.19 94.5
	L -17.32 94
	M -20.78 96
	L -20.78 95
	L -19.92 94.5
	M -20.78 95
	L -20.78 94
	L -19.92 93.5
	L -19.05 94
	M -19.92 93.5
	L -19.05 93
	M -20.78 94
	L -20.78 93
	L -19.92 92.5
	M -20.78 93
	L -20.78 92
	M -20.78 100
	L -21.65 99.5
	L -21.65 98.5
	M -21.65 99.5
	L -22.52 99
	L -22.52 98
	L -21.65 97.5
	M -22.52 98
	L -22.52 97
	M -22.52 99
	L -23.38 98.5
	L -23.38 97.5
	M -23.38 98.5
	L -24.25 98
	L -24.25 97
	L -23.38 96.5
	M -24.25 97
	L -24.25 96
	L -23.38 95.5
	L -22.52 96
	M -23.38 95.5
	L -22.52 95
	M -24.25 96
	L -24.25 95
	L -23.38 94.5
	M -24.25 95
	L -24.25 94
	M -24.25 98
	L -25.11 97.5
	L -25.11 96.5
	M -25.11 97.5
	L -25.98 97
	L -25.98 96
	L -25.11 95.5
	M -25.98 96
	L -25.98 95
	M -25.98 97
	L -26.85 96.5
	L -26.85 95.5
	M -26.85 96.5
	L -27.71 96
	M -13.86 104
	L -14.72 104.5
	L -15.59 104
	M -14.72 104.5
	L -15.59 105
	L -16.45 104.5
	L -16.45 103.5
	M -16.45 104.5
	L -17.32 104
	M -15.59 105
	L -16.45 105.5
	L -17.32 105
	M -16.45 105.5
	L -17.32 106
	L -18.19 105.5
	L -18.19 104.5
	M -18.19 105.5
	L -19.05 105
	L -19.05 104
	L -18.19 103.5
	M -19.05 104
	L -19.05 103
	M -19.05 105
	L -19.92 104.5
	L -19.92 103.5
	M -19.92 104.5
	L -20.78 104
	M -17.32 106
	L -18.19 106.5
	L -19.05 106
	M -18.19 106.5
	L -19.05 107
	L -19.92 106.5
	L -19.92 105.5
	M -19.92 106.5
	L -20.78 106
	M -19.05 107
	L -19.92 107.5
	L -20.78 107
	M -19.92 107.5
	L -20.78 108
	L -21.65 107.5
	L -21.65 106.5
	M -21.65 107.5
	L -22.52 107
	L -22.52 106
	L -21.65 105.5
	M -22.52 106
	L -22.52 105
	M -22.52 107
	L -23.38 106.5
	L -23.38 105.5
	M -23.38 106.5
	L -24.25 106
	L -24.25 105
	L -23.38 104.5
	M -24.25 105
	L -24.25 104
	L -23.38 103.5
	L -22.52 104
	M -23.38 103.5
	L -22.52 103
	M -24.25 104
	L -24.25 103
	L -23.38 102.5
	M -24.25 103
	L -24.25 102
	M -24.25 106
	L -25.11 105.5
	L -25.11 104.5
	M -25.11 105.5
	L -25.98 105
	L -25.98 104
	L -25.11 103.5
	M -25.98 104
	L -25.98 103
	M -25.98 105
	L -26.85 104.5
	L -26.85 103.5
	M -26.85 104.5
	L -27.71 104
	M -20.78 108
	L -21.65 108.5
	L -22.52 108
	M -21.65 108.5
	L -22.52 109
	L -23.38 108.5
	L -23.38 107.5
	M -23.38 108.5
	L -24.25 108
	M -22.52 109
	L -23.38 109.5
	L -24.25 109
	M -23.38 109.5
	L -24.25 110
	L -25.11 109.5
	L -25.11 108.5
	M -25.11 109.5
	L -25.98 109
	L -25.98 108
	L -25.11 107.5
	M -25.98 108
	L -25.98 107
	M -25.98 109
	L -26.85 108.5
	L -26.85 107.5
	M -26.85 108.5
	L -27.71 108
	M -24.25 110
	L -25.11 110.5
	L -25.98 110
	M -25.11 110.5
	L -25.98 111
	L -26.85 110.5
	L -26.85 109.5
	M -26.85 110.5
	L -27.71 110
	M -25.98 111
	L -26.85 111.5
	L -27.71 111
	M -26.85 111.5
	L -27.71 112
	M 0 96
	L 0 97
	L -0.866 97.5
	M 0 97
	L 0 98
	L -0.866 98.5
	L -1.732 98
	M -0.866 98.5
	L -1.732 99
	M 0 98
	L 0 99
	L -0.866 99.5
	M 0 99
	L 0 100
	L -0.866 100.5
	L -1.732 100
	M -0.866 100.5
	L -1.732 101
	L -2.598 100.5
	L -2.598 99.5
	M -2.598 100.5
	L -3.464 100
	M -1.732 101
	L -2.598 101.5
	L -3.464 101
	M -2.598 101.5
	L -3.464 102
	M 0 100
	L 0 101
	L -0.866 101.5
	M 0 101
	L 0 102
	L -0.866 102.5
	L -1.732 102
	M -0.866 102.5
	L -1.732 103
	M 0 102
	L 0 103
	L -0.866 103.5
	M 0 103
	L 0 104
	L -0.866 104.5
	L -1.732 104
	M -0.866 104.5
	L -1.732 105
	L -2.598 104.5
	L -2.598 103.5
	M -2.598 104.5
	L -3.464 104
	M -1.732 105
	L -2.598 105.5
	L -3.464 105
	M -2.598 105.5
	L -3.464 106
	L -4.33 105.5
	L -4.33 104.5
	M -4.33 105.5
	L -5.196 105
	L -5.196 104
	L -4.33 103.5
	M -5.196 104
	L -5.196 103
	M -5.196 105
	L -6.062 104.5
	L -6.062 103.5
	M -6.062 104.5
	L -6.928 104
	M -3.464 106
	L -4.33 106.5
	L -5.196 106
	M -4.33 106.5
	L -5.196 107
	L -6.062 106.5
	L -6.062 105.5
	M -6.062 106.5
	L -6.928 106
	M -5.196 107
	L -6.062 107.5
	L -6.928 107
	M -6.062 107.5
	L -6.928 108
	M 0 104
	L 0 105
	L -0.866 105.5
	M 0 105
	L 0 106
	L -0.866 106.5
	L -1.732 106
	M -0.866 106.5
	L -1.732 107
	M 0 106
	L 0 107
	L -0.866 107.5
	M 0 107
	L 0 108
	L -0.866 108.5
	L -1.732 108
	M -0.866 108.5
	L -1.732 109
	L -2.598 108.5
	L -2.598 107.5
	M -2.598 108.5
	L -3.464 108
	M -1.732 109
	L -2.598 109.5
	L -3.464 109
	M -2.598 109.5
	L -3.464 110
	M 0 108
	L 0 109
	L -0.866 109.5
	M 0 109
	L 0 110
	L -0.866 110.5
	L -1.732 110
	M -0.866 110.5
	L -1.732 111
	M 0 110
	L 0 111
	L -0.866 111.5
	M 0 111
	L 0 112
	L -0.866 112.5
	L -1.732 112
	M -0.866 112.5
	L -1.732 113
	L -2.598 112.5
	L -2.598 111.5
	M -2.598 112.5
	L -3.464 112
	M -1.732 113
	L -2.598 113.5
	L -3.464 113
	M -2.598 113.5
	L -3.464 114
	L -4.33 113.5
	L -4.33 112.5
	M -4.33 113.5
	L -5.196 113
	L -5.196 112
	L -4.33 111.5
	M -5.196 112
	L -5.196 111
	M -5.196 113
	L -6.062 112.5
	L -6.062 111.5
	M -6.062 112.5
	L -6.928 112
	M -3.464 114
	L -4.33 114.5
	L -5.196 114
	M -4.33 114.5
	L -5.196 115
	L -6.062 114.5
	L -6.062 113.5
	M -6.062 114.5
	L -6.928 114
	M -5.196 115
	L -6.062 115.5
	L -6.928 115
	M -6.062 115.5
	L -6.928 116
	L -7.794 115.5
	L -7.794 114.5
	M -7.794 115.5
	L -8.66 115
	L -8.66 114
	L -7.794 113.5
	M -8.66 114
	L -8.66 113
	M -8.66 115
	L -9.526 114.5
	L -9.526 113.5
	M -9.526 114.5
	L -10.39 114
	L -10.39 113
	L -9.526 112.5
	M -10.39 113
	L -10.39 112
	L -9.526 111.5
	L -8.66 112
	M -9.526 111.5
	L -8.66 111
	M -10.39 112
	L -10.39 111
	L -9.526 110.5
	M -10.39 111
	L -10.39 110
	M -10.39 114
	L -11.26 113.5
	L -11.26 112.5
	M -11.26 113.5
	L -12.12 113
	L -12.12 112
	L -11.26 111.5
	M -12.12 112
	L -12.12 111
	M -12.12 113
	L -12.99 112.5
	L -12.99 111.5
	M -12.99 112.5
	L -13.86 112
	M -6.928 116
	L -7.794 116.5
	L -8.66 116
	M -7.794 116.5
	L -8.66 117
	L -9.526 116.5
	L -9.526 115.5
	M -9.526 116.5
	L -10.39 116
	M -8.66 117
	L -9.526 117.5
	L -10.39 117
	M -9.526 117.5
	L -10.39 118
	L -11.26 117.5
	L -11.26 116.5
	M -11.26 117.5
	L -12.12 117
	L -12.12 116
	L -11.26 115.5
	M -12.12 116
	L -12.12 115
	M -12.12 117
	L -12.99 116.5
	L -12.99 115.5
	M -12.99 116.5
	L -13.86 116
	M -10.39 118
	L -11.26 118.5
	L -12.12 118
	M -11.26 118.5
	L -12.12 119
	L -12.99 118.5
	L -12.99 117.5
	M -12.99 118.5
	L -13.86 118
	M -12.12 119
	L -12.99 119.5
	L -13.86 119
	M -12.99 119.5
	L -13.86 120
	M 0 112
	L 0 113
	L -0.866 113.5
	M 0 113
	L 0 114
	L -0.866 114.5
	L -1.732 114
	M -0.866 114.5
	L -1.732 115
	M 0 114
	L 0 115
	L -0.866 115.5
	M 0 115
	L 0 116
	L -0.866 116.5
	L -1.732 116
	M -0.866 116.5
	L -1.732 117
	L -2.598 116.5
	L -2.598 115.5
	M -2.598 116.5
	L -3.464 116
	M -1.732 117
	L -2.598 117.5
	L -3.464 117
	M -2.598 117.5
	L -3.464 118
	M 0 116
	L 0 117
	L -0.866 117.5
	M 0 117
	L 0 118
	L -0.866 118.5
	L -1.732 118
	M -0.866 118.5
	L -1.732 119
	M 0 118
	L 0 119
	L -0.866 119.5
	M 0 119
	L 0 120
	L -0.866 120.5
	L -1.732 120
	M -0.866 120.5
	L -1.732 121
	L -2.598 120.5
	L -2.598 119.5
	M -2.598 120.5
	L -3.464 120
	M -1.732 121
	L -2.598 121.5
	L -3.464 121
	M -2.598 121.5
	L -3.464 122
	L -4.33 121.5
	L -4.33 120.5
	M -4.33 121.5
	L -5.196 121
	L -5.196 120
	L -4.33 119.5
	M -5.196 120
	L -5.196 119
	M -5.196 121
	L -6.062 120.5
	L -6.062 119.5
	M -6.062 120.5
	L -6.928 120
	M -3.464 122
	L -4.33 122.5
	L -5.196 122
	M -4.33 122.5
	L -5.196 123
	L -6.062 122.5
	L -6.062 121.5
	M -6.062 122.5
	L -6.928 122
	M -5.196 123
	L -6.062 123.5
	L -6.928 123
	M -6.062 123.5
	L -6.928 124
	M 0 120
	L 0 121
	L -0.866 121.5
	M 0 121
	L 0 122
	L -0.866 122.5
	L -1.732 122
	M -0.866 122.5
	L -1.732 123
	M 0 122
	L 0 123
	L -0.866 123.5
	M 0 123
	L 0 124
	L -0.866 124.5
	L -1.732 124
	M -0.866 124.5
	L -1.732 125
	L -2.598 124.5
	L -2.598 123.5
	M -2.598 124.5
	L -3.464 124
	M -1.732 125
	L -2.598 125.5
	L -3.464 125
	M -2.598 125.5
	L -3.464 126
	M 0 124
	L 0 125
	L -0.866 125.5
	M 0 125
	L 0 126
	L -0.866 126.5
	L -1.732 126
	M -0.866 126.5
	L -1.732 127
	M 0 126
	L 0 127
	L -0.866 127.5
	M 0 127
	L 0 128
"/>
</svg>
